<?xml version="1.0" encoding="UTF-8"?><svg xmlns="http://www.w3.org/2000/svg" viewBox="0 0 295.57 357.14"><defs><style>.d{fill:#050505;}</style></defs><g id="a"/><g id="b"><g id="c"><g><path class="d" d="M98.51,69.05c3.45,2.03,4.34,3.97,4.07,7.67-.41,5.46-1.49,10.64-3.69,15.67-2.75,6.29-1.78,7.72,4.73,7.21,14.51-1.14,28.55,1,42.22,5.89,6,2.14,11.52,4.34,15.13,10.5,3.11,5.3,9.38,4.14,11.71-2.4,2.12-5.93,4.83-6.56,10.63-5.5,13.07,2.38,30.5-6.84,37.07-18.52,5.37-9.54,3.71-18.77-5.26-26.36-3.13-2.65-5.31-5.31-6.64-9.36-3.12-9.47-9.52-16.38-19.49-18.57-5.13-1.13-6.49-3.55-7.1-8.38-2.5-19.76-14.54-28.92-34.14-26.53h0c-9.47,1.19-17.79,4.62-23.13,12.99-1.7,2.65-3.29,2.95-6.3,2.44-15.49-2.63-27.04,3.54-31.89,16.58-5.49,14.76-1.08,28.89,12.1,36.67Zm74.86,26.89c-2.24,5.81-3.18,12.2-7.67,17.9-4.37-9.43-13.13-11.31-21.19-14.03-12.7-4.3-25.97-5.2-39.91-5.35,2.22-5.43,3.67-10.53,3.38-15.61-.4-6.92,3.31-8.4,8.94-8.74,21.32-1.33,39,6.58,54.09,21.11,1.33,1.28,3.19,2.58,2.36,4.73ZM91.36,35.03c4.73-12.45,15.61-17.21,29.27-12.77,2.65,.86,4.78,2.97,6.8-1.82,4.73-11.26,16.35-16.58,29.83-14.8,10.49,1.38,17.15,8.67,19.29,21.22,.35,2.08,.77,4.24,.57,6.3-.42,4.36,.85,5.94,5.64,6.4,10.53,.99,18.16,6.81,20.6,17.33,1.01,4.36,3.01,6.81,6.37,9.23,7.51,5.38,9.65,11.9,6.75,18.79-4.28,10.16-21.01,19.54-32,17.94-3.59-.52-7.22-1.29-8.22-5.41-.95-3.89,1.88-5.86,6.42-8.23-5.35,.4-19.62-8.42-21.15-12.57-1.66-4.49,3.85-5.8,4.97-9.19,.32-.99,1.59-1.92,.33-3.08-3.53,2.96-6.27,9.12-10.92,7.88-7.44-1.99-15.69-3.1-21.53-9.26-6.33-6.68-9.05-15.12-11.33-24.8-3.93,10.88,1.71,18.57,5.58,26.63-12.27,2.76-21.13-3.2-30.98-10.99,3.16,7.01,9.51,8.22,13.45,12.13-2.65,2.02-4.6,.87-6.51,.05-12.35-5.29-17.97-18.49-13.22-30.98Z"/><path class="d" d="M182.69,89.2l-.03,.02s.03,0,.04,0v-.02Z"/><path class="d" d="M293.74,97.07c0-5.14,.35-10.19,1.04-15.12-11.13,.53-21.41,3.01-30.79,7.21-10.69,4.8-19.98,11.6-28.01,20.13-8.03,8.56-14.62,18.41-19.6,29.63-4.61,10.41-7.28,21.67-8.03,33.59,0,.16-.03,.31-.03,.47v13.8c-3.82-3.1-7.94-5.96-12.26-8.56-14.43-8.56-30.64-12.98-48.26-13.01-17.62,.03-33.84,4.45-48.26,13.01-4.32,2.61-8.43,5.46-12.26,8.56v-13.8c0-.16-.03-.31-.03-.47-.75-11.92-3.41-23.17-8.03-33.59-4.98-11.22-11.57-21.08-19.6-29.63-8.03-8.53-17.31-15.33-28.01-20.13-9.38-4.2-19.66-6.68-30.79-7.21,.69,4.92,1.04,9.97,1.04,15.12,0,6.93-.63,13.7-1.85,20.26,7.65,.47,14.21,2.35,19.82,5.71,6.62,3.95,12.67,9.28,18.03,15.89,8.38,10,13.01,21.77,14.08,35.31h.19v93.48c.09,1.88,.25,3.7,.47,5.55,1.54,12.95,5.61,25.02,12.32,36.25,8.59,14.46,20.16,26.06,34.62,34.62,14.43,8.72,30.64,13.01,48.26,13.01s33.84-4.29,48.26-13.01c14.46-8.56,26.03-20.16,34.62-34.62,6.71-11.22,10.78-23.3,12.32-36.25,.22-1.85,.38-3.67,.47-5.55v-93.48h.19c1.07-13.55,5.71-25.31,14.08-35.31,5.36-6.62,11.41-11.95,18.03-15.89,5.61-3.35,12.17-5.24,19.82-5.71-1.22-6.55-1.85-13.33-1.85-20.26h.02Zm-85.42,166.2c-.44,15.83-6.33,29.44-17.81,40.73-11.73,11.73-25.97,17.78-42.71,17.81-16.74-.03-30.98-6.08-42.71-17.81-11.48-11.29-17.37-24.9-17.81-40.73-.03-.69-.03-1.38-.03-2.07s0-1.38,.03-2.07c.44-15.74,6.33-29.29,17.81-40.76s25.97-17.65,42.71-17.68c16.74,.03,30.98,5.96,42.71,17.68s17.37,25.02,17.81,40.76c.03,.69,.03,1.35,.03,2.07s0,1.38-.03,2.07Z"/></g></g></g></svg>