<svg width="292" height="159" viewBox="0 0 292 159" fill="none" xmlns="http://www.w3.org/2000/svg">
<path d="M56.7694 53.1862C46.808 58.5533 40.086 55.4529 31.6965 57.3635C13.3023 61.5583 4.44385 85.8842 3.37563 88.9412C2.0295 92.7886 -5.87361 116.793 8.95123 137.228C22.5689 156.013 47.5809 160.599 65.6018 155.336C69.866 154.094 83.8744 149.995 92.0728 137.689C96.5802 130.915 97.7005 124.106 100.428 124.219C103.98 124.375 102.712 135.891 110.259 145.653C117.814 155.44 131.632 160.113 143.678 158.775C146.83 158.428 157.486 156.821 165.633 148.701C173.153 141.206 173.614 133.06 178.903 132.573C184.062 132.096 185.625 139.816 191.904 139.999C199.703 140.233 201.631 129.525 209.551 128.856C218.41 128.101 220.034 141.154 232.305 143.247C241.902 144.88 246.453 137.845 255.988 141.388C261.416 143.412 261.851 146.399 266.202 146.964C275.434 148.154 283.979 136.047 284.778 134.892C294.792 120.354 296.425 90.7737 276.424 77.3124C263.77 68.8013 246.123 69.2095 231.845 78.2416C230.169 75.6015 227.207 71.8757 222.405 69.2616C209.048 62.0012 194.266 70.3212 193.076 71.0159C189.559 68.6363 174.204 58.8052 158.016 63.9987C155.688 64.7456 153.04 65.9006 150.278 67.7157C145.31 71.4328 142.436 71.537 140.681 70.8075C137.138 69.3311 137.477 64.1203 133.56 62.4528C130.928 61.3238 128.444 62.6873 125.509 63.6947C116.677 66.6996 104.31 66.2133 98.8903 60.9069C94.3309 56.443 98.3606 52.1701 93.6274 47.2892C87.7652 41.2447 75.9192 41.7658 67.9379 45.2744C62.2668 47.7669 62.6837 49.9989 56.7954 53.1688L56.7694 53.1862Z" fill="#652815"/>
<path d="M267.913 87.2212V87.2993C265.646 85.4234 263.023 83.9384 260.201 82.9049C257.335 81.8627 254.33 81.3242 251.168 81.3242C246.279 81.3242 241.824 82.5141 237.829 84.9284C235.996 85.9966 234.337 87.2385 232.852 88.6542C232.453 87.8378 231.984 87.0475 231.454 86.2745C229.326 83.2609 226.608 80.8379 223.247 79.0662C219.938 77.2858 216.429 76.3479 212.773 76.3479C209.76 76.3479 206.642 76.9819 203.333 78.2238C200.067 79.4049 197.445 81.0898 195.525 83.2175C193.597 81.0898 191.027 79.4049 187.865 78.1717C185.416 77.2598 183.045 76.6779 180.727 76.4521C180.006 76.3739 179.294 76.3392 178.581 76.3392C176.749 76.3392 174.969 76.5737 173.24 77.0253C171.147 77.5724 169.141 78.4583 167.213 79.6481V79.5352C161.664 82.957 157.842 88.9234 157.382 95.8191V99.8314C156.505 99.154 155.567 98.5287 154.585 97.9468C150.59 95.5846 146.135 94.3427 141.246 94.3427C136.356 94.3427 131.858 95.5846 127.854 97.9468C126.655 98.6677 125.509 99.458 124.458 100.326V96.5052C124.258 93.1442 123.52 89.9829 122.226 87.0649C120.845 83.9557 119.013 81.2287 116.79 78.8665C114.566 76.5042 111.996 74.6196 109.034 73.2909C106.064 71.9534 102.755 71.2586 99.1508 71.2586C95.9896 71.2586 93.1757 71.7971 90.7006 72.8393C88.2254 73.8814 85.9066 75.3578 83.6312 77.2337L83.5357 51.4922H73.748C74.1561 67.7761 74.5643 84.0599 74.9725 100.352C74.9986 101.134 75.1288 104.235 75.2591 110.435C75.2852 111.373 75.2939 112.251 74.9986 113.371C74.712 114.448 74.2777 115.212 73.8348 115.846C73.8348 115.846 73.8348 115.846 73.8348 115.855C73.3919 116.532 72.8969 117.253 72.3324 118C71.351 119.303 70.1525 120.675 68.7021 122.038C63.9516 126.502 58.8797 128.552 55.7358 129.525C52.7222 130.714 49.561 131.305 46.2 131.305C41.3105 131.305 36.8552 130.124 32.8081 127.701C28.8045 125.33 25.5911 122.116 23.2202 118.113C20.7972 114.066 19.616 109.61 19.616 104.773C19.616 99.9356 20.8058 95.4282 23.2202 91.3812C25.5911 87.3862 28.8045 84.1728 32.8081 81.7932C36.8552 79.3789 41.3105 78.1891 46.2 78.1891C49.6131 78.1891 52.8699 78.8317 55.8835 80.0215C58.9492 81.2548 61.6675 82.9309 64.0384 85.1108L70.9602 78.1369C67.6947 75.1233 63.9429 72.709 59.6961 70.972C55.4927 69.2438 51.0027 68.4014 46.2087 68.4014C39.4867 68.4014 33.4161 70.0341 27.9273 73.2909C22.3865 76.5563 17.992 80.9508 14.7352 86.4309C11.4784 91.9717 9.8457 98.0424 9.8457 104.764C9.8457 111.486 11.4784 117.514 14.7352 123.046C18.0007 128.534 22.3951 132.929 27.9273 136.186C33.4074 139.442 39.4867 141.075 46.2087 141.075C50.8984 141.075 55.3971 140.233 59.5484 138.557C60.2606 138.27 63.0136 137.158 67.0694 134.492C70.4304 132.286 75.1202 128.717 79.9836 123.176C79.9836 123.176 79.9836 123.176 79.9923 123.159C80.0531 123.098 80.1139 123.037 80.1747 122.959C80.2702 122.846 80.3744 122.733 80.4786 122.603C80.5655 122.499 80.6436 122.403 80.7131 122.299C80.7913 122.203 80.8521 122.099 80.9129 122.004C80.9389 121.96 80.965 121.917 80.991 121.882C82.5717 119.346 83.2664 117.175 83.6138 115.794C85.1771 109.541 83.1188 105.39 83.6833 96.8265C83.9265 93.0747 85.2552 89.8092 87.5306 87.0388C89.0678 85.2063 90.7006 83.7299 92.5244 82.6443C94.3568 81.5587 96.5715 81.0203 99.1421 81.0203C101.713 81.0203 103.936 81.5587 105.76 82.6443C107.592 83.7386 109.269 85.215 110.754 87.0388C113.072 89.8092 114.366 93.066 114.662 96.8265H114.705V122.716C114.731 123.237 114.783 123.74 114.844 124.253C115.27 127.848 116.399 131.192 118.257 134.301C120.637 138.305 123.842 141.518 127.845 143.889C131.84 146.303 136.348 147.493 141.237 147.493C146.127 147.493 150.573 146.303 154.577 143.889C158.633 141.518 161.794 138.305 164.217 134.301C164.217 134.301 165.494 132.147 166.379 129.585C166.379 129.568 166.388 129.559 166.397 129.533C166.458 129.377 166.51 129.212 166.553 129.056C166.926 127.874 167.048 127.032 167.109 126.572C167.109 126.554 167.144 126.233 167.17 125.894C167.3 123.879 167.213 116.654 167.187 115.151C167.196 108.725 167.204 102.307 167.213 95.8885C167.361 94.6466 168.003 93.2658 169.141 91.7893C170.279 90.2521 171.668 88.9755 173.345 87.8378C175.073 86.7088 176.801 86.1616 178.581 86.1616C181.343 86.1616 183.966 87.0475 186.484 88.9321C189.012 90.808 190.393 93.1268 190.636 95.8972V100.839C190.592 104.148 190.592 108.447 190.592 113.684V129.594H200.328C200.328 129.003 200.328 127.023 200.371 123.619V112.155C200.371 107.908 200.371 104.148 200.423 100.986V95.8972C200.623 93.3787 202.056 91.1033 204.67 89.1318C207.345 87.1517 210.055 86.1616 212.773 86.1616C214.649 86.1616 216.482 86.6046 218.357 87.4904C220.19 88.4284 221.718 89.6703 222.952 91.1988C224.185 92.736 224.828 94.4121 224.828 96.288C224.828 96.3315 224.828 97.9642 224.775 101.221V107.873C224.775 114.734 227.685 121.891 232.427 126.711C232.609 126.902 232.8 127.084 232.991 127.266C233.2 127.458 233.408 127.649 233.625 127.84C233.842 128.022 234.059 128.213 234.277 128.396C234.372 128.474 234.468 128.552 234.563 128.621C235.579 129.446 236.665 130.202 237.829 130.897C241.832 133.268 246.279 134.457 251.168 134.457C254.33 134.457 257.335 133.962 260.201 132.868C263.075 131.835 265.637 130.35 267.965 128.474V134.51H277.744V106.658C277.396 98.8066 273.636 91.8328 267.913 87.1951V87.2212ZM157.339 125.781C156.583 128.396 155.176 130.732 153.109 132.79C149.8 136.047 145.849 137.732 141.254 137.732C136.66 137.732 132.657 136.047 129.4 132.79C126.221 129.663 124.597 125.903 124.467 121.509C124.458 121.317 124.458 121.126 124.458 120.935C124.458 120.744 124.458 120.553 124.467 120.362C124.588 116.002 126.221 112.251 129.4 109.072C132.657 105.815 136.608 104.182 141.254 104.182C145.901 104.182 149.8 105.815 153.109 109.072C155.176 111.165 156.583 113.527 157.339 116.133C157.781 117.644 157.999 119.25 157.999 120.935C157.999 122.62 157.781 124.262 157.33 125.781H157.339ZM267.913 108.785C267.617 113.327 265.837 117.088 262.676 120.145C259.514 123.159 255.658 124.687 251.168 124.687C246.678 124.687 242.57 123.054 239.305 119.798C236.717 117.21 235.171 114.239 234.607 110.844C234.442 109.888 234.372 108.907 234.372 107.891C234.372 106.875 234.45 105.885 234.615 104.938C235.171 101.586 236.726 98.6155 239.305 96.0362C242.57 92.7707 246.522 91.0946 251.168 91.0946C255.815 91.0946 259.462 92.6318 262.676 95.6888C265.837 98.7111 267.617 102.515 267.913 107.057V108.785Z" fill="#FBE0CE"/>
<path d="M106.029 33.1333C103.815 32.838 99.6199 32.2909 95.4599 34.5316C88.2776 38.4049 87.3049 47.3068 87.1573 49.3043C87.0531 50.6852 86.4973 60.221 93.8445 66.0224C98.9425 70.0434 107.384 71.9106 112.499 67.9678C114.21 66.6477 115.174 64.9629 115.739 63.6515C116.173 63.9033 116.807 64.2507 117.571 64.6242C120.264 65.9269 123.303 67.412 126.525 67.2122C129.851 67.0125 132.405 65.0671 133.855 63.6515C134.411 64.1725 135.349 64.9455 136.66 65.5968C138.102 66.309 140.699 67.5857 143.026 66.4566C143.452 66.2482 144.789 65.5187 145.614 63.4343C146.335 62.453 146.37 61.1416 145.718 60.1949C144.989 59.1354 143.374 60.1949 142.158 59.3352C142.158 59.3352 140.898 58.4319 141.402 50.5983C141.68 50.4246 142.158 50.1554 142.8 49.947C144.355 49.4606 145.119 49.947 145.823 49.6256C147.568 48.844 148.063 43.5724 145.927 42.0786C144.32 40.9496 142.288 42.7039 140.968 41.5401C139.439 40.1853 141.42 37.137 139.995 35.8256C138.493 34.4447 134.029 35.7735 133.308 37.9794C132.804 39.5253 134.229 41.1927 133.412 41.9657C133.047 42.3131 132.674 42.0699 131.467 42.3999C130.303 42.7126 129.938 43.1381 129.313 43.3726C127.767 43.9545 126.855 42.5997 124.571 42.0786C120.924 41.2535 117.007 43.2945 116.269 43.6939C114.783 44.5016 114.063 45.1617 113.68 44.8838C112.812 44.2498 116.182 40.5067 115.079 37.4409C113.906 34.1668 108.235 33.4199 106.021 33.1246L106.029 33.1333Z" fill="#FBE0CE"/>
<path d="M101.605 63.4356C95.7755 63.4356 92.0934 58.1914 92.0934 52.7241C92.0934 47.1173 96.5565 41.4547 102.442 41.4547C105.036 41.4547 108.663 43.3515 108.663 46.3362C108.663 49.1815 104.479 49.5999 103.865 46.922C103.279 45.8899 101.494 46.2247 100.518 46.6431C98.2581 47.6473 96.975 50.2415 96.975 52.8636C96.975 54.4256 97.505 56.2109 98.6486 57.3825C100.322 59.2235 103.391 58.5819 104.367 57.0477C104.813 56.2946 104.981 55.5693 104.981 54.4814C103.865 54.6767 102.498 55.2067 101.41 55.2067C100.183 55.2067 98.8997 54.0909 98.8997 52.8078C98.8997 50.0183 104.088 49.4325 106.18 49.4325C109.137 49.4325 109.89 52.0546 109.89 54.5372C109.89 59.4746 106.738 63.4356 101.605 63.4356ZM102.498 43.2678C103.168 43.2678 103.837 43.6584 104.423 43.6584C104.618 43.6584 104.841 43.3794 104.841 43.1842C104.841 42.4589 103.028 42.2915 102.47 42.2915C102.024 42.2915 100.573 42.3752 100.573 42.9889C100.573 43.2121 100.741 43.491 100.992 43.491C101.466 43.491 101.996 43.2678 102.498 43.2678ZM98.2302 59.1119L98.3976 59.4188C99.2902 60.1719 100.434 60.6461 101.633 60.6461C102.052 60.6461 102.665 60.674 102.665 60.0882C102.665 59.4746 101.801 59.6977 101.494 59.6977C100.071 59.6977 99.0949 58.6098 98.7881 58.6098C98.5371 58.6098 98.2302 58.833 98.2302 59.1119ZM124.127 55.0672C125.354 55.0672 126.414 56.2946 126.414 57.494C126.414 60.2277 121.254 61.8735 119.05 61.8735C113.973 61.8735 111.379 57.8288 111.379 53.1425C111.379 48.2889 114.559 44.3278 119.636 44.3278C122.593 44.3278 125.661 46.6989 125.661 49.8231C125.661 53.6446 121.756 55.8483 118.353 55.8483C117.795 55.8483 117.265 55.8204 116.735 55.7367C117.125 56.3504 117.962 57.0477 118.743 57.0477C121.589 57.0477 122.174 55.0672 124.127 55.0672ZM119.608 48.6515C115.759 48.6515 115.759 52.5567 119.915 50.8551C121.616 50.1299 121.812 48.6515 119.608 48.6515ZM122.314 47.0336C122.565 47.0336 122.844 46.8383 122.844 46.5594L122.676 46.2247C121.895 45.5273 120.863 45.1089 119.803 45.1089C119.524 45.1089 119.329 45.332 119.329 45.611C119.329 45.8899 119.524 46.0573 119.803 46.0852C120.78 46.1689 122.202 47.0336 122.314 47.0336ZM119.022 58.7493C119.469 58.7493 120.556 58.6656 120.556 58.0798C120.556 57.8288 120.361 57.6056 120.11 57.6056C119.748 57.6056 119.357 57.773 118.967 57.773C118.464 57.773 117.99 57.494 117.516 57.494C117.349 57.494 117.181 57.5777 117.042 57.6893L117.014 57.8846C117.014 58.5819 118.464 58.7493 119.022 58.7493ZM138.209 60.8972C138.209 62.2361 137.121 63.2961 135.783 63.2961C132.603 63.2961 131.877 56.3504 131.682 53.9514C130.008 53.9514 127.637 53.9235 127.637 51.5525C127.637 49.0978 129.953 49.0978 131.738 49.0978C131.961 46.7825 131.543 41.6779 134.806 41.6779C135.838 41.6779 137.121 42.7936 137.121 43.8536C137.121 45.4994 136.759 47.2568 136.647 48.9025C138.516 48.9025 140.413 48.8467 140.413 51.413C140.413 53.6167 138.126 53.7283 136.564 53.812C136.703 56.2109 138.209 60.2835 138.209 60.8972ZM134.388 43.4352C135.197 43.4352 135.448 43.8536 135.699 43.8536C135.894 43.8536 136.201 43.5747 136.201 43.3515C136.201 42.6821 134.918 42.431 134.388 42.431C134.081 42.431 133.746 42.5147 133.746 42.9052C133.746 43.3515 134.025 43.4352 134.388 43.4352ZM137.289 50.7436H138.07C138.349 50.7436 138.6 50.5483 138.6 50.2415C138.6 49.7115 138.042 49.7673 137.679 49.7673C137.289 49.7673 136.731 49.7115 136.731 50.2694C136.731 50.5483 137.038 50.7436 137.289 50.7436Z" fill="#652815"/>
<path d="M226.547 0.739202C220.833 1.46003 215.83 3.527 212.6 8.57283C211.575 10.1708 210.619 10.3532 208.804 10.0406C199.468 8.45993 192.503 12.177 189.576 20.0367C186.267 28.9298 188.925 37.4496 196.863 42.1393C198.938 43.3639 199.477 44.5363 199.312 46.7596C199.06 50.0511 198.409 53.1689 197.089 56.1999C195.43 59.9951 196.012 60.8549 199.937 60.551C208.691 59.8649 217.142 61.1502 225.383 64.103C228.996 65.397 232.331 66.7171 234.502 70.4342C236.37 73.6302 240.156 72.9267 241.563 68.9838C242.84 65.4057 244.473 65.0323 247.972 65.6663C255.85 67.0992 266.358 61.541 270.318 54.5064C273.558 48.7484 272.55 43.1902 267.148 38.622C265.264 37.024 263.952 35.4173 263.145 32.9769C261.26 27.2711 257.404 23.1024 251.394 21.7823C248.303 21.1049 247.486 19.6459 247.113 16.7365C245.602 4.82971 238.35 -0.693779 226.539 0.747886L226.547 0.739202ZM247.625 54.2893C244.42 54.5585 235.779 49.2261 234.859 46.7162C233.86 44.0152 237.177 43.2162 237.855 41.1753C238.055 40.5761 238.81 40.0203 238.055 39.3168C235.927 41.0972 234.277 44.8142 231.471 44.0673C226.981 42.8688 222.014 42.2001 218.496 38.4831C214.684 34.462 213.042 29.3728 211.67 23.5366C209.299 30.0936 212.704 34.7312 215.031 39.5947C207.641 41.2535 202.299 37.6667 196.359 32.9682C198.261 37.189 202.091 37.9272 204.462 40.2808C202.864 41.4967 201.692 40.8019 200.545 40.3155C193.102 37.1282 189.715 29.173 192.581 21.6434C195.43 14.1397 201.996 11.2738 210.229 13.9487C211.827 14.4698 213.112 15.7464 214.328 12.8457C217.176 6.06294 224.185 2.84959 232.305 3.9265C238.628 4.76023 242.64 9.15471 243.925 16.7191C244.143 17.9697 244.386 19.2724 244.264 20.5143C244.012 23.1371 244.777 24.1011 247.66 24.3704C254.008 24.9696 258.603 28.4696 260.079 34.8181C260.687 37.4409 261.885 38.926 263.918 40.385C268.442 43.6331 269.736 47.5586 267.982 51.7099C265.403 57.8326 255.32 63.4864 248.693 62.5224C246.522 62.2097 244.342 61.7495 243.743 59.2656C243.17 56.9121 244.881 55.7309 247.634 54.298L247.625 54.2893ZM237.377 69.1402C234.746 63.4517 229.465 62.3226 224.602 60.6725C216.951 58.0845 208.952 57.5374 200.545 57.4505C201.883 54.1764 202.751 51.102 202.577 48.0449C202.334 43.8676 204.575 42.9817 207.971 42.7733C220.815 41.9743 231.471 46.7336 240.573 55.4964C241.372 56.2694 242.492 57.051 241.997 58.345C240.651 61.845 240.078 65.701 237.377 69.1402Z" fill="#652815"/>
</svg>
