<svg width="114" height="114" viewBox="0 0 114 114" fill="none" xmlns="http://www.w3.org/2000/svg">
<rect width="114" height="114" rx="28" fill="#004432"/>
<path d="M28.728 46.1896C25.6114 47.8874 23.5082 46.9066 20.8834 47.511C15.1283 48.838 12.3568 56.5333 12.0225 57.5003C11.6014 58.7174 9.1287 66.311 13.767 72.7755C18.0276 78.718 25.8532 80.1686 31.4914 78.5037C32.8256 78.1109 37.2085 76.8141 39.7735 72.9211C41.1838 70.7782 41.5343 68.6243 42.3875 68.66C43.4988 68.7095 43.1021 72.3524 45.4634 75.4404C47.8274 78.5367 52.1505 80.0148 55.9192 79.5917C56.9056 79.4818 60.2396 78.9735 62.7884 76.4048C65.1415 74.0338 65.2855 71.4568 66.9403 71.303C68.5543 71.1519 69.0434 73.5942 71.008 73.6519C73.448 73.7261 74.0513 70.3386 76.5294 70.1271C79.3009 69.8881 79.8091 74.0173 83.6485 74.6794C86.651 75.1959 88.0748 72.9706 91.0584 74.0915C92.7566 74.7316 92.8925 75.6767 94.2538 75.8553C97.1422 76.2317 99.816 72.4019 100.066 72.0365C103.199 67.4375 103.71 58.08 97.452 53.8217C93.493 51.1293 87.9716 51.2584 83.5045 54.1156C82.9801 53.2804 82.0535 52.1018 80.5509 51.2749C76.3718 48.9781 71.7471 51.6101 71.3748 51.8298C70.2743 51.0771 65.4703 47.9671 60.4054 49.61C59.6772 49.8463 58.8484 50.2117 57.9843 50.7859C56.4301 51.9617 55.5307 51.9947 54.9818 51.7639C53.8732 51.2969 53.9792 49.6485 52.7537 49.121C51.9304 48.7638 51.1532 49.1952 50.2348 49.5138C47.4714 50.4644 43.6021 50.3106 41.9065 48.6319C40.48 47.2198 41.7408 45.8681 40.2599 44.3241C38.4258 42.412 34.7195 42.5768 32.2224 43.6867C30.448 44.4752 30.5784 45.1813 28.7362 46.1841L28.728 46.1896Z" fill="#F7AE1A"/>
<path d="M94.7891 56.9811C94.0799 56.3877 93.2593 55.9179 92.3762 55.5909C91.4795 55.2613 90.5394 55.0909 89.5503 55.0909C88.0205 55.0909 86.6266 55.4673 85.3766 56.2311C84.8033 56.569 84.2843 56.9619 83.8197 57.4097C83.6947 57.1514 83.5479 56.9014 83.3822 56.6569C82.7165 55.7036 81.866 54.9371 80.8144 54.3766C79.7792 53.8134 78.6814 53.5167 77.5375 53.5167C76.5946 53.5167 75.6191 53.7173 74.5838 54.1101C73.5622 54.4838 72.7416 55.0168 72.1411 55.6899C71.5378 55.0168 70.7335 54.4838 69.7445 54.0936C68.9782 53.8052 68.2364 53.6211 67.5109 53.5497C67.2854 53.525 67.0626 53.514 66.8398 53.514C66.2664 53.514 65.7094 53.5881 65.1687 53.731C64.5138 53.9041 63.8861 54.1843 63.2829 54.5607V54.525C61.5466 55.6074 60.351 57.4948 60.207 59.6762V60.9455C59.9326 60.7312 59.6391 60.5334 59.3321 60.3493C58.0822 59.6021 56.6882 59.2092 55.1584 59.2092C53.6286 59.2092 52.2211 59.6021 50.9685 60.3493C50.5935 60.5774 50.2348 60.8274 49.906 61.1021V59.8933C49.8435 58.8301 49.6126 57.83 49.2077 56.9069C48.7757 55.9234 48.2023 55.0607 47.5067 54.3134C46.8111 53.5662 46.0068 52.97 45.0803 52.5496C44.151 52.1266 43.1157 51.9068 41.9881 51.9068C40.999 51.9068 40.1186 52.0771 39.3442 52.4068C38.5698 52.7365 37.8443 53.2035 37.1324 53.7969L37.1025 45.6538H34.0402C34.1679 50.8051 34.2956 55.9563 34.4233 61.1103C34.4315 61.3576 34.4722 62.3384 34.513 64.3C34.5211 64.5967 34.5239 64.8742 34.4315 65.2286C34.3418 65.5693 34.2059 65.811 34.0674 66.0116C34.0674 66.0116 34.0674 66.0116 34.0674 66.0143C33.9288 66.2286 33.7739 66.4567 33.5973 66.6929C33.2902 67.105 32.9153 67.5391 32.4615 67.9704C30.9752 69.3826 29.3883 70.0309 28.4047 70.3386C27.4618 70.715 26.4727 70.9019 25.4212 70.9019C23.8914 70.9019 22.4974 70.5282 21.2312 69.7617C19.9786 69.0117 18.9732 67.9952 18.2314 66.7286C17.4733 65.4484 17.1037 64.039 17.1037 62.5087C17.1037 60.9785 17.476 59.5526 18.2314 58.2723C18.9732 57.0086 19.9786 55.9921 21.2312 55.2393C22.4974 54.4755 23.8914 54.0991 25.4212 54.0991C26.489 54.0991 27.508 54.3024 28.4509 54.6788C29.41 55.069 30.2605 55.5992 31.0023 56.2888L33.168 54.0827C32.1463 53.1293 30.9724 52.3656 29.6437 51.8161C28.3286 51.2694 26.9238 51.0029 25.4239 51.0029C23.3208 51.0029 21.4214 51.5194 19.7041 52.5496C17.9705 53.5826 16.5956 54.9728 15.5767 56.7064C14.5577 58.4592 14.0469 60.3796 14.0469 62.506C14.0469 64.6324 14.5577 66.5391 15.5767 68.2891C16.5983 70.0254 17.9733 71.4156 19.7041 72.4459C21.4187 73.4761 23.3208 73.9926 25.4239 73.9926C26.8912 73.9926 28.2987 73.7261 29.5975 73.1959C29.8203 73.1052 30.6817 72.7536 31.9506 71.9101C33.0022 71.2123 34.4695 70.0831 35.9911 68.3303C35.9911 68.3303 35.9912 68.3303 35.9939 68.3248C36.0129 68.3056 36.0319 68.2864 36.0509 68.2617C36.0808 68.2259 36.1134 68.1902 36.146 68.149C36.1732 68.1161 36.1977 68.0858 36.2194 68.0529C36.2439 68.0226 36.2629 67.9897 36.2819 67.9594C36.29 67.9457 36.2982 67.932 36.3063 67.921C36.8009 67.1188 37.0183 66.4319 37.1269 65.9951C37.616 64.017 36.9721 62.7038 37.1487 59.9949C37.2248 58.8081 37.6405 57.7751 38.3524 56.8987C38.8334 56.319 39.3442 55.8519 39.9148 55.5085C40.4881 55.1651 41.181 54.9948 41.9853 54.9948C42.7896 54.9948 43.4852 55.1651 44.0559 55.5085C44.6292 55.8547 45.1536 56.3217 45.6183 56.8987C46.3438 57.7751 46.7486 58.8053 46.841 59.9949H46.8546V68.1847C46.8628 68.3496 46.8791 68.5089 46.8981 68.671C47.0312 69.8084 47.3845 70.8661 47.9659 71.8497C48.7105 73.1162 49.7131 74.1327 50.9658 74.8827C52.2157 75.6465 53.6259 76.0229 55.1557 76.0229C56.6855 76.0229 58.0767 75.6465 59.3294 74.8827C60.5983 74.1327 61.5874 73.1162 62.3455 71.8497C62.3455 71.8497 62.7449 71.1683 63.0221 70.3579C63.0221 70.3524 63.0248 70.3496 63.0275 70.3414C63.0465 70.2919 63.0628 70.2397 63.0764 70.1903C63.1933 69.8167 63.2313 69.5502 63.2503 69.4045C63.2503 69.3991 63.2612 69.2974 63.2693 69.1903C63.3101 68.5529 63.2829 66.2671 63.2748 65.7918C63.2775 63.7588 63.2802 61.7285 63.2829 59.6982C63.3291 59.3053 63.5302 58.8685 63.8861 58.4015C64.2421 57.9152 64.6769 57.5113 65.2013 57.1514C65.742 56.7943 66.2827 56.6212 66.8398 56.6212C67.7038 56.6212 68.5244 56.9014 69.3124 57.4976C70.1031 58.091 70.5352 58.8246 70.6113 59.701V61.2642C70.5977 62.3109 70.5977 63.6709 70.5977 65.3275V70.3606H73.6437C73.6437 70.1738 73.6437 69.5474 73.6573 68.4705V64.844C73.6573 63.5005 73.6573 62.3109 73.6736 61.3109V59.701C73.7361 58.9042 74.1844 58.1844 75.0023 57.5608C75.8392 56.9344 76.687 56.6212 77.5375 56.6212C78.1244 56.6212 78.6977 56.7613 79.2846 57.0415C79.858 57.3383 80.3362 57.7311 80.722 58.2147C81.1079 58.7009 81.309 59.2312 81.309 59.8246C81.309 59.8383 81.309 60.3548 81.2927 61.3851V63.4895C81.2927 65.6599 82.2029 67.9237 83.6865 69.4485C83.7436 69.5089 83.8034 69.5666 83.8632 69.6243C83.9284 69.6848 83.9936 69.7452 84.0615 69.8057C84.1294 69.8634 84.1974 69.9238 84.2653 69.9815C84.2952 70.0062 84.3251 70.0309 84.355 70.0529C84.6729 70.3139 85.0125 70.5529 85.3766 70.7727C86.6293 71.5227 88.0205 71.8991 89.5503 71.8991C90.5394 71.8991 91.4795 71.7425 92.3762 71.3964C93.2756 71.0694 94.0772 70.5996 94.8054 70.0062V71.9156H97.865V63.1049C97.7563 60.6213 96.5797 58.4152 94.7891 56.9481V56.9811ZM60.1934 69.1545C59.957 69.9815 59.5169 70.7205 58.8702 71.3716C57.8349 72.4019 56.5986 72.9349 55.1611 72.9349C53.7237 72.9349 52.4711 72.4019 51.4521 71.3716C50.4576 70.3826 49.9495 69.193 49.9088 67.8029C49.906 67.7424 49.906 67.682 49.906 67.6215C49.906 67.5611 49.906 67.5006 49.9088 67.4402C49.9468 66.061 50.4576 64.8742 51.4521 63.8687C52.4711 62.8384 53.7074 62.3219 55.1611 62.3219C56.6149 62.3219 57.8349 62.8384 58.8702 63.8687C59.5169 64.5308 59.957 65.2781 60.1934 66.1023C60.332 66.5803 60.4 67.0885 60.4 67.6215C60.4 68.1545 60.332 68.6738 60.1907 69.1545H60.1934ZM94.7891 63.778C94.6967 65.2149 94.1397 66.4045 93.1506 67.3715C92.1615 68.3248 90.9551 68.8084 89.5503 68.8084C88.1455 68.8084 86.8602 68.2919 85.8386 67.2616C85.0288 66.4429 84.5452 65.5033 84.3686 64.4291C84.3169 64.1269 84.2952 63.8165 84.2952 63.495C84.2952 63.1736 84.3196 62.8604 84.3713 62.5609C84.5452 61.5005 85.0316 60.5609 85.8386 59.7449C86.8602 58.7119 88.0966 58.1817 89.5503 58.1817C91.004 58.1817 92.1452 58.668 93.1506 59.635C94.1397 60.5911 94.6967 61.7944 94.7891 63.2313V63.778Z" fill="#004432"/>
<path d="M44.1401 39.846C43.4472 39.7526 42.1348 39.5795 40.8332 40.2883C38.5861 41.5136 38.2818 44.3296 38.2356 44.9615C38.203 45.3983 38.0291 48.4149 40.3278 50.2501C41.9228 51.5221 44.564 52.1128 46.1644 50.8655C46.6997 50.4479 47.0013 49.915 47.178 49.5001C47.3138 49.5798 47.5122 49.6897 47.7513 49.8078C48.5936 50.2199 49.5447 50.6897 50.5527 50.6265C51.5934 50.5633 52.3923 49.9479 52.8461 49.5001C53.02 49.6649 53.3134 49.9095 53.7237 50.1155C54.1748 50.3408 54.9872 50.7446 55.7155 50.3875C55.8486 50.3216 56.2671 50.0908 56.5252 49.4314C56.7507 49.121 56.7616 48.7061 56.5578 48.4067C56.3296 48.0715 55.8242 48.4067 55.4437 48.1347C55.4437 48.1347 55.0497 47.849 55.2073 45.3709C55.2943 45.3159 55.4437 45.2307 55.6448 45.1648C56.1312 45.011 56.3703 45.1648 56.5904 45.0632C57.1366 44.8159 57.2915 43.1483 56.623 42.6757C56.1203 42.3186 55.4845 42.8735 55.0715 42.5054C54.5933 42.0768 55.2128 41.1125 54.7672 40.6976C54.2971 40.2608 52.9004 40.6812 52.6749 41.379C52.5173 41.868 52.9629 42.3955 52.7075 42.64C52.5934 42.7499 52.4765 42.673 52.0988 42.7774C51.7347 42.8763 51.6206 43.0109 51.425 43.0851C50.9413 43.2691 50.656 42.8406 49.9414 42.6757C48.8001 42.4147 47.5747 43.0603 47.3437 43.1867C46.8791 43.4422 46.6535 43.651 46.534 43.5631C46.2622 43.3626 47.3165 42.1785 46.9714 41.2086C46.6046 40.1729 44.8303 39.9366 44.1374 39.8432L44.1401 39.846Z" fill="#FFDCA5"/>
<path d="M42.756 49.449C40.9319 49.449 39.7799 47.79 39.7799 46.0605C39.7799 44.2868 41.1763 42.4955 43.0178 42.4955C43.8295 42.4955 44.964 43.0956 44.964 44.0398C44.964 44.9398 43.6549 45.0722 43.4629 44.2251C43.2796 43.8986 42.7211 44.0045 42.4156 44.1368C41.7087 44.4545 41.3072 45.2751 41.3072 46.1046C41.3072 46.5988 41.473 47.1635 41.8309 47.5341C42.3545 48.1165 43.3145 47.9136 43.62 47.4282C43.7596 47.19 43.812 46.9606 43.812 46.6164C43.4629 46.6782 43.0353 46.8458 42.6949 46.8458C42.3109 46.8458 41.9094 46.4929 41.9094 46.087C41.9094 45.2046 43.5327 45.0192 44.1873 45.0192C45.1124 45.0192 45.348 45.8487 45.348 46.6341C45.348 48.1959 44.3618 49.449 42.756 49.449ZM43.0353 43.0691C43.2447 43.0691 43.4542 43.1926 43.6375 43.1926C43.6985 43.1926 43.7684 43.1044 43.7684 43.0426C43.7684 42.8132 43.2011 42.7603 43.0265 42.7603C42.8869 42.7603 42.4331 42.7867 42.4331 42.9809C42.4331 43.0515 42.4854 43.1397 42.564 43.1397C42.7123 43.1397 42.8782 43.0691 43.0353 43.0691ZM41.7 48.0812L41.7523 48.1783C42.0316 48.4165 42.3894 48.5666 42.7647 48.5666C42.8956 48.5666 43.0876 48.5754 43.0876 48.3901C43.0876 48.1959 42.8171 48.2665 42.7211 48.2665C42.276 48.2665 41.9705 47.9224 41.8745 47.9224C41.796 47.9224 41.7 47.993 41.7 48.0812Z" fill="#004432"/>
<path d="M49.8024 46.8017C50.1864 46.8017 50.518 47.19 50.518 47.5694C50.518 48.4342 48.9034 48.9548 48.214 48.9548C46.6256 48.9548 45.8139 47.6753 45.8139 46.1929C45.8139 44.6575 46.8089 43.4044 48.3973 43.4044C49.3224 43.4044 50.2824 44.1545 50.2824 45.1428C50.2824 46.3517 49.0605 47.0488 47.9958 47.0488C47.8212 47.0488 47.6554 47.04 47.4896 47.0135C47.6118 47.2076 47.8736 47.4282 48.118 47.4282C49.0082 47.4282 49.1915 46.8017 49.8024 46.8017ZM48.3885 44.7722C47.1841 44.7722 47.1841 46.0075 48.4845 45.4693C49.0169 45.2398 49.078 44.7722 48.3885 44.7722ZM49.2351 44.2604C49.3136 44.2604 49.4009 44.1986 49.4009 44.1104L49.3485 44.0045C49.1042 43.7839 48.7813 43.6515 48.4496 43.6515C48.3623 43.6515 48.3013 43.7221 48.3013 43.8103C48.3013 43.8986 48.3623 43.9515 48.4496 43.9603C48.7551 43.9868 49.2002 44.2604 49.2351 44.2604ZM48.2053 47.9665C48.3449 47.9665 48.6853 47.94 48.6853 47.7547C48.6853 47.6753 48.6242 47.6047 48.5456 47.6047C48.4322 47.6047 48.31 47.6577 48.1878 47.6577C48.0307 47.6577 47.8823 47.5694 47.734 47.5694C47.6816 47.5694 47.6292 47.5959 47.5856 47.6312L47.5769 47.693C47.5769 47.9136 48.0307 47.9665 48.2053 47.9665Z" fill="#004432"/>
<path d="M54.2084 48.646C54.2084 49.0695 53.868 49.4049 53.4491 49.4049C52.4542 49.4049 52.2272 47.2076 52.1661 46.4488C51.6425 46.4488 50.9007 46.4399 50.9007 45.6899C50.9007 44.9134 51.625 44.9134 52.1836 44.9134C52.2534 44.1809 52.1225 42.5661 53.1436 42.5661C53.4665 42.5661 53.868 42.9191 53.868 43.2544C53.868 43.775 53.7545 44.331 53.7196 44.8516C54.3044 44.8516 54.8978 44.8339 54.8978 45.6458C54.8978 46.3429 54.1822 46.3782 53.6935 46.4046C53.7371 47.1635 54.2084 48.4518 54.2084 48.646ZM53.0127 43.122C53.2658 43.122 53.3444 43.2544 53.4229 43.2544C53.484 43.2544 53.58 43.1662 53.58 43.0956C53.58 42.8838 53.1785 42.8044 53.0127 42.8044C52.9167 42.8044 52.812 42.8308 52.812 42.9544C52.812 43.0956 52.8993 43.122 53.0127 43.122ZM53.9204 45.434H54.1647C54.252 45.434 54.3306 45.3722 54.3306 45.2751C54.3306 45.1075 54.156 45.1251 54.0425 45.1251C53.9204 45.1251 53.7458 45.1075 53.7458 45.284C53.7458 45.3722 53.8418 45.434 53.9204 45.434Z" fill="#004432"/>
<path d="M81.847 29.5984C80.059 29.8264 78.4939 30.4803 77.4831 32.0765C77.1625 32.582 76.8636 32.6397 76.2957 32.5408C73.3747 32.0408 71.1955 33.2166 70.2798 35.703C69.2445 38.5163 70.076 41.2114 72.5595 42.695C73.2089 43.0823 73.3774 43.4532 73.3258 44.1565C73.247 45.1978 73.0432 46.1841 72.6302 47.1429C72.1112 48.3435 72.2932 48.6155 73.5214 48.5193C76.2604 48.3023 78.9042 48.7089 81.4829 49.643C82.6132 50.0523 83.6566 50.4699 84.3359 51.6458C84.9202 52.6568 86.1049 52.4343 86.545 51.187C86.9445 50.0551 87.4553 49.9369 88.5504 50.1375C91.0149 50.5908 94.3027 48.8325 95.5418 46.6072C96.5553 44.7857 96.2401 43.0274 94.55 41.5823C93.9603 41.0768 93.55 40.5685 93.2973 39.7965C92.7077 37.9915 91.5013 36.6728 89.6209 36.2552C88.6536 36.0409 88.3982 35.5794 88.2813 34.659C87.8085 30.8924 85.5397 29.1451 81.8443 29.6012L81.847 29.5984ZM88.4417 46.5385C87.439 46.6236 84.7354 44.9368 84.4474 44.1428C84.1349 43.2884 85.1728 43.0356 85.3848 42.39C85.4473 42.2004 85.6837 42.0246 85.4473 41.8021C84.7816 42.3653 84.2653 43.5411 83.3876 43.3049C81.9828 42.9257 80.4286 42.7142 79.3281 41.5383C78.1352 40.2663 77.6217 38.6564 77.1924 36.8102C76.4506 38.8844 77.5157 40.3515 78.2439 41.89C75.9316 42.4147 74.2605 41.2801 72.4019 39.7938C72.997 41.129 74.1953 41.3625 74.9371 42.107C74.4371 42.4917 74.0703 42.2719 73.7116 42.118C71.383 41.1097 70.3232 38.5932 71.2199 36.2112C72.1112 33.8375 74.1654 32.9309 76.7413 33.7771C77.2413 33.9419 77.6434 34.3458 78.0238 33.4282C78.9151 31.2825 81.1079 30.266 83.6485 30.6067C85.6266 30.8704 86.882 32.2606 87.2841 34.6535C87.3521 35.0491 87.4281 35.4612 87.3901 35.8541C87.3113 36.6838 87.5504 36.9887 88.4525 37.0739C90.4388 37.2635 91.8762 38.3706 92.3382 40.379C92.5284 41.2086 92.9033 41.6784 93.5392 42.14C94.9548 43.1675 95.3597 44.4093 94.8108 45.7225C94.0038 47.6594 90.8491 49.4479 88.7759 49.143C88.0966 49.044 87.4145 48.8984 87.2271 48.1127C87.0477 47.3682 87.583 46.9945 88.4444 46.5412L88.4417 46.5385ZM85.2353 51.2364C84.412 49.4369 82.76 49.0798 81.2383 48.5578C78.8444 47.7391 76.3419 47.566 73.7116 47.5385C74.1301 46.5028 74.4018 45.5302 74.3474 44.5631C74.2714 43.2417 74.9724 42.9614 76.0348 42.8955C80.0536 42.6428 83.3876 44.1483 86.2353 46.9204C86.4853 47.1649 86.8358 47.4121 86.6809 47.8215C86.2597 48.9287 86.0804 50.1485 85.2353 51.2364Z" fill="#F5A71F"/>
</svg>
