<?xml version="1.0" encoding="UTF-8"?><svg id="a" xmlns="http://www.w3.org/2000/svg" width="24" height="24" viewBox="0 0 24 24"><path d="M24,4v14c0,2.2-1.8,4-4,4h-2c.8-2.5,2-6.9,2-11.6v-1.8c.3,.1,.5,.2,.8,.3,.6,.1,1.2-.3,1.2-.9h0c0-.5-.3-.9-.7-1.1-.3-.1-.6-.3-.9-.5-.3-.3-.7-.4-1-.4s-.7,.1-1,.4c-.5,.4-1,.6-1.6,.6s-1.3-.2-1.8-.6c-.3-.3-.6-.4-1-.4s-.7,.1-1,.4c-.5,.4-1,.6-1.6,.6s-1.2-.2-1.6-.6c-.4-.3-.8-.4-1.1-.4s-.7,.1-1,.4h0c-.7,.5-1.7,.1-1.7-.8v-1.6C6,1.8,7.8,0,10,0h10c2.2,0,4,1.8,4,4Zm-6,6.5c0,4.1-1,8-1.8,10.6-.6,1.8-2.2,3-4.1,3H3.3c-1.1,0-2.2-.6-2.8-1.5-.6-.9-.7-1.9-.3-2.8,.8-2,2.4-5.8,2.4-9.2,0-.3,.1-.6,.4-.7,.4-.6,1.2-.9,1.7-.9,.7,0,1.3,.2,1.8,.6,.6,.5,1.5,.5,2.1,0,1-.8,2.4-.8,3.4,0,.6,.5,1.5,.5,2.1,0,.5-.4,1.1-.6,1.8-.6,.6,0,1.3,.3,1.7,.7,.2,.2,.4,.4,.4,.8h0Zm-7.5,2.6c-.4-.2-.8-.1-1.1,.1l-1.5,1.3c-.4,.4-.4,1-.1,1.4,.2,.3,.6,.4,.9,.3-.2,1.2-.4,2.6-.6,3.4-.2,.5,.1,1.1,.6,1.3,.1,.1,.2,.1,.3,.1,.4,0,.8-.3,.9-.7,.4-1.2,1-5.8,1.1-6.2s-.1-.8-.5-1h0Z" fill="#383838"/></svg>