<?xml version="1.0" encoding="UTF-8"?><svg id="a" xmlns="http://www.w3.org/2000/svg" width="24.07" height="24" viewBox="0 0 24.07 24"><path d="M11.37,13.6c-.4,2.7-1.3,4.6-2,6.4l-.3,.7c-.1,.2-.3,.3-.5,.3h-.2c-.3-.1-.4-.4-.3-.7l.3-.7c.5-1.2,1.1-2.5,1.5-4.1-.6,.6-1.1,.9-1.1,.9-.2,.1-.5,0-.7-.2-.1-.2,0-.5,.2-.7,0,0,1-.6,2.1-2.3,.1-.2,.4-.3,.6-.2s.4,.3,.4,.6h0Zm6.7-3.6c0,4.6-1.3,8.7-2.4,11.3-.7,1.7-2.3,2.7-4.1,2.7H2.57c-.8,0-1.6-.4-2.1-1.1-.5-.7-.6-1.5-.3-2.3,.3-.7,.6-1.5,1-2.3,1.1-2.5,2.4-5.6,2.5-8.3,0-.1,.1-.3,.2-.4,.3-.3,.9-.6,1.5-.6,.5,0,1,.2,1.4,.5,.8,.7,1.9,.7,2.7,0s2-.7,2.8,0,1.9,.7,2.7,0c.4-.3,.9-.5,1.4-.5s1.2,.3,1.5,.6c.1,.1,.2,.3,.2,.4Zm-1,.2c-.2-.1-.5-.2-.7-.2-.3,0-.5,.1-.8,.3-1.2,1-2.9,1-4,0-.4-.4-1.1-.4-1.5,0-1.2,1-2.9,1-4,0-.2-.2-.4-.3-.7-.3-.2,0-.5,.1-.7,.3-.1,2.7-1.5,5.8-2.6,8.3-.4,.8-.7,1.6-.9,2.3-.2,.5-.1,1,.2,1.4,.3,.5,.7,.7,1.2,.7H11.47c1.4,0,2.7-.8,3.2-2.1,1.1-2.5,2.4-6.3,2.4-10.7Zm7-5.7v13c0,2.5-2,4.5-4.5,4.5h-1c-.3,0-.5-.2-.5-.5s.2-.5,.5-.5h1c1.9,0,3.5-1.6,3.5-3.5V7c-.5,0-.9-.2-1.3-.5-.4-.3-.9-.5-1.4-.5s-1,.2-1.4,.5c-.8,.6-1.9,.6-2.6,0-.8-.7-2-.7-2.7,0-.8,.6-1.9,.6-2.6,0-.8-.7-2-.7-2.7,0-.4,.3-.8,.5-1.3,.5h-.5c-.3,0-.5-.2-.5-.5v-2C6.07,2,8.07,0,10.57,0h9c2.5,0,4.5,2,4.5,4.5h0Zm-1,0c0-1.9-1.6-3.5-3.5-3.5H10.57c-1.9,0-3.5,1.6-3.5,3.5v1.5c.2,0,.5-.1,.7-.3,1.1-1,2.9-1,4,0,.4,.3,.9,.3,1.3,0,1.1-1,2.9-1,4,0,.4,.3,.9,.3,1.3,0,1.1-1,2.9-1,4,0,.2,.2,.5,.3,.7,.3v-1.5h0Z" fill="#383838"/></svg>