<?xml version="1.0" encoding="UTF-8"?><svg id="a" xmlns="http://www.w3.org/2000/svg" width="330.1" height="315.98" viewBox="0 0 330.1 315.98"><path d="M317.72,105.38h0c-9.7-11.1-23.6-17.5-38.2-17.5h-8.4C260.12,35.88,213.22-1.92,159.92,.08,109.82,1.98,67.32,38.98,56.92,87.88h-6.4c-14.7,0-28.6,6.4-38.2,17.5S-1.58,131.18,.52,145.68l13.5,94.2c6.2,43.4,43.9,76.1,87.8,76.1h126.5c43.8,0,81.6-32.7,87.8-76.1l13.5-94.2c2-14.5-2.3-29.2-11.9-40.3ZM160.82,25.08c39.3-1.5,74.1,25.3,84.5,62.9H82.72c9.8-35.4,41.3-61.6,78.1-62.9Zm144,117l-13.5,94.2c-4.5,31.2-31.5,54.7-63,54.7H101.82c-31.5,0-58.6-23.5-63-54.7l-13.5-94.2c-1-7.3,1.1-14.8,6-20.4,4.9-5.6,11.9-8.8,19.3-8.8h228.8c7.4,0,14.5,3.2,19.3,8.8,5,5.7,7.1,13.1,6.1,20.4Z" fill="#383838"/><path d="M228.12,201.98c0,13.9-11.3,25.2-25.2,25.2H126.72c-13.9,0-25.2-11.3-25.2-25.2s11.3-25.2,25.2-25.2h76.2c13.9,0,25.2,11.3,25.2,25.2Z" fill="#383838"/></svg>