<?xml version="1.0" encoding="UTF-8"?><svg id="a" xmlns="http://www.w3.org/2000/svg" width="305.12" height="304.6" viewBox="0 0 305.12 304.6"><g id="b"><g id="c"><path d="M295.7,114.7c-7.2-8.3-17.7-13.1-28.8-13.1h-1.1C259.5,44.5,211,0,152.3,0S45.2,44.5,38.8,101.6h-.8c-11.1,0-21.5,4.8-28.8,13.1C2.1,123-1.2,134.1,.4,145l13.5,94.2c5.3,37.3,37.7,65.4,75.4,65.4h126.6c37.7,0,70.1-28.1,75.4-65.4l13.5-94.2c1.4-10.9-1.8-22-9.1-30.3h0Zm-105.3,101.1H114.2c-7,0-12.7-5.7-12.7-12.7s5.7-12.7,12.7-12.7h76.2c7,0,12.7,5.7,12.7,12.7s-5.7,12.7-12.7,12.7ZM64.5,101.6c6.2-43,43.2-76.2,87.8-76.2s81.6,33.2,87.8,76.2H64.5Z" /></g></g></svg>