<?xml version="1.0" encoding="UTF-8"?><svg id="a" xmlns="http://www.w3.org/2000/svg" width="512.21" height="511.9" viewBox="0 0 512.21 511.9"><path d="M3.57,100.3C19.87,33.9,111.27-1.3,167.37,34.5c50.2-46,127.3-46,177.5,0,137.2-70,243.7,130.4,96.2,193.9-8.2,2.4-14,9.7-14.4,18.2v116H85.37v-116c-.4-8.5-6.2-15.8-14.4-18.2C18.67,209.7-10.63,154,3.57,100.3ZM85.37,405.2c-5.2,53.5,33.9,101,87.4,106.2,2.9,.3,5.7,.4,8.6,.5h149.3c53.7-.4,96.9-44.3,96.5-98.1,0-2.9-.2-5.7-.5-8.6H85.37Z" fill="#383838"/></svg>