<?xml version="1.0" encoding="UTF-8"?><svg id="a" xmlns="http://www.w3.org/2000/svg" width="512.19" height="511.9" viewBox="0 0 512.19 511.9"><path d="M508.62,100.3C492.32,33.9,400.92-1.3,344.82,34.5c-50.2-46-127.3-46-177.5,0C30.22-35.5-76.38,164.8,71.12,228.4c8.2,2.4,14,9.7,14.4,18.2v169.3c0,53,43,96,96,96h149.3c53,0,96-43,96-96V246.6c.4-8.5,6.2-15.8,14.4-18.2,52.3-18.7,81.6-74.4,67.4-128.1Zm-124.5,315.6c0,29.5-23.9,53.3-53.3,53.3H181.42c-30.5-.6-54.7-25.9-54-56.4,.1-2.6,.3-5.1,.7-7.6H384.12v10.7Zm42.7-227.7c-25.2,8.3-42.4,31.8-42.7,58.4v116H128.12v-116c-.3-26.6-17.4-50-42.7-58.4-31.6-11.4-49.2-45-40.5-77.4,12.5-44.8,79.6-63.6,110.6-32,8.4,8.4,21.9,8.4,30.4,.1,.9-.9,1.8-2,2.6-3.1,26.6-44.4,108.7-44.4,135.3,0,6.7,9.8,20.1,12.2,29.9,5.5,1.1-.7,2.1-1.6,3-2.5,17.1-14.5,40.3-19.7,61.9-13.7h0c34.7,7.7,56.5,42,48.8,76.7-4.8,21.4-20.1,38.9-40.6,46.4Z" /></svg>