<?xml version="1.0" encoding="UTF-8"?><svg id="a" xmlns="http://www.w3.org/2000/svg" width="21.83" height="22" viewBox="0 0 21.83 22"><path d="M21.62,.73c-.42-.71-1.34-.94-2.06-.52-.2,.12-4.32,2.6-8.65,6.74C6.59,2.81,2.46,.33,2.27,.21,1.56-.21,.64,.02,.21,.73-.21,1.44,.02,2.36,.73,2.79c.04,.03,3.99,2.4,8.08,6.3C4.12,14.18,1.26,19.57,1.13,19.8c-.39,.73-.11,1.64,.62,2.03,.22,.12,.46,.17,.7,.17,.54,0,1.06-.29,1.33-.8,.03-.05,2.76-5.18,7.13-9.96,4.36,4.77,7.1,9.91,7.13,9.96,.27,.51,.79,.8,1.33,.8,.24,0,.48-.06,.7-.17,.73-.39,1.01-1.29,.62-2.03-.12-.23-2.99-5.62-7.68-10.71,4.08-3.89,8.04-6.28,8.08-6.3,.71-.42,.94-1.35,.52-2.06Z" fill="#383838"/></svg>