<?xml version="1.0" encoding="UTF-8"?><svg id="a" xmlns="http://www.w3.org/2000/svg" width="512" height="512" viewBox="0 0 512 512"><path d="M489.4,305.1l-27.3-131.8c-9-50.3-52.3-87-103.3-87.7,2.3-6.8,4.1-13.9,4.1-21.5C362.9,28.9,334.1,.1,298.9,.1h-85.3c-35.2,0-64,28.8-64,64,0,7.5,1.5,14.7,4.1,21.5-51,.9-94.3,37.3-103.3,87.7l-27.4,131.8c-4.5,25,2.3,50.3,18.6,69.8s40.1,30.5,65.5,30.5H405.8c25.4,0,49.3-11.1,65.5-30.5s23-44.8,18.6-69.8h-.5ZM213.3,42.7h85.3c11.7,0,21.3,9.6,21.3,21.3s-9.6,21.3-21.3,21.3h-85.3c-11.7,0-21.3-9.6-21.3-21.3s9.6-21.3,21.3-21.3Zm-39.6,405.3h164.7c-9.6,36.7-42.7,64-82.3,64s-72.8-27.3-82.4-64h0Z" fill="#383838"/></svg>