<?xml version="1.0" encoding="UTF-8"?><svg id="a" xmlns="http://www.w3.org/2000/svg" width="469.47" height="512" viewBox="0 0 469.47 512"><path d="M467.76,326.4l-27.3-153.2c-9-50.3-52.3-87-103.3-87.7,2.3-6.8,4.1-13.9,4.1-21.5C341.26,28.8,312.46,0,277.26,0h-85.3c-35.2,0-64,28.8-64,64,0,7.5,1.5,14.7,4.1,21.5-51,.9-94.3,37.3-103.3,87.7L1.36,326.4c-4.5,25,2.3,50.3,18.6,69.8s40.1,30.5,65.5,30.5h64c0,47.1,38.2,85.3,85.3,85.3s85.3-38.2,85.3-85.3h64c25.4,0,49.3-11.1,65.5-30.5s23-44.8,18.6-69.8h-.4ZM191.66,42.7h85.3c11.7,0,21.3,9.6,21.3,21.3s-9.6,21.3-21.3,21.3h-85.3c-11.7,0-21.3-9.6-21.3-21.3s9.6-21.3,21.3-21.3Zm42.7,426.6c-23.5,0-42.7-19.2-42.7-42.7h85.3c.1,23.5-19.1,42.7-42.6,42.7Zm182-100.7c-8.1,9.8-20.1,15.4-32.6,15.4H85.06c-12.6,0-24.5-5.5-32.6-15.4-8.1-9.8-11.5-22.4-9.4-35l27.3-153.2c5.5-30.5,32-52.7,62.9-52.7h202c31.1,0,57.6,22.2,62.9,52.7l27.3,153.2c2.1,12.4-1.1,25.2-9.2,34.8l.1,.2Z" fill="#383838"/></svg>