<?xml version="1.0" encoding="UTF-8"?><svg id="a" xmlns="http://www.w3.org/2000/svg" width="24" height="24" viewBox="0 0 24 24"><path d="M24,16c0,4.41-3.59,8-8,8H8C3.59,24,0,20.41,0,16c0-3.66,2.47-6.74,5.83-7.69,.6,1.11,1.49,2.04,2.58,2.69h-.41c-2.76,0-5,2.24-5,5s2.24,5,5,5h8c2.76,0,5-2.24,5-5s-2.24-5-5-5h-.41c1.08-.65,1.97-1.57,2.57-2.69,3.36,.95,5.83,4.03,5.83,7.69h0Zm-8,3c1.65,0,3-1.35,3-3s-1.35-3-3-3-3,1.35-3,3,1.35,3,3,3ZM6.96,5C6.96,2.24,9.2,0,11.96,0s5,2.24,5,5-2.24,5-5,5-5-2.24-5-5Zm2,0c0,1.66,1.34,3,3,3,.56,0,1.07-.16,1.52-.43-1.16-.29-2.02-1.33-2.02-2.57s.86-2.28,2.02-2.58c-.45-.26-.96-.42-1.52-.42-1.66,0-3,1.34-3,3Z" /></svg>