<?xml version="1.0" encoding="UTF-8"?><svg id="a" xmlns="http://www.w3.org/2000/svg" width="24" height="24" viewBox="0 0 24 24"><path d="M9,2V10.09c-1.65,.29-3.1,1.27-4,2.66V5c0-1.65,1.35-3,3-3h1Zm13,8H11V3c0-1.66,1.34-3,3-3h5c1.66,0,3,1.34,3,3v7ZM15,3.5c0,.83,.67,1.5,1.5,1.5s1.5-.67,1.5-1.5-.67-1.5-1.5-1.5-1.5,.67-1.5,1.5Zm3.78,3.78c-.42-.76-1.28-1.28-2.28-1.28s-1.86,.52-2.28,1.28c-.18,.33,.1,.72,.5,.72h3.55c.41,0,.68-.39,.5-.72Zm2.66,4.72H10.02c-1.76,0-3.34,1.18-3.83,2.86l-2.82,8.84c.51,.18,1.06,.3,1.63,.3h12.56c2.23,0,4.15-1.43,4.8-3.61l1.52-5.11c.52-1.57-.79-3.36-2.45-3.28h0ZM3,5c0-.3,.04-.6,.09-.89-1.77,.41-3.09,1.99-3.09,3.89v11c0,1.44,.62,2.73,1.6,3.64l1.4-4.38V5Z" /></svg>