<?xml version="1.0" encoding="UTF-8"?><svg id="a" xmlns="http://www.w3.org/2000/svg" width="24" height="24" viewBox="0 0 24 24"><path d="M8,2.5c0-1.4,1.1-2.5,2.5-2.5s2.5,1.1,2.5,2.5-1.1,2.5-2.5,2.5-2.5-1.1-2.5-2.5ZM24,20.5c0,1.9-1.6,3.5-3.5,3.5-1.4,0-2.6-.8-3.1-2h-5.4c-.6,0-1-.4-1-1s.4-1,1-1h1v-2.3c0-.4-.2-.7-.5-.9l-2.8-1.4c-1-.5-1.6-1.5-1.6-2.7v-4.3c0-.7,.3-1.4,.8-1.8,.6-.6,1.7-.8,2.6-.6l4.7,2h1.7c1.1,0,2.1,.8,2.4,1.9l1.4,5.2c.2,.7,.3,1.5,.3,2.2,1.2,.6,2,1.8,2,3.2h0Zm-9-2.8v2.3h2.1c.2-1.5,1.4-2.7,2.9-2.9,0-.5-.1-1-.2-1.4l-1.4-5.2c-.1-.2-.3-.4-.5-.4h-1.9c-.1,0-.3,0-.4-.1l-2.6-1.1v6l.4,.2c1,.5,1.6,1.5,1.6,2.6h0Zm-6.6-.5c.4,.7,.6,1.5,.6,2.3,0,2.5-2,4.5-4.5,4.5S0,22,0,19.5c0-1.4,.7-2.7,1.7-3.5h-.7c-.6,0-1-.4-1-1s.4-1,1-1h3.7c1,0,2,.5,2.5,1.4,0,0,1.1,1.8,1.2,1.8Zm-2.4-6.7v-2c0-.8-.7-1.5-1.5-1.5H1.5c-.8,0-1.5,.7-1.5,1.5v2c0,.8,.7,1.5,1.5,1.5h3c.8,0,1.5-.7,1.5-1.5ZM6,1.5V3.5c0,.8-.7,1.5-1.5,1.5H1.5c-.8,0-1.5-.7-1.5-1.5V1.5C0,.7,.7,0,1.5,0h3c.8,0,1.5,.7,1.5,1.5Z" fill="#383838"/></svg>