<?xml version="1.0" encoding="UTF-8"?><svg id="a" xmlns="http://www.w3.org/2000/svg" width="22" height="22" viewBox="0 0 22 22"><path d="M11,0C3.9,0,0,4,0,11s3.9,11,11,11,10.9-3.7,11-11c-.1-7.1-4-11-11-11Zm0,18c-.8,0-1.5-.7-1.5-1.5s.7-1.5,1.5-1.5,1.5,.7,1.5,1.5-.7,1.5-1.5,1.5Zm1-6.1v.7c0,.6-.4,1-1,1s-1-.4-1-1v-1.6c0-.6,.4-1,1-1,1.5,0,2.1-.6,2.1-2.1,0-1.4-.7-2.1-2.1-2.1-1.5,0-2.1,.6-2.1,2.1,0,.6-.5,1-1,1-.6,0-1-.5-1-1,0-2.6,1.5-4.1,4.1-4.1s4.1,1.5,4.1,4.1c0,2.2-1.1,3.6-3.1,4h0Z" fill="#383838"/></svg>