<?xml version="1.0" encoding="UTF-8"?><svg id="a" xmlns="http://www.w3.org/2000/svg" width="22" height="19.2" viewBox="0 0 22 19.2"><path d="M20.8,1.6c-.1-.3-.4-.6-.7-.6-.2,0-4.3-1-9.1-1S2.1,1,1.9,1c-.3,0-.6,.3-.7,.6,0,.1-1.2,3.5-1.2,8s1.2,7.9,1.2,8c.1,.3,.4,.6,.7,.6,.2,0,4.4,1,9.1,1s8.9-1,9.1-1c.3-.1,.6-.3,.7-.6,0-.1,1.2-3.5,1.2-8,0-4.5-1.2-7.9-1.2-8h0Zm-9.8,.3c3.6,0,6.8,.6,8.1,.8,.1,.2,.2,.6,.2,.9-.6,.6-2,2-4,3.6-1.6,1.3-3.5,2.4-4.4,2.9-.9-.5-2.7-1.6-4.4-2.9-2-1.5-3.4-3-4-3.5,.1-.4,.2-.7,.2-1,1.5-.2,4.8-.8,8.3-.8Zm8.1,14.5c-1.3,.3-4.5,.8-8.1,.8s-6.8-.6-8.1-.9c-.3-1-.9-3.6-.9-6.7,0-1.3,.1-2.4,.2-3.5,.8,.7,1.9,1.7,3.2,2.7,2.3,1.8,5,3.3,5.1,3.3,.1,.1,.3,.1,.5,.1s.3,0,.5-.1c.1-.1,2.8-1.5,5.1-3.3,1.3-1,2.4-2,3.2-2.7,.1,1,.2,2.2,.2,3.5,0,3.2-.6,5.7-.9,6.8h0Z" fill="#383838"/></svg>