<?xml version="1.0" encoding="UTF-8"?><svg id="a" xmlns="http://www.w3.org/2000/svg" width="24.04" height="24" viewBox="0 0 24.04 24"><path d="M9.52,7.5c0-1.4,1.1-2.5,2.5-2.5s2.5,1.1,2.5,2.5-1.1,2.5-2.5,2.5-2.5-1.1-2.5-2.5Zm6.5,6.5v3c0,.9-.4,1.7-1,2.2v3.8c0,.6-.4,1-1,1s-1-.4-1-1v-3h-2v3c0,.6-.4,1-1,1s-1-.4-1-1v-3.8c-.6-.5-1-1.3-1-2.2v-3c0-1.7,1.3-3,3-3h2c1.7,0,3,1.3,3,3Zm-3,4c.6,0,1-.4,1-1v-3c0-.6-.4-1-1-1h-2c-.6,0-1,.4-1,1v3c0,.6,.4,1,1,1h2Zm6-13c1.4,0,2.5-1.1,2.5-2.5s-1.1-2.5-2.5-2.5-2.5,1.1-2.5,2.5,1.1,2.5,2.5,2.5Zm5,11.6l-.9-7c-.3-2-2-3.6-4.1-3.6-1,0-1.9,.3-2.6,1-.4,.4-.5,1-.1,1.4s1,.5,1.4,.1c.3-.3,.8-.5,1.3-.5,1.1,0,2,.8,2.1,1.9l.9,7c0,.3,0,.6-.2,.8-.2,.2-.5,.3-.8,.3h-3c-.6,0-1,.4-1,1s.4,1,1,1h2v3c0,.6,.4,1,1,1s1-.4,1-1v-3.2c.5-.2,.9-.4,1.2-.8,.6-.7,.9-1.5,.8-2.4h0ZM5.02,5c1.4,0,2.5-1.1,2.5-2.5S6.42,0,5.02,0,2.52,1.1,2.52,2.5s1.1,2.5,2.5,2.5Zm0,1c-2.1,0-3.8,1.6-4.1,3.6L.02,16.6c-.1,.9,.2,1.7,.7,2.4,.3,.4,.8,.7,1.2,.8v3.2c0,.6,.4,1,1,1s1-.4,1-1v-3h2c.6,0,1-.4,1-1s-.4-1-1-1H3.02c-.3,0-.6-.1-.8-.3-.1-.3-.2-.5-.2-.8l.9-7c.1-1.1,1-1.9,2.1-1.9,.5,0,1,.2,1.4,.5,.4,.4,1.1,.3,1.4-.1,.3-.5,.3-1.1-.2-1.4-.7-.7-1.6-1-2.6-1h0Z" fill="#383838"/></svg>