<?xml version="1.0" encoding="UTF-8"?><svg id="a" xmlns="http://www.w3.org/2000/svg" width="24.04" height="24" viewBox="0 0 24.04 24"><path d="M12.02,5c1.4,0,2.5,1.1,2.5,2.5s-1.1,2.5-2.5,2.5-2.5-1.1-2.5-2.5,1.1-2.5,2.5-2.5Zm4,9v3c0,.9-.4,1.7-1,2.2v3.8c0,.6-.4,1-1,1s-1-.4-1-1v-3h-2v3c0,.6-.4,1-1,1s-1-.4-1-1v-3.8c-.6-.5-1-1.3-1-2.2v-3c0-1.7,1.3-3,3-3h2c1.7,0,3,1.3,3,3Zm3-9c1.4,0,2.5-1.1,2.5-2.5s-1.1-2.5-2.5-2.5-2.5,1.1-2.5,2.5,1.1,2.5,2.5,2.5Zm5,11.6l-.9-7c-.3-2-2-3.6-4.1-3.6-1,0-1.9,.3-2.6,.9,0,.2,.1,.4,.1,.6,0,.9-.3,1.7-.7,2.4,1.3,.9,2.2,2.4,2.2,4.1v3c0,1.1-.4,2.1-1,3h3v3c0,.6,.4,1,1,1s1-.4,1-1v-3.2c.5-.2,.9-.4,1.2-.8,.6-.7,.9-1.5,.8-2.4h0ZM7.52,2.5c0-1.4-1.1-2.5-2.5-2.5S2.52,1.1,2.52,2.5s1.1,2.5,2.5,2.5,2.5-1.1,2.5-2.5ZM.82,19c.3,.4,.8,.7,1.2,.8v3.2c0,.6,.4,1,1,1s1-.4,1-1v-3h3c-.6-.9-1-1.9-1-3v-3c0-1.7,.9-3.2,2.2-4.1-.4-.7-.7-1.5-.7-2.4,0-.2,0-.4,.1-.6-.7-.6-1.6-.9-2.6-.9-2.1,0-3.8,1.6-4.1,3.6L.02,16.6c-.1,.9,.2,1.7,.8,2.4Z" fill="#383838"/></svg>