<?xml version="1.0" encoding="UTF-8"?><svg id="a" xmlns="http://www.w3.org/2000/svg" width="24" height="20" viewBox="0 0 24 20"><path d="M17,4c0-2.2-1.8-4-4-4H4C1.8,0,0,1.8,0,4c0,1,.4,2,1.1,2.7l4.9,5.4v3.9c0,.5,.2,.9,.6,1.2l2,1.5c.3,.2,.6,.3,.9,.3,.2,0,.5-.1,.7-.2,.5-.3,.8-.8,.8-1.3v-5.4l4.9-5.4c.7-.7,1.1-1.7,1.1-2.7h0Zm-3.3,.7l-5.2,5.7L3.3,4.7c-.2-.2-.3-.4-.3-.7,0-.6,.5-1,1-1H13c.6,0,1,.5,1,1,0,.3-.1,.5-.3,.7h0Zm10.3,13.8c0,.8-.7,1.5-1.5,1.5H14.5c-.8,0-1.5-.7-1.5-1.5s.7-1.5,1.5-1.5h8c.8,0,1.5,.7,1.5,1.5Zm0-5c0,.8-.7,1.5-1.5,1.5H14.5c-.8,0-1.5-.7-1.5-1.5s.7-1.5,1.5-1.5h8c.8,0,1.5,.7,1.5,1.5Zm-6.5-5c0-.8,.7-1.5,1.5-1.5h3.5c.8,0,1.5,.7,1.5,1.5s-.7,1.5-1.5,1.5h-3.5c-.8,0-1.5-.7-1.5-1.5Z" fill="#383838"/></svg>