<?xml version="1.0" encoding="UTF-8"?><svg id="a" xmlns="http://www.w3.org/2000/svg" width="24" height="20" viewBox="0 0 24 20"><path d="M11,20c-.2,0-.4-.1-.6-.2l-4-3c-.3-.2-.4-.5-.4-.8v-3.6L.9,6.5c-.6-.7-.9-1.6-.9-2.6C0,1.8,1.8,0,3.9,0H14.1c2.1,0,3.9,1.8,3.9,3.9,0,.9-.3,1.8-.9,2.6l-5.1,5.9v6.6c0,.4-.2,.7-.6,.9-.1,.1-.2,.1-.4,.1Zm13-2c0-.6-.4-1-1-1H15c-.6,0-1,.4-1,1s.4,1,1,1h8c.6,0,1-.4,1-1Zm0-4c0-.6-.4-1-1-1H15c-.6,0-1,.4-1,1s.4,1,1,1h8c.6,0,1-.4,1-1Zm0-4c0-.6-.4-1-1-1h-5c-.6,0-1,.4-1,1s.4,1,1,1h5c.6,0,1-.4,1-1Z" fill="#383838"/></svg>