<?xml version="1.0" encoding="UTF-8"?><svg id="a" xmlns="http://www.w3.org/2000/svg" width="512.63" height="511.9" viewBox="0 0 512.63 511.9"><path d="M427.42,124.8c-1.9-48.6-45.2-87.4-94.6-81.5C317.02,16.8,288.42,0,256.82,0s-60.2,16.8-76,43.2c-50.9-6.2-94.7,34.6-94.7,84.8,0,1.7,.1,3.3,.2,5.1-26.5,16.6-42.8,45.4-42.8,77.4,0,1.6,.1,3.2,.2,4.8,6.7-1.3,13.6-2.1,20.6-2.1h215.6c-1.2-3.3-2-6.9-2-10.7,0-17.7,14.3-32,32-32s32,14.3,32,32c0,3.8-.8,7.3-2,10.7h108c7.2,0,14.2,.8,21,2.2,.7-4.4,1.1-8.9,1.1-13.4,.1-31.6-16.3-60.6-42.6-77.2h0Zm-224,45.9c-17.7,0-32-14.3-32-32s14.3-32,32-32,32,14.3,32,32-14.3,32-32,32Zm295.6,110.2c-12.3-15.9-30.9-25-51-25H64.22c-20.1,0-38.7,9.1-51,25-12,15.4-16.1,35.1-11.2,53.8,19.6,64,103,141.7,169,177.2h170.6c65.9-35.5,149.3-113.2,168.7-177.2,5.6-18.5,.7-38.3-11.3-53.8h0Z" fill="#383838"/></svg>