<?xml version="1.0" encoding="UTF-8"?><svg id="a" xmlns="http://www.w3.org/2000/svg" width="22.01" height="21.94" viewBox="0 0 22.01 21.94"><path d="M21.21,6.54c-.3-1-1.3-1.7-2.3-1.6-1.2,0-2.1,.7-2.4,2-.2-.2-.4-.3-.6-.6-1.8-1.8-3.1-3.6-3.6-4.3-.8-1.1-2.4-1.4-3.5-.6-.4,.3-.7,.7-.9,1.2-.8-.7-1.9-.8-2.8-.3-1.2,.6-1.7,2.2-1,3.3,0,0,0,.1,.1,.2-.5,0-1,.1-1.4,.4-1.2,.7-1.5,2.3-.8,3.4,.1,.2,.3,.4,.4,.6-.7,0-1.3,.3-1.8,.8-.8,.9-.8,2.2-.1,3.2,1.1,1.5,2.4,2.8,3.5,3.9,3.8,3.8,6.8,3.8,8,3.8,5.7,0,10-4.1,10-9.5,0-4.1-.8-5.9-.8-5.9h0Zm-9.2,14.4c-1,0-3.8,0-7.3-3.5-1.1-1.1-2.3-2.4-3.4-3.8-.4-.6-.4-1.4,0-1.9,.6-.7,1.8-.6,2.3,.1,.7,.8,1.5,1.8,2.4,2.8,.2,.2,.5,.2,.7,0s.2-.5,0-.7c-1.9-2.1-3.3-3.9-4-4.9-.4-.7-.2-1.6,.4-2,.6-.4,1.4-.3,1.9,.3,.8,1.2,2.1,2.8,3.7,4.5,.2,.2,.5,.2,.7,0s.2-.5,0-.7c-1.8-1.9-3.7-4.4-4.6-6-.4-.7-.1-1.6,.6-2s1.6-.1,2,.6c1,1.6,2.2,3.3,4.1,5.4,.2,.2,.5,.2,.7,0s.2-.5,0-.7c-1.6-1.7-2.8-3.3-3.4-4.3-.4-.7-.2-1.5,.4-2,.6-.5,1.6-.3,2,.4,.5,.7,1.8,2.6,3.7,4.4,.4,.5,.9,.8,1.2,1-.2,1.6-.3,3.3-.3,3.4,0,.3,.2,.5,.5,.5s.5-.2,.5-.5c0,0,.1-2.6,.4-4.3,.3-1,1-1.3,1.5-1.3h0c.6,0,1.1,.4,1.3,1,0,0,.7,1.7,.7,5.5,.3,5-3.6,8.7-8.7,8.7h0ZM14.01,.34c.1-.3,.4-.4,.6-.3,1.6,.5,2.7,1.4,3.3,2.9,.1,.3,0,.5-.3,.7-.2,.1-.5,0-.7-.3-.5-1.2-1.4-1.9-2.7-2.3-.1-.2-.3-.5-.2-.7h0ZM4.01,21.54c-.1,.3-.4,.4-.6,.3-1.7-.5-2.8-1.6-3.3-3.3-.1-.2,0-.5,.3-.6s.5,.1,.6,.3c.4,1.4,1.3,2.3,2.6,2.7,.3,.1,.5,.4,.4,.6h0Z" fill="#383838"/></svg>