<?xml version="1.0" encoding="UTF-8"?><svg id="a" xmlns="http://www.w3.org/2000/svg" width="20.95" height="21.95" viewBox="0 0 20.95 21.95"><path d="M3.45,21.95c-1.7-.2-2.9-1.4-3.4-3.1-.2-.8,.2-1.6,1-1.9,.8-.2,1.6,.2,1.9,1,.2,.5,.5,.8,1,1,.8,.2,1.3,1.1,1,1.9-.3,.7-.9,1.1-1.5,1.1h0ZM17.85,3.05c-.4-1.5-1.5-2.6-3-3-.8-.2-1.6,.2-1.9,1-.2,.8,.2,1.6,1,1.9,.7,.2,.9,.6,1,1,.2,.6,.8,1,1.5,1,1,0,1.7-1,1.4-1.9h0Zm1.9,3.5c-.4-.5-1-.8-1.6-.6-.6,.2-1,.7-1.1,1.4v2h0v1.3c0,.4-.3,.8-.8,.8s-.8-.3-.8-.8v-3l-1.6-1.6c-1.9-1.9-3-3.6-3-3.6-.5-.6-1.3-.6-1.8-.2-.6,.5-.7,1.3-.2,1.8-.1,.1,2.1,2.9,3.9,4.6,.3,.3,.3,.7,0,.9h0c-.3,.3-.7,.3-.9,0-1.5-1.2-5.2-5.9-5-6.1-.4-.5-1.2-.7-1.8-.3-.6,.4-.8,1.2-.4,1.8-.3,0,3.6,5.1,5.3,6.5,.3,.3,.3,.7,0,.9h0c-.3,.3-.7,.3-.9,0-1.5-1.3-4.8-5.3-4.7-5.2-.3-.6-1.1-.9-1.7-.5-.6,.3-.9,1.1-.5,1.7-.2-.1,3.4,4.3,5.1,5.8,.3,.3,.3,.7,0,.9s-.7,.3-.9,0c-1.2-1.1-3.2-3.3-3-3.2-.4-.6-1.3-.7-1.8-.2-.6,.4-.7,1.3-.2,1.8-.2-.2,1.8,2.1,3.1,3.2,2.4,2.6,5.5,5.3,9,5.3,2.5,0,7.5-1.5,7.5-7.5s-1.2-7.9-1.2-7.9h0Z" fill="#383838"/></svg>