<?xml version="1.0" encoding="UTF-8"?><svg id="a" xmlns="http://www.w3.org/2000/svg" width="303.2" height="355.3" viewBox="0 0 303.2 355.3"><path d="M103.5,67.48c3.4,2,4.2,3.9,4,7.5-.4,5.3-1.5,10.4-3.6,15.3-2.7,6.1-1.7,7.5,4.6,7,14.2-1.1,27.9,1,41.3,5.8,5.9,2.1,11.3,4.2,14.8,10.3,3,5.2,9.2,4,11.5-2.4,2.1-5.8,4.7-6.4,10.4-5.4,12.8,2.3,29.8-6.7,36.2-18.1,5.2-9.3,3.6-18.3-5.1-25.8-3.1-2.6-5.2-5.2-6.5-9.2-3.1-9.3-9.3-16-19.1-18.2-5-1.1-6.3-3.5-6.9-8.2-2.5-19.1-14.3-28.1-33.4-25.7h0c-9.3,1.2-17.4,4.5-22.6,12.7-1.7,2.6-3.2,2.9-6.2,2.4-15.1-2.6-26.4,3.5-31.2,16.2-5.4,14.4-1.1,28.2,11.8,35.8Zm73.2,26.3c-2.2,5.7-3.1,11.9-7.5,17.5-4.3-9.2-12.8-11.1-20.7-13.7-12.4-4.2-25.4-5.1-39-5.2,2.2-5.3,3.6-10.3,3.3-15.3-.4-6.8,3.2-8.2,8.7-8.5,20.8-1.3,38.1,6.4,52.9,20.6,1.3,1.2,3.1,2.5,2.3,4.6ZM96.5,34.18c4.6-12.2,15.3-16.8,28.6-12.5,2.6,.8,4.7,2.9,6.7-1.8,4.6-11,16-16.2,29.2-14.5,10.3,1.3,16.8,8.5,18.9,20.8,.4,2,.8,4.1,.6,6.2-.4,4.3,.8,5.8,5.5,6.3,10.3,1,17.8,6.7,20.2,17,1,4.3,2.9,6.7,6.2,9,7.4,5.3,9.4,11.6,6.6,18.4-4.2,9.9-20.6,19.1-31.3,17.5-3.5-.5-7.1-1.3-8-5.3-.9-3.8,1.8-5.7,6.2-8-5.3,.3-19.1-8.2-20.6-12.3-1.6-4.4,3.8-5.7,4.9-9,.3-1,1.6-1.9,.3-3-3.4,2.9-6.1,8.9-10.7,7.7-7.3-1.9-15.3-3-21.1-9.1-6.2-6.5-8.8-14.8-11.1-24.3-3.8,10.6,1.7,18.2,5.5,26-12,2.7-20.7-3.1-30.3-10.8,3.1,6.8,9.3,8,13.1,11.9-2.6,2-4.5,.8-6.4,0-12.1-5-17.6-18-13-30.2Z" fill="#383838"/><path d="M177.6,195.78c-25.3-11-52.8-5.8-71.9,13.5-12.3,11.8-19.3,28.7-19.3,46.4s7.1,34.3,19.3,45.9c12.3,12.6,28.4,19.2,45.2,19.2,8.1,0,16.4-1.6,24.5-4.7,25-9.8,40.9-32.2,41.5-58.4,1.1-27.2-13.9-50.9-39.3-61.9Zm27.3,61.4v.1c-.5,21.3-13.4,39.5-33.9,47.5-20.3,8-42,3.5-56.8-11.8l-.2-.2c-9.9-9.4-15.6-23-15.6-37.3s5.7-28.2,15.7-37.8l.1-.1c11.2-11.4,24.3-15.6,36.5-15.6,8,0,15.6,1.8,22.1,4.6,16.3,7.2,33.2,24.2,32.1,50.6Z" fill="#383838"/><path d="M302.1,113.58c-1-5.1-1.5-10.4-1.7-15.8v-2.9c0-4.7,.3-9.4,1-14l1-7.1-7.1,.2c-24.1,.8-46.7,11.8-63.7,30.8-16.1,18-25.7,41.8-26.8,65.7-15.3-9.7-33.7-15-53-15s-37.7,5.3-53,15c-1.3-23.7-10.9-47.5-26.9-65.5-17-19.1-39.6-30-63.7-30.8l-7.2-.3,1,7.1c1.5,10.5,1.2,22.1-.8,32.7l-1.2,6.8,6.9,.3c23.9,1,43.8,27.5,45,49.8l.2,91.3v.3c1.2,24.4,12.6,48.5,31.4,66.1,18.7,17.5,42.2,27,66.4,27h1.7c24.8,.5,49-9.1,68.1-27,18.8-17.6,30.3-41.7,31.4-66.1l.2-91.5c1.2-22.3,21.1-48.9,45-49.8l6.9-.3-1.1-7Zm-62.7,56.5l-.2,91.6c-2.2,44.4-43,82.5-87.4,81.6h-1.7c-43.8,0-83.7-37.8-85.9-81.6l-.2-91.3v-.3c-.7-14.2-7-29-17.3-40.8-9.3-10.7-20.7-17.5-32.6-19.8,.9-7.5,1.2-15.3,.6-22.8,18.2,2.4,35.1,11.5,48.2,26.3,16.7,18.8,25.6,44.6,23.6,69.2l-1.1,14.5,11-9.4c30.5-26.1,80.1-26.1,110.6,0l11,9.4-1.1-14.5c-1.9-24.6,6.9-50.5,23.6-69.2,13.1-14.7,30.1-23.9,48.2-26.3-.1,.7-.1,1.5-.1,2.2h-.2v6c0,4.9,.3,9.8,.9,14.6-27.5,5.2-48.6,34.7-49.9,60.6Z" fill="#383838"/></svg>