<?xml version="1.0" encoding="UTF-8"?><svg id="a" xmlns="http://www.w3.org/2000/svg" width="295.6" height="357.08" viewBox="0 0 295.6 357.08"><g id="b"><g id="c"><g><path d="M98.6,69.08c3.4,2,4.3,4,4.1,7.7-.4,5.5-1.5,10.6-3.7,15.7-2.8,6.3-1.8,7.7,4.7,7.2,14.5-1.1,28.5,1,42.2,5.9,6,2.1,11.5,4.3,15.1,10.5,3.1,5.3,9.4,4.1,11.7-2.4,2.1-5.9,4.8-6.6,10.6-5.5,13.1,2.4,30.5-6.8,37.1-18.5,5.4-9.5,3.7-18.8-5.3-26.4-3.1-2.7-5.3-5.3-6.6-9.4-3.1-9.5-9.5-16.4-19.5-18.6-5.1-1.1-6.5-3.5-7.1-8.4-2.4-19.8-14.4-28.9-34-26.5h0c-9.5,1.2-17.8,4.6-23.1,13-1.7,2.6-3.3,3-6.3,2.4-15.5-2.6-27,3.5-31.9,16.6-5.6,14.7-1.2,28.9,12,36.7h0Zm74.9,26.8c-2.2,5.8-3.2,12.2-7.7,17.9-4.4-9.4-13.1-11.3-21.2-14-12.7-4.3-26-5.2-39.9-5.3,2.2-5.4,3.7-10.5,3.4-15.6-.4-6.9,3.3-8.4,8.9-8.7,21.3-1.3,39,6.6,54.1,21.1,1.3,1.2,3.2,2.5,2.4,4.6h0ZM91.5,34.98c4.7-12.5,15.6-17.2,29.3-12.8,2.7,.9,4.8,3,6.8-1.8,4.7-11.3,16.4-16.6,29.8-14.8,10.5,1.4,17.1,8.7,19.3,21.2,.4,2.1,.8,4.2,.6,6.3-.4,4.4,.9,5.9,5.6,6.4,10.5,1,18.2,6.8,20.6,17.3,1,4.4,3,6.8,6.4,9.2,7.5,5.4,9.6,11.9,6.8,18.8-4.3,10.2-21,19.5-32,17.9-3.6-.5-7.2-1.3-8.2-5.4-.9-3.9,1.9-5.9,6.4-8.2-5.4,.4-19.6-8.4-21.1-12.6-1.7-4.5,3.9-5.8,5-9.2,.3-1,1.6-1.9,.3-3.1-3.5,3-6.3,9.1-10.9,7.9-7.4-2-15.7-3.1-21.5-9.3-6.3-6.7-9.1-15.1-11.3-24.8-3.9,10.9,1.7,18.6,5.6,26.6-12.3,2.8-21.1-3.2-31-11,3.2,7,9.5,8.2,13.4,12.1-2.7,2-4.6,.9-6.5,.1-12.6-5.1-18.2-18.3-13.4-30.8h0Z" fill="#383838"/><path d="M293.8,97.08c0-5.1,.4-10.2,1-15.1-11.1,.5-21.4,3-30.8,7.2-10.7,4.8-20,11.6-28,20.1-8,8.6-14.6,18.4-19.6,29.6-4.6,10.4-7.3,21.7-8,33.6v14.3c-3.8-3.1-7.9-6-12.3-8.6-14.4-8.6-30.6-13-48.3-13s-33.8,4.4-48.3,13c-4.3,2.6-8.4,5.5-12.3,8.6v-14.3c-.8-11.9-3.4-23.2-8-33.6-5-11.2-11.6-21.1-19.6-29.6s-17.3-15.3-28-20.1c-9.3-4.2-19.5-6.7-30.7-7.2,.7,4.9,1,10,1,15.1,0,6.9-.6,13.7-1.9,20.3,7.7,.5,14.2,2.3,19.8,5.7,6.6,3.9,12.7,9.3,18,15.9,8.4,10,13,21.8,14.1,35.3h.2v93.5c.1,1.9,.2,3.7,.5,5.5,1.5,13,5.6,25,12.3,36.2,8.6,14.5,20.2,26.1,34.6,34.6,14.4,8.7,30.6,13,48.3,13s33.8-4.3,48.3-13c14.5-8.6,26-20.2,34.6-34.6,6.7-11.2,10.8-23.3,12.3-36.2,.2-1.9,.4-3.7,.5-5.5v-93.5h.2c1.1-13.6,5.7-25.3,14.1-35.3,5.4-6.6,11.4-11.9,18-15.9,5.6-3.3,12.2-5.2,19.8-5.7-1.1-6.6-1.8-13.4-1.8-20.3h0Zm-85.4,166.2c-.4,15.8-6.3,29.4-17.8,40.7-11.7,11.7-26,17.8-42.7,17.8s-31-6.1-42.7-17.8c-11.5-11.3-17.4-24.9-17.8-40.7v-4.2c.4-15.7,6.3-29.3,17.8-40.8s26-17.6,42.7-17.7c16.7,0,31,6,42.7,17.7s17.4,25,17.8,40.8v4.2h0Z" fill="#383838"/></g></g></g></svg>