<?xml version="1.0" encoding="UTF-8"?><svg id="a" xmlns="http://www.w3.org/2000/svg" width="24" height="24" viewBox="0 0 24 24"><path d="M0,14V5C0,2.2,2.2,0,5,0h1V10.9L0,14ZM13.4,0h-5.4V11.1l5.9,5.9h10.1v-6.4l-.2,.2-1.9,1.8c-.9,.9-2.1,1.4-3.4,1.4h0c-1.3,0-2.5-.5-3.4-1.4l-1.8-1.8c-1.5-1.4-2.3-3.3-2.3-5.3S11.8,1.6,13.2,.2l.2-.2h0Zm-1.2,18.1l-5.4-5.4L0,16.2v2.8c0,2.8,2.2,5,5,5h2.8l4.4-5.9h0Zm-2,5.9h8.8c2.8,0,5-2.2,5-5H14l-3.8,5h0ZM24,5.5c0,1.5-.6,2.9-1.6,3.9l-1.8,1.8c-.6,.6-1.3,.8-2,.8s-1.5-.3-2-.8l-1.8-1.8c-1-1-1.6-2.4-1.6-3.9s.6-2.9,1.6-3.9S17.2,0,18.7,0s2.9,.6,3.9,1.6c.8,1,1.4,2.4,1.4,3.9h0Zm-4,0c0-.8-.7-1.5-1.5-1.5s-1.5,.7-1.5,1.5,.7,1.5,1.5,1.5,1.5-.7,1.5-1.5Z" /></svg>