<?xml version="1.0" encoding="UTF-8"?><svg id="a" xmlns="http://www.w3.org/2000/svg" width="24.04" height="20" viewBox="0 0 24.04 20"><path d="M7.42,11.3c0,.1-.1-.1,0,0h0Zm9.1,0c0,.1,.1,0,0,0h0Zm7.5-1.6c-.9,5.9-6,10.3-12,10.3S.92,15.6,.02,9.7c-.1-.8,.1-1.5,.7-2,.5-.5,1.3-.8,2-.7,1.6,.2,3,.8,4.3,1.6,.3-2.7,1.3-5.5,3-7.6,.5-.7,1.2-1,2-1s1.5,.3,2,.9c1.7,2.1,2.7,4.9,3,7.6,1.3-.8,2.8-1.3,4.3-1.6,.8-.1,1.5,.1,2,.7,.5,.6,.8,1.4,.7,2.1h0Zm-13.1,8.2c-.3-2.6-1.6-5-3.6-6.6-1.4-1.1-3.1-2-5-2.3,0,0-.2,0-.3,.1-.1,0-.1,.2-.1,.3,.8,4.6,4.6,8.1,9,8.5Zm1.1-3.7c.7-1.6,1.7-3,3-4.2,.1-2.7-.9-5.7-2.6-7.8-.1-.2-.3-.2-.4-.2s-.3,0-.4,.2c-1.7,2.1-2.7,5.1-2.6,7.8,1.3,1.2,2.3,2.6,3,4.2Zm9.9-5.1c-.1-.1-.3-.1-.3-.1-1.8,.3-3.7,1.2-5,2.3-1.9,1.7-3.2,4-3.5,6.6,4.5-.5,8.2-4,8.9-8.5,0-.1-.1-.2-.1-.3Z" /></svg>