<?xml version="1.0" encoding="UTF-8"?><svg id="a" xmlns="http://www.w3.org/2000/svg" width="21.03" height="24" viewBox="0 0 21.03 24"><path d="M20.71,.9c-.4-.6-1-.9-1.7-.9h-3c-1.5,0-2.9,.9-3.6,2.2l-1.8,3.8h-.1l-1.9-3.8C7.91,.9,6.51,0,5.01,0H2.01C1.31,0,.71,.4,.31,.9-.09,1.5-.09,2.2,.21,2.9l3.3,6.5c-1.3,1.6-2,3.5-2,5.6,0,5,4,9,9,9s9-4,9-9c0-2.1-.7-4-1.9-5.6l3.2-6.6c.3-.6,.3-1.3-.1-1.9h0ZM5.01,2c.8,0,1.5,.4,1.8,1.1l1.6,3.2c-1.3,.3-2.5,.9-3.5,1.6L2.01,2h3Zm5.5,20c-3.9,0-7-3.1-7-7s2.8-6.7,6.4-7h.6c3.9,0,7,3.1,7,7s-3.1,7-7,7h0Zm5.6-14.1c-1-.8-2.1-1.4-3.4-1.7l1.6-3.2c.3-.7,1-1.1,1.8-1.1h3l-3,6h0Zm-1.4,6.5c0,.4-.3,.7-.5,.8l-1.5,.8,.7,1.8c.1,.3,0,.7-.3,1h0c-.3,.2-.7,.2-1,0l-1.6-1.1-1.5,1.1c-.3,.2-.7,.2-1,0h0c-.3-.2-.4-.6-.3-1l.7-1.8-1.5-.8c-.3-.2-.5-.5-.5-.8s.3-.6,.7-.6h2.1l.6-2.2c.1-.3,.4-.6,.8-.6s.7,.2,.8,.6l.6,2.2h2.1c.3,0,.6,.3,.6,.6Z" /></svg>