<?xml version="1.0" encoding="UTF-8"?><svg id="a" xmlns="http://www.w3.org/2000/svg" width="24" height="24" viewBox="0 0 24 24"><path d="M8.5,0C5.5,0,3,2.5,3,5.5s2.5,5.5,5.5,5.5,5.5-2.5,5.5-5.5S11.5,0,8.5,0Zm0,7c-.8,0-1.5-.7-1.5-1.5s.7-1.5,1.5-1.5,1.5,.7,1.5,1.5-.7,1.5-1.5,1.5Zm15.5,13.9s-4.7,3.1-12,3.1S0,18.8,0,18.8c0-1.9,.3-5.7,2-9.6,1,1.9,2.9,3.2,5,3.7-.1,1.2-.3,2.3-.7,3.3,1.4-1.3,3.8-3.1,6.2-3.1,2.1,0,4.1,1.9,4.1,2l1.5-1.3s-.5-.6-1.3-1.1c1-.7,2.3-1.5,3.6-1.5,2.1,0,3.6,.5,3.6,.5v9.2h0Z" fill="#383838"/></svg>