<?xml version="1.0" encoding="UTF-8"?><svg id="a" xmlns="http://www.w3.org/2000/svg" width="238.4" height="329.7" viewBox="0 0 238.4 329.7"><path d="M119.2,238.4c65.7,0,119.2-53.5,119.2-119.2S184.9,0,119.2,0,0,53.5,0,119.2s53.5,119.2,119.2,119.2Zm0-213.4c51.9,0,94.2,42.3,94.2,94.2s-42.3,94.2-94.2,94.2S25,171.1,25,119.2,67.3,25,119.2,25Z" fill="#383838"/><path d="M169.4,249.8H69c-33.4,0-60.5,27.1-60.5,60.5v19.4H229.9v-19.4c0-33.4-27.1-60.5-60.5-60.5Zm-135.5,54.9c2.7-16.9,17.4-29.9,35.1-29.9h100.4c17.7,0,32.3,13,35.1,29.9H33.9Z" fill="#383838"/></svg>