<?xml version="1.0" encoding="UTF-8"?><svg id="a" xmlns="http://www.w3.org/2000/svg" width="24" height="24" viewBox="0 0 24 24"><path d="M24,5v2c0,2.8-2.2,5-5,5h-2c-.6,0-1-.4-1-1s.4-1,1-1h2c1.7,0,3-1.3,3-3v-2c0-1.7-1.3-3-3-3H5c-1.7,0-3,1.3-3,3v2c0,1.7,1.3,3,3,3,.6,0,1,.4,1,1s-.4,1-1,1C2.2,12,0,9.8,0,7v-2C0,2.2,2.2,0,5,0h14c2.8,0,5,2.2,5,5Zm-5.2,13.6l-4.8-1.8v-4.7c0-1.5-1.1-2.8-2.5-3.1-.9-.1-1.8,.1-2.4,.7-.7,.6-1.1,1.4-1.1,2.3v7.6l-1-.8c-1.2-1.1-3.1-1-4.2,.2-1.1,1.2-1.1,3.1,.1,4.2l.6,.5c.2,.2,.4,.3,.7,.3,.9,0,1.3-1.1,.7-1.7l-.6-.5c-.4-.4-.4-1,0-1.4s1-.4,1.4,0h0l1.8,1.4c.5,.4,1.1,.5,1.7,.2,.5-.3,.9-.8,.9-1.4V12c0-.3,.1-.6,.4-.8,.2-.2,.5-.3,.8-.2,.5,.1,.8,.6,.8,1.1v5.4c0,.4,.3,.8,.6,.9l5.4,2c1.1,.4,1.9,1.5,1.9,2.6,0,.5,.5,.9,1,.9h.1c.6,0,1-.5,.9-1.1-.1-1.8-1.4-3.6-3.2-4.2h0Zm2.2-13.3c-.1-.2-.3-.3-.5-.3h-1.5l-.5-1.5c-.1-.2-.3-.3-.5-.3s-.4,.1-.5,.3l-.5,1.5h-1.5c-.2,0-.4,.1-.5,.3-.1,.2,0,.4,.1,.6l1.2,1-.5,1.5c-.1,.2,0,.4,.2,.6h.4c.1,0,.2,0,.3-.1l1.3-.9,1.4,.9c.2,.1,.4,.1,.6,0s.2-.4,.2-.6l-.5-1.5,1.2-1c.1-.1,.1-.3,.1-.5h0Zm-6,0c-.1-.2-.3-.3-.5-.3h-1.5l-.5-1.5c-.1-.2-.3-.3-.5-.3s-.4,.1-.5,.3l-.5,1.5h-1.5c-.2,0-.4,.1-.5,.3,0,.2,0,.4,.2,.6l1.4,1.1c.4,0,.8,0,1.2,.1,.8,.1,1.6,.5,2.2,1l-.4-1.2,1.2-1c.2-.2,.2-.4,.2-.6h0Zm-10.9,3.6c.1,.1,.2,.1,.3,.1s.2,0,.3-.1l1.3-.9,1.4,.9c.2,.1,.4,.1,.6,0s.2-.4,.2-.6l-.6-1.5,1.2-1c.2-.1,.2-.3,.2-.5s-.3-.3-.5-.3h-1.5l-.5-1.5c-.1-.2-.3-.3-.5-.3s-.4,.1-.5,.3l-.5,1.5h-1.5c-.2,0-.4,.1-.5,.3,0,.2,0,.4,.2,.6l1.2,1-.5,1.5c-.1,.2,0,.4,.2,.5h0Z" fill="#383838"/></svg>