<?xml version="1.0" encoding="UTF-8"?><svg id="a" xmlns="http://www.w3.org/2000/svg" width="460.73" height="512" viewBox="0 0 460.73 512"><path d="M230.4,170.7c-47.1,0-85.3,38.2-85.3,85.3s38.2,85.3,85.3,85.3,85.3-38.2,85.3-85.3-38.2-85.3-85.3-85.3Zm0,128c-23.6,0-42.7-19.1-42.7-42.7s19.1-42.7,42.7-42.7,42.7,19.1,42.7,42.7-19.1,42.7-42.7,42.7Z" fill="#383838"/><path d="M428.7,296.5l-9.5-5.5c4.3-23.2,4.3-47,0-70.2l9.5-5.5c30.6-17.7,41.1-56.8,23.5-87.5-17.7-30.6-56.8-41.1-87.5-23.5l-9.5,5.5c-17.9-15.3-38.5-27.2-60.8-35v-10.8C294.4,28.7,265.7,0,230.4,0s-64,28.7-64,64v10.9c-22.2,7.9-42.8,19.8-60.8,35.1l-9.5-5.5c-30.6-17.6-69.8-7.1-87.5,23.5-17.7,30.6-7.2,69.8,23.5,87.5h0l9.5,5.5c-4.3,23.2-4.3,47,0,70.2l-9.5,5.5c-30.6,17.7-41.1,56.8-23.5,87.5s56.8,41.1,87.5,23.5h0l9.5-5.5c17.9,15.3,38.5,27.2,60.8,35v10.8c0,35.3,28.7,64,64,64s64-28.7,64-64v-10.9c22.2-7.9,42.8-19.8,60.8-35.1l9.5,5.5c30.6,17.7,69.8,7.2,87.5-23.5,17.6-30.7,7.1-69.8-23.5-87.5h0Zm-54.4-80.5c7.2,26.2,7.2,53.8,0,80-2.6,9.4,1.5,19.3,9.9,24.2l23.1,13.4c10.2,5.9,13.7,18.9,7.8,29.2-5.9,10.2-18.9,13.7-29.2,7.8h0l-23.2-13.4c-8.4-4.9-19.1-3.4-25.9,3.5-19,19.4-42.9,33.2-69.2,40-9.4,2.4-16,10.9-16,20.7v26.6c0,11.8-9.6,21.3-21.3,21.3s-21.3-9.6-21.3-21.3v-26.7c0-9.7-6.6-18.2-16-20.7-26.3-6.8-50.2-20.7-69.2-40.1-6.8-7-17.5-8.4-25.9-3.5l-23.1,13.4c-10.2,6-23.2,2.5-29.2-7.6-6-10.2-2.5-23.2,7.6-29.2,.1,0,.2-.1,.2-.1l23.1-13.4c8.4-4.9,12.5-14.8,9.9-24.2-7.2-26.2-7.2-53.8,0-80,2.5-9.3-1.5-19.2-9.9-24.1l-23.1-13.4c-10.2-5.9-13.7-18.9-7.8-29.2s18.9-13.7,29.2-7.8l23.2,13.4c8.4,4.9,19.1,3.5,25.9-3.4,19-19.4,42.9-33.2,69.2-40,9.5-2.4,16.1-11,16-20.8v-26.6c0-11.8,9.6-21.3,21.3-21.3s21.3,9.6,21.3,21.3v26.7c0,9.7,6.6,18.2,16,20.7,26.3,6.8,50.2,20.7,69.2,40.1,6.8,7,17.5,8.4,25.9,3.5l23.1-13.4c10.2-6,23.2-2.5,29.2,7.6,6,10.2,2.5,23.2-7.6,29.2-.1,0-.2,.1-.2,.1l-23.1,13.4c-8.4,4.9-12.4,14.8-9.9,24.1h0Z" fill="#383838"/></svg>