<?xml version="1.0" encoding="UTF-8"?><svg id="a" xmlns="http://www.w3.org/2000/svg" width="460.9" height="512" viewBox="0 0 460.9 512"><path d="M8.7,384c17.6,30.6,56.8,41.1,87.4,23.5h.1l9.5-5.5c17.9,15.3,38.5,27.2,60.8,35.1v10.9c0,35.3,28.7,64,64,64s64-28.7,64-64v-10.9c22.2-7.9,42.8-19.8,60.8-35.1l9.5,5.5c30.6,17.7,69.8,7.2,87.5-23.5,17.7-30.6,7.2-69.8-23.5-87.5h0l-9.5-5.5c4.3-23.2,4.3-47,0-70.2l9.5-5.5c30.6-17.7,41.1-56.8,23.5-87.5-17.7-30.6-56.8-41.1-87.5-23.5l-9.5,5.5c-17.9-15.3-38.5-27.2-60.8-35v-10.8C294.5,28.7,265.8,0,230.5,0s-64,28.7-64,64v10.9c-22.2,7.9-42.8,19.8-60.8,35.1l-9.5-5.5c-30.7-17.6-69.9-7.1-87.6,23.5-17.7,30.6-7.2,69.8,23.5,87.5h0l9.5,5.5c-4.3,23.2-4.3,47,0,70.2l-9.5,5.5c-30.5,17.6-41,56.7-23.4,87.3ZM230.4,170.7c47.1,0,85.3,38.2,85.3,85.3s-38.2,85.3-85.3,85.3-85.3-38.2-85.3-85.3,38.2-85.3,85.3-85.3Z" /></svg>