<?xml version="1.0" encoding="UTF-8"?><svg id="a" xmlns="http://www.w3.org/2000/svg" width="511.7" height="511.83" viewBox="0 0 511.7 511.83"><path d="M493.2,215.73l-115.2,119c-4.3,4.3-9.8,6.4-15.4,6.4s-10.7-1.9-14.9-6c-8.5-8.1-8.7-21.8-.4-30.1l109.7-113h-179.7c-35.2,0-64,28.8-64,64v106.7c0,11.7-9.6,21.3-21.3,21.3s-21.3-9.6-21.3-21.3v-106.7c0-58.9,47.8-106.7,106.7-106.7h179.6l-109.7-113.2c-8.1-8.5-8.1-22,.4-30.1s22-8.1,30.1,.4l115.4,119.3c24.7,24.7,24.7,65.3-.2,90.2l.2-.2Zm-175.1,150c-7.9-7.7-39.9-50.1-62.1-80v74.2c0,31.5-20.9,59.3-51.2,65.3-41,7.9-76.8-23.3-76.8-62.7v-106.7c0-41.8,17.3-79.6,45-106.7H106.7C47.8,149.13,0,196.93,0,255.83v149.3c0,58.9,47.8,106.7,106.7,106.7h149.3c58.9,0,106.7-47.8,106.7-106.7v-21.3c-16.7,0-32.7-6.4-44.6-18.1h0Z" fill="#383838"/></svg>