<?xml version="1.0" encoding="UTF-8"?><svg id="a" xmlns="http://www.w3.org/2000/svg" width="426.7" height="512.03" viewBox="0 0 426.7 512.03"><path d="M353.7,45.73L220,1.12c-4.4-1.5-9.1-1.5-13.5,0L72.9,45.73C29.3,60.23-.1,101.02,0,146.92v109.1C0,417.32,196.3,506.52,204.7,510.23c5.5,2.4,11.8,2.4,17.3,0,8.4-3.7,204.7-92.8,204.7-254.2v-109.2c0-45.9-29.4-86.7-73-101.1Zm-39.7,161.6l-91.1,91.1c-7.5,7.6-17.8,11.8-28.5,11.8h-.7c-10.9-.2-21.3-4.8-28.7-12.8l-49.2-51.2c-8.6-8-9.1-21.5-1.1-30.1s21.5-9.1,30.1-1.1c.6,.6,1.2,1.2,1.7,1.8l47.9,49.9,89.3-89.6c8.5-8.2,22-8,30.2,.5,8,8.3,8,21.4,.1,29.7h0Z" fill="#383838"/></svg>