<?xml version="1.0" encoding="UTF-8"?><svg id="a" xmlns="http://www.w3.org/2000/svg" width="511.62" height="495.66" viewBox="0 0 511.62 495.66"><path d="M28.1,260.5l75.9,55.5-28.8,89.3c-9.6,28.5,.7,59.8,25.3,77.1,24.1,17.8,57.1,17.7,81.1-.4l74.3-54.7,74.3,54.6c30.6,22.5,73.7,16,96.2-14.7,13.1-17.8,16.9-40.9,10.1-61.9l-29-89.3,75.9-55.5c30.7-22.4,37.4-65.5,14.9-96.2-12.9-17.7-33.5-28.2-55.5-28.2h-93.3l-28.3-88.2c-11.4-36.2-50.2-56.2-86.4-44.6-21.2,6.8-37.8,23.4-44.5,44.5l-28.3,88.2H68.7C30.7,136.1-.1,166.9,0,204.9c0,22.1,10.5,42.7,28.1,55.6h0Z" fill="#383838"/></svg>