<?xml version="1.0" encoding="UTF-8"?><svg id="a" xmlns="http://www.w3.org/2000/svg" width="511.89" height="495.56" viewBox="0 0 511.89 495.56"><path d="M508.3,183.6c-9-28.5-35.5-47.8-65.4-47.5h-93.2l-28.3-88.2c-11.6-36.2-50.4-56.2-86.6-44.6-21.2,6.8-37.8,23.4-44.5,44.5l-28.3,88.2H68.7C30.7,136.1-.1,166.9,0,204.9,0,226.8,10.5,247.4,28.2,260.4l75.9,55.5-28.8,89.3c-9.6,28.5,.7,59.8,25.3,77.1,24.1,17.8,57.1,17.7,81.1-.4l74.3-54.7,74.3,54.6c30.6,22.5,73.7,16,96.2-14.7,13.1-17.8,16.9-40.9,10.1-61.9l-29.1-89.2,75.9-55.5c24.4-17.3,34.5-48.6,24.9-76.9Zm-50,42.5l-88.4,64.6c-7.4,5.4-10.6,15-7.7,23.8l33.6,103.9c4.4,13.8-3.1,28.5-16.9,32.9-8,2.6-16.8,1.2-23.6-3.8l-86.9-64c-7.5-5.5-17.7-5.5-25.3,0l-86.9,64c-11.6,8.6-28,6.3-36.6-5.3-5.1-6.8-6.5-15.7-3.9-23.8l33.7-103.9c2.8-8.8-.3-18.4-7.7-23.8L53.3,226.1c-11.7-8.5-14.2-24.9-5.7-36.6,4.9-6.7,12.8-10.7,21.1-10.7h108.8c9.3,0,17.5-6,20.3-14.8l33.1-103.1c4.4-13.8,19.2-21.3,32.9-16.9,8,2.6,14.3,8.9,16.9,16.9l33.1,103.1c2.8,8.8,11,14.8,20.3,14.8h108.8c14.5,0,26.2,11.7,26.2,26.2,0,8.3-4,16.2-10.8,21.1h0Z" fill="#383838"/></svg>