<?xml version="1.0" encoding="UTF-8"?><svg id="a" xmlns="http://www.w3.org/2000/svg" width="24" height="24" viewBox="0 0 24 24"><path d="M21,8H5c-.9,0-1.7-.4-2.2-1,0-.1,.1-.2,.2-.2,.4-.4,.5-1,.1-1.4s-1-.5-1.4-.1-.8,.8-1,1.3c-.5,.7-.7,1.5-.7,2.4v10c0,2.8,2.2,5,5,5H21c1.7,0,3-1.3,3-3V11c0-1.7-1.3-3-3-3h0Zm-2.5,9.5c-.8,0-1.5-.7-1.5-1.5s.7-1.5,1.5-1.5,1.5,.7,1.5,1.5-.7,1.5-1.5,1.5ZM15,3c1.7,0,3,1.3,3,3h3c1.1,0,2.2,.4,3,1V3c0-1.7-1.3-3-3-3H9c-1.7,0-3,1.3-3,3v3h6c0-1.7,1.3-3,3-3Zm6-1.5c.8,0,1.5,.7,1.5,1.5s-.7,1.5-1.5,1.5-1.5-.7-1.5-1.5,.7-1.5,1.5-1.5Zm-12,3c-.8,0-1.5-.7-1.5-1.5s.7-1.5,1.5-1.5,1.5,.7,1.5,1.5-.7,1.5-1.5,1.5Z" fill="#383838"/></svg>