<svg width="337" height="183" viewBox="0 0 337 183" fill="none" xmlns="http://www.w3.org/2000/svg">
<path d="M65.2872 60.6385C53.8172 66.8185 46.0772 63.2485 36.4172 65.4485C15.2372 70.2785 5.03723 98.2885 3.80723 101.808C2.25723 106.238 -6.84277 133.878 10.2272 157.408C25.9072 179.038 54.7072 184.318 75.4572 178.258C80.3672 176.828 96.4972 172.108 105.937 157.938C111.127 150.138 112.417 142.298 115.557 142.428C119.647 142.608 118.187 155.868 126.877 167.108C135.577 178.378 151.487 183.758 165.357 182.218C168.987 181.818 181.257 179.968 190.637 170.618C199.297 161.988 199.827 152.608 205.917 152.048C211.857 151.498 213.657 160.388 220.887 160.598C229.867 160.868 232.087 148.538 241.207 147.768C251.407 146.898 253.277 161.928 267.407 164.338C278.457 166.218 283.697 158.118 294.677 162.198C300.927 164.528 301.427 167.968 306.437 168.618C317.067 169.988 326.907 156.048 327.827 154.718C339.357 137.978 341.237 103.918 318.207 88.4185C303.637 78.6185 283.317 79.0885 266.877 89.4885C264.947 86.4485 261.537 82.1585 256.007 79.1485C240.627 70.7885 223.607 80.3685 222.237 81.1685C218.187 78.4285 200.507 67.1085 181.867 73.0885C179.187 73.9485 176.137 75.2785 172.957 77.3685C167.237 81.6485 163.927 81.7685 161.907 80.9285C157.827 79.2285 158.217 73.2285 153.707 71.3085C150.677 70.0085 147.817 71.5785 144.437 72.7385C134.267 76.1985 120.027 75.6385 113.787 69.5285C108.537 64.3885 113.177 59.4685 107.727 53.8485C100.977 46.8885 87.3372 47.4885 78.1472 51.5285C71.6172 54.3985 72.0972 56.9685 65.3172 60.6185L65.2872 60.6385Z" fill="#F7AE1A"/>
<path d="M308.407 99.8285V99.9185C305.797 97.7585 302.777 96.0485 299.527 94.8585C296.227 93.6585 292.767 93.0385 289.127 93.0385C283.497 93.0385 278.367 94.4085 273.767 97.1885C271.657 98.4185 269.747 99.8485 268.037 101.478C267.577 100.538 267.037 99.6285 266.427 98.7385C263.977 95.2685 260.847 92.4785 256.977 90.4385C253.167 88.3885 249.127 87.3085 244.917 87.3085C241.447 87.3085 237.857 88.0385 234.047 89.4685C230.287 90.8285 227.267 92.7685 225.057 95.2185C222.837 92.7685 219.877 90.8285 216.237 89.4085C213.417 88.3585 210.687 87.6885 208.017 87.4285C207.187 87.3385 206.367 87.2985 205.547 87.2985C203.437 87.2985 201.387 87.5685 199.397 88.0885C196.987 88.7185 194.677 89.7385 192.457 91.1085V90.9785C186.067 94.9185 181.667 101.788 181.137 109.728V114.348C180.127 113.568 179.047 112.848 177.917 112.178C173.317 109.458 168.187 108.028 162.557 108.028C156.927 108.028 151.747 109.458 147.137 112.178C145.757 113.008 144.437 113.918 143.227 114.918V110.518C142.997 106.648 142.147 103.008 140.657 99.6485C139.067 96.0685 136.957 92.9285 134.397 90.2085C131.837 87.4885 128.877 85.3185 125.467 83.7885C122.047 82.2485 118.237 81.4485 114.087 81.4485C110.447 81.4485 107.207 82.0685 104.357 83.2685C101.507 84.4685 98.8373 86.1685 96.2173 88.3285L96.1073 58.6885H84.8373C85.3073 77.4385 85.7773 96.1885 86.2473 114.948C86.2773 115.848 86.4273 119.418 86.5773 126.558C86.6073 127.638 86.6173 128.648 86.2773 129.938C85.9473 131.178 85.4473 132.058 84.9373 132.788C84.9373 132.788 84.9373 132.788 84.9373 132.798C84.4273 133.578 83.8573 134.408 83.2073 135.268C82.0773 136.768 80.6973 138.348 79.0273 139.918C73.5573 145.058 67.7173 147.418 64.0973 148.538C60.6273 149.908 56.9873 150.588 53.1173 150.588C47.4873 150.588 42.3573 149.228 37.6973 146.438C33.0873 143.708 29.3873 140.008 26.6573 135.398C23.8673 130.738 22.5073 125.608 22.5073 120.038C22.5073 114.468 23.8773 109.278 26.6573 104.618C29.3873 100.018 33.0873 96.3185 37.6973 93.5785C42.3573 90.7985 47.4873 89.4285 53.1173 89.4285C57.0473 89.4285 60.7973 90.1685 64.2673 91.5385C67.7973 92.9585 70.9273 94.8885 73.6573 97.3985L81.6273 89.3685C77.8673 85.8985 73.5473 83.1185 68.6573 81.1185C63.8173 79.1285 58.6473 78.1585 53.1273 78.1585C45.3873 78.1585 38.3973 80.0385 32.0773 83.7885C25.6973 87.5485 20.6373 92.6085 16.8873 98.9185C13.1373 105.298 11.2573 112.288 11.2573 120.028C11.2573 127.768 13.1373 134.708 16.8873 141.078C20.6473 147.398 25.7073 152.458 32.0773 156.208C38.3873 159.958 45.3873 161.838 53.1273 161.838C58.5273 161.838 63.7073 160.868 68.4873 158.938C69.3073 158.608 72.4773 157.328 77.1473 154.258C81.0173 151.718 86.4173 147.608 92.0173 141.228C92.0173 141.228 92.0173 141.228 92.0273 141.208C92.0973 141.138 92.1673 141.068 92.2373 140.978C92.3473 140.848 92.4673 140.718 92.5873 140.568C92.6873 140.448 92.7773 140.338 92.8573 140.218C92.9473 140.108 93.0173 139.988 93.0873 139.878C93.1173 139.828 93.1473 139.778 93.1773 139.738C94.9973 136.818 95.7973 134.318 96.1973 132.728C97.9973 125.528 95.6273 120.748 96.2773 110.888C96.5573 106.568 98.0873 102.808 100.707 99.6185C102.477 97.5085 104.357 95.8085 106.457 94.5585C108.567 93.3085 111.117 92.6885 114.077 92.6885C117.037 92.6885 119.597 93.3085 121.697 94.5585C123.807 95.8185 125.737 97.5185 127.447 99.6185C130.117 102.808 131.607 106.558 131.947 110.888H131.997V140.698C132.027 141.298 132.087 141.878 132.157 142.468C132.647 146.608 133.947 150.458 136.087 154.038C138.827 158.648 142.517 162.348 147.127 165.078C151.727 167.858 156.917 169.228 162.547 169.228C168.177 169.228 173.297 167.858 177.907 165.078C182.577 162.348 186.217 158.648 189.007 154.038C189.007 154.038 190.477 151.558 191.497 148.608C191.497 148.588 191.507 148.578 191.517 148.548C191.587 148.368 191.647 148.178 191.697 147.998C192.127 146.638 192.267 145.668 192.337 145.138C192.337 145.118 192.377 144.748 192.407 144.358C192.557 142.038 192.457 133.718 192.427 131.988C192.437 124.588 192.447 117.198 192.457 109.808C192.627 108.378 193.367 106.788 194.677 105.088C195.987 103.318 197.587 101.848 199.517 100.538C201.507 99.2385 203.497 98.6085 205.547 98.6085C208.727 98.6085 211.747 99.6285 214.647 101.798C217.557 103.958 219.147 106.628 219.427 109.818V115.508C219.377 119.318 219.377 124.268 219.377 130.298V148.618H230.587C230.587 147.938 230.587 145.658 230.637 141.738V128.538C230.637 123.648 230.637 119.318 230.697 115.678V109.818C230.927 106.918 232.577 104.298 235.587 102.028C238.667 99.7485 241.787 98.6085 244.917 98.6085C247.077 98.6085 249.187 99.1185 251.347 100.138C253.457 101.218 255.217 102.648 256.637 104.408C258.057 106.178 258.797 108.108 258.797 110.268C258.797 110.318 258.797 112.198 258.737 115.948V123.608C258.737 131.508 262.087 139.748 267.547 145.298C267.757 145.518 267.977 145.728 268.197 145.938C268.437 146.158 268.677 146.378 268.927 146.598C269.177 146.808 269.427 147.028 269.677 147.238C269.787 147.328 269.897 147.418 270.007 147.498C271.177 148.448 272.427 149.318 273.767 150.118C278.377 152.848 283.497 154.218 289.127 154.218C292.767 154.218 296.227 153.648 299.527 152.388C302.837 151.198 305.787 149.488 308.467 147.328V154.278H319.727V122.208C319.327 113.168 314.997 105.138 308.407 99.7985V99.8285ZM181.087 144.228C180.217 147.238 178.597 149.928 176.217 152.298C172.407 156.048 167.857 157.988 162.567 157.988C157.277 157.988 152.667 156.048 148.917 152.298C145.257 148.698 143.387 144.368 143.237 139.308C143.227 139.088 143.227 138.868 143.227 138.648C143.227 138.428 143.227 138.208 143.237 137.988C143.377 132.968 145.257 128.648 148.917 124.988C152.667 121.238 157.217 119.358 162.567 119.358C167.917 119.358 172.407 121.238 176.217 124.988C178.597 127.398 180.217 130.118 181.087 133.118C181.597 134.858 181.847 136.708 181.847 138.648C181.847 140.588 181.597 142.478 181.077 144.228H181.087ZM308.407 124.658C308.067 129.888 306.017 134.218 302.377 137.738C298.737 141.208 294.297 142.968 289.127 142.968C283.957 142.968 279.227 141.088 275.467 137.338C272.487 134.358 270.707 130.938 270.057 127.028C269.867 125.928 269.787 124.798 269.787 123.628C269.787 122.458 269.877 121.318 270.067 120.228C270.707 116.368 272.497 112.948 275.467 109.978C279.227 106.218 283.777 104.288 289.127 104.288C294.477 104.288 298.677 106.058 302.377 109.578C306.017 113.058 308.067 117.438 308.407 122.668V124.658Z" fill="#004432"/>
<path d="M122.007 37.5485C119.457 37.2085 114.627 36.5785 109.837 39.1585C101.567 43.6185 100.447 53.8685 100.277 56.1685C100.157 57.7585 99.5173 68.7385 107.977 75.4185C113.847 80.0485 123.567 82.1985 129.457 77.6585C131.427 76.1385 132.537 74.1985 133.187 72.6885C133.687 72.9785 134.417 73.3785 135.297 73.8085C138.397 75.3085 141.897 77.0185 145.607 76.7885C149.437 76.5585 152.377 74.3185 154.047 72.6885C154.687 73.2885 155.767 74.1785 157.277 74.9285C158.937 75.7485 161.927 77.2185 164.607 75.9185C165.097 75.6785 166.637 74.8385 167.587 72.4385C168.417 71.3085 168.457 69.7985 167.707 68.7085C166.867 67.4885 165.007 68.7085 163.607 67.7185C163.607 67.7185 162.157 66.6785 162.737 57.6585C163.057 57.4585 163.607 57.1485 164.347 56.9085C166.137 56.3485 167.017 56.9085 167.827 56.5385C169.837 55.6385 170.407 49.5685 167.947 47.8485C166.097 46.5485 163.757 48.5685 162.237 47.2285C160.477 45.6685 162.757 42.1585 161.117 40.6485C159.387 39.0585 154.247 40.5885 153.417 43.1285C152.837 44.9085 154.477 46.8285 153.537 47.7185C153.117 48.1185 152.687 47.8385 151.297 48.2185C149.957 48.5785 149.537 49.0685 148.817 49.3385C147.037 50.0085 145.987 48.4485 143.357 47.8485C139.157 46.8985 134.647 49.2485 133.797 49.7085C132.087 50.6385 131.257 51.3985 130.817 51.0785C129.817 50.3485 133.697 46.0385 132.427 42.5085C131.077 38.7385 124.547 37.8785 121.997 37.5385L122.007 37.5485Z" fill="#FFDCA5"/>
<path d="M116.913 72.5024C110.201 72.5024 105.961 66.464 105.961 60.1687C105.961 53.7127 111.1 47.1926 117.877 47.1926C120.864 47.1926 125.04 49.3767 125.04 52.8134C125.04 56.0896 120.222 56.5713 119.515 53.4879C118.841 52.2995 116.785 52.6849 115.661 53.1667C113.059 54.323 111.582 57.3101 111.582 60.3293C111.582 62.1279 112.192 64.1835 113.509 65.5325C115.436 67.6524 118.969 66.9137 120.093 65.1471C120.607 64.2799 120.8 63.4448 120.8 62.1922C119.515 62.417 117.941 63.0273 116.689 63.0273C115.275 63.0273 113.798 61.7425 113.798 60.265C113.798 57.0531 119.772 56.3786 122.181 56.3786C125.586 56.3786 126.453 59.3978 126.453 62.2564C126.453 67.9415 122.823 72.5024 116.913 72.5024ZM117.941 49.2803C118.712 49.2803 119.483 49.73 120.157 49.73C120.382 49.73 120.639 49.4088 120.639 49.184C120.639 48.3489 118.552 48.1562 117.909 48.1562C117.395 48.1562 115.725 48.2525 115.725 48.9591C115.725 49.2161 115.918 49.5373 116.207 49.5373C116.753 49.5373 117.363 49.2803 117.941 49.2803ZM113.027 67.5239L113.22 67.8772C114.248 68.7444 115.564 69.2905 116.946 69.2905C117.427 69.2905 118.134 69.3226 118.134 68.6481C118.134 67.9415 117.138 68.1984 116.785 68.1984C115.147 68.1984 114.023 66.9458 113.669 66.9458C113.38 66.9458 113.027 67.2027 113.027 67.5239ZM142.846 62.8667C144.259 62.8667 145.48 64.2799 145.48 65.661C145.48 68.8087 139.538 70.7037 137 70.7037C131.154 70.7037 128.167 66.0464 128.167 60.6505C128.167 55.0617 131.829 50.5008 137.675 50.5008C141.079 50.5008 144.612 53.231 144.612 56.8283C144.612 61.2286 140.116 63.766 136.197 63.766C135.555 63.766 134.945 63.7339 134.334 63.6375C134.784 64.3441 135.748 65.1471 136.647 65.1471C139.923 65.1471 140.597 62.8667 142.846 62.8667ZM137.643 55.4793C133.21 55.4793 133.21 59.976 137.996 58.0167C139.955 57.1816 140.18 55.4793 137.643 55.4793ZM140.758 53.6164C141.047 53.6164 141.368 53.3916 141.368 53.0704L141.176 52.6849C140.276 51.882 139.088 51.4002 137.867 51.4002C137.546 51.4002 137.321 51.6571 137.321 51.9783C137.321 52.2995 137.546 52.4922 137.867 52.5243C138.992 52.6207 140.63 53.6164 140.758 53.6164ZM136.968 67.1064C137.482 67.1064 138.735 67.01 138.735 66.3355C138.735 66.0464 138.51 65.7895 138.221 65.7895C137.803 65.7895 137.353 65.9822 136.904 65.9822C136.326 65.9822 135.78 65.661 135.234 65.661C135.041 65.661 134.848 65.7574 134.688 65.8859L134.655 66.1107C134.655 66.9137 136.326 67.1064 136.968 67.1064ZM159.061 69.5795C159.061 71.1213 157.808 72.3418 156.267 72.3418C152.605 72.3418 151.77 64.3441 151.545 61.5819C149.618 61.5819 146.888 61.5498 146.888 58.8197C146.888 55.9932 149.554 55.9932 151.609 55.9932C151.866 53.3273 151.384 47.4495 155.142 47.4495C156.331 47.4495 157.808 48.7343 157.808 49.9548C157.808 51.8498 157.391 53.8733 157.262 55.7684C159.414 55.7684 161.598 55.7041 161.598 58.6591C161.598 61.1965 158.965 61.325 157.166 61.4213C157.326 64.1835 159.061 68.8729 159.061 69.5795ZM154.661 49.473C155.592 49.473 155.881 49.9548 156.17 49.9548C156.395 49.9548 156.748 49.6336 156.748 49.3767C156.748 48.6058 155.271 48.3168 154.661 48.3168C154.307 48.3168 153.922 48.4131 153.922 48.8628C153.922 49.3767 154.243 49.473 154.661 49.473ZM158.001 57.8882H158.9C159.221 57.8882 159.511 57.6634 159.511 57.3101C159.511 56.6998 158.868 56.7641 158.451 56.7641C158.001 56.7641 157.359 56.6998 157.359 57.3422C157.359 57.6634 157.712 57.8882 158.001 57.8882Z" fill="#004432"/>
<path d="M260.777 0.248441C254.197 1.07844 248.437 3.45844 244.717 9.26844C243.537 11.1084 242.437 11.3184 240.347 10.9584C229.597 9.13844 221.577 13.4184 218.207 22.4684C214.397 32.7084 217.457 42.5184 226.597 47.9184C228.987 49.3284 229.607 50.6784 229.417 53.2384C229.127 57.0284 228.377 60.6184 226.857 64.1084C224.947 68.4784 225.617 69.4684 230.137 69.1184C240.217 68.3284 249.947 69.8084 259.437 73.2084C263.597 74.6984 267.437 76.2184 269.937 80.4984C272.087 84.1784 276.447 83.3684 278.067 78.8284C279.537 74.7084 281.417 74.2784 285.447 75.0084C294.517 76.6584 306.617 70.2584 311.177 62.1584C314.907 55.5284 313.747 49.1284 307.527 43.8684C305.357 42.0284 303.847 40.1784 302.917 37.3684C300.747 30.7984 296.307 25.9984 289.387 24.4784C285.827 23.6984 284.887 22.0184 284.457 18.6684C282.717 4.95844 274.367 -1.40156 260.767 0.258441L260.777 0.248441ZM285.047 61.9084C281.357 62.2184 271.407 56.0784 270.347 53.1884C269.197 50.0784 273.017 49.1584 273.797 46.8084C274.027 46.1184 274.897 45.4784 274.027 44.6684C271.577 46.7184 269.677 50.9984 266.447 50.1384C261.277 48.7584 255.557 47.9884 251.507 43.7084C247.117 39.0784 245.227 33.2184 243.647 26.4984C240.917 34.0484 244.837 39.3884 247.517 44.9884C239.007 46.8984 232.857 42.7684 226.017 37.3584C228.207 42.2184 232.617 43.0684 235.347 45.7784C233.507 47.1784 232.157 46.3784 230.837 45.8184C222.267 42.1484 218.367 32.9884 221.667 24.3184C224.947 15.6784 232.507 12.3784 241.987 15.4584C243.827 16.0584 245.307 17.5284 246.707 14.1884C249.987 6.37844 258.057 2.67844 267.407 3.91844C274.687 4.87844 279.307 9.93844 280.787 18.6484C281.037 20.0884 281.317 21.5884 281.177 23.0184C280.887 26.0384 281.767 27.1484 285.087 27.4584C292.397 28.1484 297.687 32.1784 299.387 39.4884C300.087 42.5084 301.467 44.2184 303.807 45.8984C309.017 49.6384 310.507 54.1584 308.487 58.9384C305.517 65.9884 293.907 72.4984 286.277 71.3884C283.777 71.0284 281.267 70.4984 280.577 67.6384C279.917 64.9284 281.887 63.5684 285.057 61.9184L285.047 61.9084ZM273.247 79.0084C270.217 72.4584 264.137 71.1584 258.537 69.2584C249.727 66.2784 240.517 65.6484 230.837 65.5484C232.377 61.7784 233.377 58.2384 233.177 54.7184C232.897 49.9084 235.477 48.8884 239.387 48.6484C254.177 47.7284 266.447 53.2084 276.927 63.2984C277.847 64.1884 279.137 65.0884 278.567 66.5784C277.017 70.6084 276.357 75.0484 273.247 79.0084Z" fill="#F5A71F"/>
</svg>
