<?xml version="1.0" encoding="UTF-8"?><svg id="a" xmlns="http://www.w3.org/2000/svg" viewBox="0 0 1216.62 307.87"><g id="b"><g id="c"><path d="M1352.66,141.06V448.22c-496.23,.2-992.47,.4-1488.7,.59,.1-80.85,.21-161.7,.32-242.55,12.75,.02,33.09-.7,57.17-5.11,85.05-15.57,109.77-57.69,182.17-60.1,26.82-.89,49.73,3.9,59.8,6.25,56.16,13.09,76.76,41.95,165.52,39.3,113.38-3.38,149.55-35.15,235.4-34.15,92.38,1.07,99.27,41.71,189.38,35.43,72.76-5.07,65.77-31.4,134.5-35.43,84.85-4.97,118.47,30.66,235.4,34.15,28.51,.85,50-1.55,67.89-5.64,40.96-9.36,56.18-24.18,97.63-33.66,26.72-6.11,49.67-6.58,63.51-6.24Z" /></g></g></svg>