<?xml version="1.0" encoding="UTF-8"?><svg xmlns="http://www.w3.org/2000/svg" viewBox="0 0 375 375"><g id="a"/><g id="b"><g id="c"><path d="M188.67,.63c27.65,1.13,54.8,6.39,80.03,17.7,25.57,11.46,49.48,26.89,67.38,48.37,18.05,21.65,30.03,47.81,35.76,75.35,5.68,27.29,3.07,55.29-2.88,82.53-5.99,27.4-13.84,55.25-31.92,76.76-17.96,21.36-44.86,31.93-69.92,44.35-25.31,12.55-50.2,27.93-78.45,29.21-28.62,1.29-56.26-9.35-81.94-21.98-25.54-12.56-48.89-29.24-66.87-51.21-18.07-22.08-31.62-47.9-37.12-75.84-5.43-27.6-2.41-56.21,5.87-83.1,8-25.99,24.92-47.46,41.09-69.36,16.67-22.58,30.79-48.71,55.71-61.76C130.49-1.5,160.34-.54,188.67,.63Z" fill-rule="evenodd"/></g></g></svg>