<svg width="696" height="718" viewBox="0 0 696 718" fill="none" xmlns="http://www.w3.org/2000/svg">
<path fill-rule="evenodd" clip-rule="evenodd" d="M354.249 0.00176337C421.167 0.279077 482.759 32.379 538.012 70.1313C592.097 107.086 639.227 153.916 666.606 213.424C694.032 273.034 701.647 339.73 691.907 404.62C682.206 469.249 653.19 528.663 611.709 579.163C569.438 630.627 516.417 672.349 453.668 694.665C388.601 717.806 317.917 724.818 251.085 707.418C183.057 689.706 121.424 650.801 76.7468 596.529C32.7045 543.028 11.5629 475.332 3.38375 406.519C-4.65209 338.912 0.560904 269.365 30.5975 208.266C60.1637 148.124 113.147 104.869 169.504 68.6041C225.888 32.3224 287.201 -0.276087 354.249 0.00176337Z" fill="white"/>
</svg>
