<?xml version="1.0" encoding="UTF-8"?><svg id="a" xmlns="http://www.w3.org/2000/svg" width="22" height="22" viewBox="0 0 22 22"><g><path d="M11,22C3.8,22,0,17.8,0,11,0,3.8,3.9,0,11,0s10.9,3.9,11,11c-.1,7.3-3.8,11-11,11ZM2,11c.1,6.1,3,9,9,9s8.9-2.9,9-9c-.1-5.9-3.1-8.9-9-9C5.1,2,2.1,5,2,11Z" /><path d="M11,14c-.6,0-1-.4-1-1v-1.4c0-.6,.4-1,1-1,1.5,0,2.1-.6,2.1-2.1,0-1.4-.7-2.1-2.1-2.1-1.5,0-2.1,.6-2.1,2.1,0,.6-.5,1-1,1-.6,0-1-.5-1-1,0-2.6,1.5-4.1,4.1-4.1s4.1,1.5,4.1,4.1c0,2.3-1.1,3.7-3.1,4v.5c0,.6-.4,1-1,1h0Z" /></g><circle cx="11" cy="17" r="1" /></svg>