<?xml version="1.0" encoding="utf-8"?>
<!-- Generator: Adobe Illustrator 26.1.0, SVG Export Plug-In . SVG Version: 6.00 Build 0)  -->
<svg version="1.1" id="a" xmlns="http://www.w3.org/2000/svg" xmlns:xlink="http://www.w3.org/1999/xlink" x="0px" y="0px"
	 viewBox="0 0 512 512" style="enable-background:new 0 0 512 512;" xml:space="preserve">
<path d="M117.3,500.7c-58.4,0-106-47.5-106-106v-64c0-34.9,28.4-63.3,63.3-63.3h64c11.4,0,20.7,9.3,20.7,20.7
	c0,35.7,29,64.7,64.7,64.7h53.3c35.7,0,64.7-29,64.7-64.7c0-11.4,9.3-20.7,20.7-20.7h74.7c34.9,0,63.3,28.4,63.3,63.3v64
	c0,58.4-47.5,106-106,106H117.3z M74.7,308.7c-12.1,0-22,9.9-22,22v64c0,35.7,29,64.7,64.7,64.7h277.3c31.8,0,58.3-23.1,63.7-53.3h1
	l0-11.3v-64c0-12.1-9.9-22-22-22h-55.7l-2.3,8.2c-12.9,45.4-54.8,77.1-102,77.1H224c-47.2,0-89.1-31.7-102-77.1l-2.3-8.2H74.7z"/>
<path d="M256,244.7c-1.9,0-3.7-0.7-5.2-1.9L180,171c-2.6-2.6-1.8-5.5-1.3-6.6c0.5-1.1,1.9-3.7,5.6-3.7h51.1V32
	c0-11.4,9.3-20.7,20.7-20.7s20.7,9.3,20.7,20.7v128.7h51.1c3.6,0,5.1,2.6,5.6,3.7c0.5,1.1,1.3,4-1.3,6.6l-70.4,71.3
	C260.2,243.8,258.1,244.7,256,244.7z"/>
</svg>
