<?xml version="1.0" encoding="UTF-8"?><svg id="a" xmlns="http://www.w3.org/2000/svg" width="426.71" height="512.23" viewBox="0 0 426.71 512.23"><path d="M213.33,512.23h-1.22C95.17,512.23,0,416.53,0,298.89c0-41.15,14.21-86.83,39.98-128.66,10.05-16.32,29.29-24.02,47.81-19.11,18.54,4.89,31.45,21.06,32.11,40.21,2.05,58.45,16.06,128.3,71.21,128.92,23.06,.19,41.32-15.94,43.24-36.84,2.01-21.89-5.91-39.04-15.91-60.74-11.78-25.6-26.45-57.43-26.45-104.55,0-36.42,7.36-72.79,14.66-92.69C212.07,10.64,224.9,.93,240.13,.06c15.77-.85,30.17,7.83,37.4,22.23,17.11,34.03,41.34,65.47,64.77,95.89,42.07,54.66,85.57,111.17,84.39,181.06,0,116.57-95.64,212.27-213.21,212.97h-.13l-.02,.02Z" /></svg>