<?xml version="1.0" encoding="UTF-8"?><svg id="a" xmlns="http://www.w3.org/2000/svg" width="512.08" height="512.2" viewBox="0 0 512.08 512.2"><path d="M191.94,138.8c0-17.7,14.3-32,32-32s32,14.3,32,32-14.3,32-32,32-32-14.3-32-32Zm316.6,184.6c-15.1,51.6-42.4,98.2-79.1,134.7-34.5,34.3-83.2,54.1-133.7,54.1h-79.4c-50.5,0-99.2-19.7-133.7-54C45.94,421.7,18.64,375.1,3.54,323.4c-7.7-26.3-2.7-53.9,13.7-75.8,7.3-9.7,16.3-17.6,26.5-23.3-.7-4.5-1-9-1-13.7,0-32,16.4-60.9,42.8-77.4-.1-1.7-.2-3.4-.2-5.1,0-50.2,43.8-91,94.7-84.8C195.84,16.8,224.44,0,256.04,0s60.2,16.8,76,43.2c49.4-5.9,92.7,32.9,94.6,81.5,26.4,16.7,42.7,45.6,42.7,77.3,0,7.2-.9,14.4-2.5,21.3,10.8,5.8,20.3,13.9,28,24.1,16.4,22,21.4,49.6,13.7,76h0ZM85.34,210.6c0,1,0,1.9,.1,2.9h193.6c-1.2-3.4-1.9-7-1.9-10.8,0-17.7,14.3-32,32-32s32,14.3,32,32c0,3.8-.7,7.4-1.9,10.8h86.1c.9-3.7,1.3-7.5,1.3-11.3,0-19.7-12-37.5-30.5-45.2-9-3.8-14.3-13.1-12.9-22.8,.4-2.5,.7-4.2,.7-6,0-23.5-19.1-42.7-42.7-42.7-4.5,0-9.1,.9-14.2,2.7-5.4,1.9-11.4,1.6-16.5-.9-5.2-2.5-9.1-7-10.9-12.5-6.3-19.1-23.9-32-43.8-32s-37.4,12.9-43.8,32c-1.8,5.5-5.7,9.9-10.9,12.5s-11.1,2.9-16.5,.9c-5-1.8-9.7-2.7-14.2-2.7-23.5,0-42.7,19.1-42.7,42.7,0,3.3,.6,6.8,1.8,11.3,2.9,10.6-2.6,21.6-12.9,25.6-18.9,7.3-31.3,25.3-31.3,45.5h0Zm375.3,62.6c-8.1-10.8-20.5-17-34.1-17H85.34c-13.5,0-25.9,6.2-34,17-8.3,11-10.8,24.9-6.9,38.2,12.9,44.1,37.1,85.5,68.2,116.5,26.5,26.5,64.3,41.6,103.6,41.6h79.4c39.3,0,77-15.2,103.6-41.6,31.1-31,55.4-72.4,68.2-116.5,4-13.3,1.4-27.2-6.8-38.2h0Z" /></svg>