<?xml version="1.0" encoding="UTF-8"?><svg id="a" xmlns="http://www.w3.org/2000/svg" width="22" height="21.92" viewBox="0 0 22 21.92"><path d="M21.25,9.4c.64-.73,.89-1.73,.67-2.68h0l-.08-.34c-.3-1.17-1.3-2.06-2.5-2.21-.82-.11-1.65-.2-2.49-.28,.02-.15,.03-.3,.03-.45,0-1.9-1.54-3.44-3.44-3.44-.95,0-1.81,.39-2.44,1.02-.62-.63-1.49-1.02-2.44-1.02-1.9,0-3.44,1.54-3.44,3.44,0,.15,.01,.31,.03,.46-.84,.08-1.68,.17-2.5,.28-1.2,.16-2.2,1.05-2.49,2.22l-.08,.34c-.22,.95,.03,1.95,.67,2.68,.13,.14,.26,.27,.41,.39-.61,3.07-.5,6.58,.3,9.45,.32,1.14,1.28,1.98,2.45,2.16,2.35,.35,4.72,.52,7.09,.52s4.74-.17,7.09-.52c1.17-.17,2.13-1.02,2.45-2.16,.8-2.86,.91-6.38,.3-9.45,.15-.11,.28-.24,.41-.39h0Zm-2.17-3.25c.39,.05,.72,.34,.82,.73l.07,.3h0c.08,.32,0,.65-.23,.9-.21,.24-.51,.36-.84,.33-2.26-.23-4.58-.35-6.91-.38v-2.39c2.4,.04,4.79,.2,7.08,.51h0ZM13.44,2c.79,0,1.44,.64,1.44,1.44,0,.09,0,.21-.02,.31-.94-.05-1.89-.09-2.84-.1,0-.07-.02-.15-.02-.21,0-.79,.65-1.44,1.44-1.44h0Zm-4.88,0c.79,0,1.44,.64,1.44,1.44,0,.05,0,.14-.02,.21-.95,.01-1.9,.05-2.84,.11-.01-.1-.02-.22-.02-.31,0-.79,.64-1.44,1.44-1.44h0ZM2.03,7.18l.07-.3c.1-.38,.43-.67,.82-.72,2.29-.3,4.68-.47,7.08-.51v2.38c-2.33,.03-4.64,.16-6.91,.39-.33,.04-.63-.09-.84-.33-.22-.25-.3-.58-.23-.9Zm1.36,11.52c-.69-2.46-.8-5.59-.31-8.28,.07,0,.14,0,.22-.01,2.2-.22,4.45-.35,6.7-.38v9.88c-1.94-.04-3.87-.2-5.8-.49-.39-.06-.71-.34-.81-.72h0Zm15.22,0c-.1,.37-.43,.66-.81,.72-1.92,.28-3.86,.44-5.8,.49V10.03c2.26,.03,4.51,.15,6.7,.37,.07,0,.14,.01,.22,.01,.49,2.69,.38,5.82-.31,8.29h0Z" /></svg>