<?xml version="1.0" encoding="UTF-8"?><svg id="a" xmlns="http://www.w3.org/2000/svg" width="22" height="21.92" viewBox="0 0 22 21.92"><path d="M2.97,12.43h0c-.74,0-1.45-.19-2.11-.51-.22,2.49-.02,5.1,.6,7.32,.32,1.14,1.28,1.98,2.45,2.16,2.02,.29,4.05,.46,6.08,.5V12.04c-2.38,.02-4.71,.19-7.02,.39Z" /><path d="M18.51,12.4c-2.14-.22-4.32-.34-6.52-.36v9.86c2.04-.04,4.07-.21,6.1-.5,1.17-.18,2.13-1.02,2.44-2.16,.62-2.22,.82-4.83,.6-7.33-.8,.39-1.72,.58-2.62,.49Z" /><path d="M21.92,6.73l-.09-.35c-.29-1.16-1.3-2.05-2.49-2.21-.83-.11-1.66-.2-2.5-.28h0c.02-.16,.04-.3,.04-.45,0-1.89-1.55-3.44-3.44-3.44-.95,0-1.82,.39-2.44,1.02-.62-.63-1.48-1.02-2.44-1.02-1.89,0-3.44,1.55-3.44,3.44,0,.16,.02,.31,.04,.46-.12,0-1.67,.16-2.5,.27-1.19,.16-2.2,1.05-2.49,2.22l-.08,.34c-.22,.95,.03,1.95,.67,2.68,.13,.14,.27,.27,.41,.38,.6,.47,1.36,.7,2.12,.62,2.22-.23,4.47-.33,6.71-.36V3.66c-.95,0-1.89,.04-2.84,.09-.02-.1-.04-.2-.04-.31,0-.79,.65-1.44,1.44-1.44s1.44,.65,1.44,1.44v.22c.67-.03,1.34-.03,2,0h0v-.22c0-.79,.64-1.44,1.44-1.44s1.43,.65,1.43,1.44c0,.1-.01,.21-.03,.31-.94-.05-1.89-.09-2.84-.09v6.39c2.24,.03,4.49,.12,6.7,.35,.76,.07,1.54-.16,2.14-.62,.14-.12,.29-.23,.42-.38,.64-.73,.89-1.73,.67-2.67Z" /><path d="M9.99,21.91c.33,0,.67,.01,1,.01s.67-.01,1-.01h-2Z" /></svg>