<?xml version="1.0" encoding="UTF-8"?><svg id="a" xmlns="http://www.w3.org/2000/svg" width="24" height="24" viewBox="0 0 24 24"><path d="M5,6c0-.6,.4-1,1-1h3c.6,0,1,.4,1,1s-.4,1-1,1h-3c-.6,0-1-.4-1-1Zm6,3H6c-.6,0-1,.4-1,1s.4,1,1,1h5c.6,0,1-.4,1-1s-.4-1-1-1Zm0,4H6c-.6,0-1,.4-1,1s.4,1,1,1h5c.6,0,1-.4,1-1s-.4-1-1-1ZM23.9,4.7c-.1-.4-.5-.7-.9-.7h-3l-1.1-3c-.1-.4-.5-.7-.9-.7s-.8,.3-.9,.7l-1.1,3h-3c-.4,0-.8,.3-.9,.7-.1,.4,0,.8,.3,1.1l2.4,1.9-.9,3c-.1,.4,0,.8,.4,1.1,.2,.1,.4,.2,.6,.2s.4-.1,.6-.2l2.5-1.8,2.8,1.8c.4,.2,.8,.2,1.2,0s.5-.7,.3-1.1l-1-3,2.4-1.9c.3-.3,.4-.7,.2-1.1h0Zm-1.9,15.3v.5c0,1.9-1.6,3.5-3.5,3.5H3.5c-1.9,0-3.5-1.6-3.5-3.5V5C0,2.2,2.2,0,5,0H13c.6,0,1,.4,1,1s-.4,1-1,1H5c-1.7,0-3,1.3-3,3v15.5c0,.8,.7,1.5,1.5,1.5s1.5-.7,1.5-1.5v-.5c0-1.7,1.3-3,3-3h9v-3c0-.6,.4-1,1-1s1,.4,1,1v3c1.7,0,3,1.3,3,3Zm-2,0c0-.6-.4-1-1-1H8c-.6,0-1,.4-1,1v.5c0,.5-.1,1-.3,1.5h11.8c.8,0,1.5-.7,1.5-1.5v-.5Z" /></svg>