<?xml version="1.0" encoding="utf-8"?>
<!-- Generator: Adobe Illustrator 26.1.0, SVG Export Plug-In . SVG Version: 6.00 Build 0)  -->
<svg version="1.1" id="a" xmlns="http://www.w3.org/2000/svg" xmlns:xlink="http://www.w3.org/1999/xlink" x="0px" y="0px"
	 viewBox="0 0 24 24" style="enable-background:new 0 0 24 24;" xml:space="preserve">
<style type="text/css">
	.st0{;}
</style>
<path class="st0" d="M23,12c-0.6,0-1,0.4-1,1v3h-6.1L10,10.1V2h1c0.6,0,1-0.4,1-1s-0.4-1-1-1H5C2.2,0,0,2.2,0,5v14c0,2.8,2.2,5,5,5
	h14c2.8,0,5-2.2,5-5v-6C24,12.4,23.6,12,23,12z M5,2h3v7.9l-6,3.2V5C2,3.3,3.3,2,5,2z M2,19v-3.6l6.8-3.6l5.4,5.4L10.5,22H5
	C3.3,22,2,20.7,2,19L2,19z M19,22h-6l3-4h6v1C22,20.7,20.7,22,19,22z M16.5,11.2c0.6,0.6,1.3,0.8,2,0.8s1.5-0.3,2-0.8l1.8-1.8
	c1-1,1.6-2.4,1.6-3.9s-0.6-2.9-1.6-3.9S19.9,0,18.4,0s-2.9,0.6-3.9,1.6S12.9,4,12.9,5.5s0.6,2.9,1.6,3.9L16.5,11.2L16.5,11.2z M16,3
	c0.7-0.7,1.5-1,2.5-1s1.8,0.4,2.5,1s1,1.5,1,2.5S21.6,7.3,21,8l-1.8,1.8c-0.4,0.4-0.9,0.4-1.3,0L16,8c-0.7-0.7-1-1.5-1-2.5
	S15.4,3.7,16,3z M17,5.5C17,4.7,17.7,4,18.5,4S20,4.7,20,5.5S19.3,7,18.5,7S17,6.3,17,5.5z"/>
</svg>
