<?xml version="1.0" encoding="UTF-8"?><svg id="a" xmlns="http://www.w3.org/2000/svg" width="24" height="24" viewBox="0 0 24 24"><path d="M7,5.5c0-.8,.7-1.5,1.5-1.5s1.5,.7,1.5,1.5-.7,1.5-1.5,1.5-1.5-.7-1.5-1.5Zm17,6.6v6.2c0,1.5-.8,2.8-2.1,3.5-1.9,1-5.2,2.2-9.9,2.2-5.3,0-8.9-2.6-10.5-4.2-1-.9-1.5-2.2-1.5-3.6,0-1.5,.3-5.5,3.1-9.8-.1-.3-.1-.6-.1-.9C3,2.5,5.5,0,8.5,0s5.5,2.5,5.5,5.5-2.2,5.2-5,5.5c0,.6-.1,1.3-.2,1.8,1-.4,2.3-.8,3.7-.8,.7,0,1.4,.1,1.9,.3,.4-.5,2.8-3.3,5.6-3.3,.5,0,.9,0,1.4,.1,1.5,.1,2.6,1.4,2.6,3h0ZM5,5.5c0,1.9,1.6,3.5,3.5,3.5s3.5-1.6,3.5-3.5-1.6-3.5-3.5-3.5-3.5,1.6-3.5,3.5Zm17,6.6c0-.5-.4-.9-.9-1-.3-.1-.7-.1-1.1-.1-1.5,0-3.1,1.4-3.8,2.3,.7,.6,1.1,1.1,1.1,1.2,.3,.5,.2,1.1-.3,1.4-.2,.1-.4,.2-.6,.2-.3,0-.6-.2-.8-.4-.1-.1-1.2-1.6-3.2-1.6-2.9,.1-4.9,1.7-4.9,1.7,0,0-.3,.2-.8,.2-.4,0-1-.5-.9-1.1,0-.1,.1-.4,.1-.4,.5-1.1,.8-2.3,.9-3.7-1.2-.3-2.3-1.1-3-2.1-1.8,3.4-2,6.3-2,7.5,0,.8,.3,1.6,.9,2.1,1.6,1.4,4.7,3.7,9.3,3.7,4.3,0,7.2-1.1,9-2,.6-.3,1-1,1-1.8v-6.1h0Z" /></svg>