<?xml version="1.0" encoding="utf-8"?>
<!-- Generator: Adobe Illustrator 26.1.0, SVG Export Plug-In . SVG Version: 6.00 Build 0)  -->
<svg version="1.1" id="Layer_1" xmlns="http://www.w3.org/2000/svg" xmlns:xlink="http://www.w3.org/1999/xlink" x="0px" y="0px"
	 viewBox="0 0 512 512" style="enable-background:new 0 0 512 512;" xml:space="preserve">
<style type="text/css">
	.st0{;}
</style>
<path class="st0" d="M489.4,305.1l-27.3-131.8c-9-50.3-52.3-87-103.3-87.7c2.3-6.8,4.1-13.9,4.1-21.5c0-35.2-28.8-64-64-64h-85.3
	c-35.2,0-64,28.8-64,64c0,7.5,1.5,14.7,4.1,21.5c-51,0.9-94.3,37.3-103.3,87.7L23,305.1c-4.5,25,2.3,50.3,18.6,69.8
	s40.1,30.5,65.5,30.5h298.7c25.4,0,49.3-11.1,65.5-30.5s23-44.8,18.6-69.8L489.4,305.1z M213.3,42.7h85.3c11.7,0,21.3,9.6,21.3,21.3
	s-9.6,21.3-21.3,21.3h-85.3c-11.7,0-21.3-9.6-21.3-21.3S201.6,42.7,213.3,42.7z M173.7,448h164.7c-9.6,36.7-42.7,64-82.3,64
	S183.3,484.7,173.7,448L173.7,448z"/>
</svg>
