<?xml version="1.0" encoding="UTF-8"?><svg id="a" xmlns="http://www.w3.org/2000/svg" width="24" height="24" viewBox="0 0 24 24"><path d="M12,16.5l5.8,2.3c1.9,.8,3.2,2.6,3.2,4.7v.5H4.5l-1.8-1.6c-.9-.9-1-2.3-.1-3.2,.9-.9,2.3-1,3.2-.1,0,0,1.1,.9,2.1,1.8V12c0-1.2,1.1-2.2,2.3-2,1,.2,1.7,1.1,1.7,2.1l.1,4.4h0ZM19.5,0H4.5C2,0,0,2,0,4.5v3c0,2.5,2,4.5,4.5,4.5h1.5c0-1.2,.5-2.3,1.4-3,.7-.6,1.6-1,2.5-1v-.1l.5-1.5-1.2-1c-.2-.2-.2-.4-.2-.6,.1-.2,.3-.3,.5-.3h1.5l.5-1.5c.1-.2,.3-.3,.5-.3s.4,.1,.5,.3l.5,1.5h1.5c.2,0,.4,.1,.5,.3s0,.4-.1,.6l-1.2,1,.5,1.5c.1,.2,0,.4-.2,.6s-.4,.1-.6,0l-1.4-1-.9,.6c1.7,.5,2.9,2,2.9,3.9h5.5c2.5,0,4.5-2,4.5-4.5v-3c0-2.5-2-4.5-4.5-4.5h0ZM8.8,5.4l-1.2,1,.5,1.5c.1,.1,0,.4-.1,.5s-.4,.1-.6,0l-1.4-.9-1.4,.9c0,.1-.1,.1-.2,.1s-.2,0-.3-.1c-.2-.1-.3-.3-.2-.5l.5-1.5-1.2-1c-.2-.2-.2-.4-.2-.6,.1-.2,.3-.3,.5-.3h1.5l.5-1.5c.1-.2,.3-.3,.5-.3s.4,.1,.5,.3l.5,1.5h1.5c.2,0,.4,.1,.5,.3s0,.4-.2,.6h0Zm12,0l-1.2,1,.5,1.5c.1,.2,0,.4-.2,.6s-.4,.1-.6,0l-1.3-1-1.4,.9c-.1,.1-.2,.1-.3,.1s-.2,0-.3-.1c-.2-.1-.2-.3-.2-.6l.5-1.5-1.2-1c-.1-.1-.1-.3-.1-.5,.1-.2,.3-.3,.5-.3h1.5l.5-1.5c.1-.2,.3-.3,.5-.3s.4,.1,.5,.3l.5,1.5h1.5c.2,0,.4,.1,.5,.3s0,.4-.2,.6h0Z" /></svg>