<?xml version="1.0" encoding="UTF-8"?><svg id="a" xmlns="http://www.w3.org/2000/svg" width="511.92" height="511.92" viewBox="0 0 511.92 511.92"><path d="M505.6,36.72L110.7,431.42c8.5,4.2,17.9,6.3,27.4,6.4h67.6c5.7,0,11.1,2.2,15.1,6.2l36.6,36.6c19.9,20,46.9,31.3,75.1,31.3,11.6,0,23.2-1.9,34.2-5.6,38-12.5,65.7-45.4,71.4-85L510.1,79.12c3.5-14.2,1.9-29.3-4.5-42.4Z" /><path d="M433.5,1.72L92.1,73.62C33.8,81.62-7,135.42,1,193.72c3.2,23,13.8,44.4,30.2,60.8l36.6,36.6c4,4,6.3,9.4,6.2,15.1v67.6c0,9.5,2.2,18.9,6.4,27.4L475.3,6.42C462.4,.02,447.6-1.68,433.5,1.72Z" /></svg>