<?xml version="1.0" encoding="utf-8"?>
<!-- Generator: Adobe Illustrator 26.1.0, SVG Export Plug-In . SVG Version: 6.00 Build 0)  -->
<svg version="1.1" id="a" xmlns="http://www.w3.org/2000/svg" xmlns:xlink="http://www.w3.org/1999/xlink" x="0px" y="0px"
	 viewBox="0 0 512 512.1" style="enable-background:new 0 0 512 512.1;" xml:space="preserve">
<path d="M117.3,500.7c-58.4,0-106-47.5-106-106V245.4c0-58.4,47.5-106,106-106c11.4,0,20.7,9.3,20.7,20.7s-9.3,20.7-20.7,20.7
	c-35.6,0-64.6,29-64.6,64.6v149.3c0,35.6,29,64.6,64.6,64.6h149.3c35.6,0,64.6-29,64.6-64.6c0-11.4,9.3-20.7,20.7-20.7
	c11.4,0,20.8,9.3,20.8,20.8c0,58.4-47.5,106-106,106H117.3z M202.7,372.7c-11.4,0-20.7-9.3-20.7-20.7V245.4c0-58.4,47.5-106,106-106
	h159.8l-89.5-93c-8-8.3-7.7-21.1,0.6-29.2c3.9-3.8,9-5.9,14.3-5.9c5.6,0,10.9,2.3,14.9,6.4L464,96.4h-1l19.5,19.4
	c11.7,11.7,18.2,27.4,18.2,44.2c0,17-6.6,33-18.6,44.9l-94,97.6c-3.6,3.9-9,6.2-14.7,6.2c-5.3,0-10.5-2.1-14.3-5.8l-0.1-0.1
	c-3.9-3.7-6.1-8.7-6.3-14.1c-0.1-5.6,1.9-10.9,5.8-15l89.4-93H288c-35.6,0-64.6,29-64.6,64.6v106.7
	C223.4,363.5,214.1,372.7,202.7,372.7z"/>
</svg>
