<?xml version="1.0" encoding="UTF-8"?><svg id="a" xmlns="http://www.w3.org/2000/svg" width="512.05" height="512.06" viewBox="0 0 512.05 512.06"><path d="M384,394.76c0,64.6-52.7,117.3-117.3,117.3H117.3C52.7,512.06,0,459.36,0,394.76V245.36c0-64.6,52.7-117.3,117.3-117.3,17.7,0,32,14.3,32,32s-14.3,32-32,32c-29.4,0-53.3,23.9-53.3,53.3v149.3c0,29.4,23.9,53.3,53.3,53.3h149.3c29.4,0,53.3-23.9,53.3-53.3,0-17.7,14.3-32,32-32s32.1,14.4,32.1,32.1ZM490.7,107.76L396.4,9.86c-12.4-12.8-32.5-13.2-45.3-.8-12.8,12.4-13.2,32.4-.9,45.2l71,73.8h-133.2c-64.6,0-117.3,52.7-117.3,117.3v106.7c0,17.7,14.3,32,32,32s32-14.3,32-32v-106.7c0-29.4,23.9-53.3,53.3-53.3h133.3l-71,73.8c-12.2,12.8-11.9,33.1,.9,45.2,6.2,6,14.3,9,22.2,9,8.3,0,16.9-3.2,23-9.8l93.7-97.3c29.2-29,29.2-76.6,.4-105.2h.2Z" /></svg>