<?xml version="1.0" encoding="utf-8"?>
<!-- Generator: Adobe Illustrator 26.1.0, SVG Export Plug-In . SVG Version: 6.00 Build 0)  -->
<svg version="1.1" id="a" xmlns="http://www.w3.org/2000/svg" xmlns:xlink="http://www.w3.org/1999/xlink" x="0px" y="0px"
	 viewBox="0 0 22 21.7" style="enable-background:new 0 0 22 21.7;" xml:space="preserve">
<path d="M15.2,16.4c-0.4,0-0.7-0.2-0.9-0.5c-0.2-0.5,0-1,0.5-1.3c1.1-0.5,2.1-1.1,2.9-1.8l1.2-1H8.2c-0.5,0-0.9-0.4-0.9-0.9
	s0.4-0.9,0.9-0.9h10.7l-1.2-1c-0.8-0.7-1.8-1.3-2.9-1.8c-0.5-0.2-0.7-0.8-0.5-1.3c0.2-0.3,0.5-0.5,0.9-0.5c0.1,0,0.3,0,0.4,0.1
	c3.9,1.9,5.3,4.3,5.7,4.9l0.1,0.2c0.1,0.2,0.1,0.5,0,0.7c-0.1,0.3-1.4,3-5.7,5.1C15.5,16.4,15.4,16.4,15.2,16.4z"/>
<path d="M6.5,21.2c-2.5,0-4.8-1-4.8-1c-0.3-0.1-0.5-0.4-0.6-0.7c-0.2-1.4-0.6-5-0.6-8.5c0-3.6,0.4-7.1,0.6-8.5
	C1.2,2,1.4,1.7,1.7,1.6c0,0,2.3-1.1,4.8-1.1c2.6,0,4.8,1.1,4.8,1.1c0.3,0.1,0.5,0.4,0.5,0.8l0,0c0,0,0.1,1.2,0.3,2.7
	c0,0.5-0.3,1-0.9,1c0,0,0,0,0,0c-0.6,0-1-0.4-1-0.9c-0.1-0.7-0.1-1.3-0.2-1.8l0-0.4L9.7,3C8.6,2.6,7.5,2.4,6.5,2.4
	c-1,0-2.1,0.2-3.2,0.6L3,3.1l0,0.4C2.7,5,2.5,8,2.5,10.9c0,2.9,0.3,5.9,0.5,7.4l0,0.4l0.3,0.1c1.2,0.4,2.2,0.6,3.2,0.6
	c1.3,0,2.4-0.3,3.2-0.6l0.3-0.1l0-0.4c0.1-0.5,0.1-1.1,0.2-1.8c0-0.5,0.4-0.8,0.9-0.9l0.1,0c0.3,0,0.5,0.1,0.6,0.3
	c0.2,0.2,0.2,0.4,0.2,0.7c-0.1,1.5-0.3,2.7-0.3,2.7c0,0.3-0.2,0.6-0.5,0.8C10.7,20.4,8.7,21.2,6.5,21.2z"/>
</svg>
