<?xml version="1.0" encoding="UTF-8"?><svg id="a" xmlns="http://www.w3.org/2000/svg" width="24" height="24" viewBox="0 0 24 24"><path d="M20,16c0,.8-.7,1.5-1.5,1.5s-1.5-.7-1.5-1.5,.7-1.5,1.5-1.5,1.5,.7,1.5,1.5ZM9.5,3c-.8,0-1.5,.7-1.5,1.5s.7,1.5,1.5,1.5,1.5-.7,1.5-1.5-.7-1.5-1.5-1.5Zm10,3c.8,0,1.5-.7,1.5-1.5s-.7-1.5-1.5-1.5-1.5,.7-1.5,1.5,.7,1.5,1.5,1.5Zm4.5-2V21c0,1.7-1.3,3-3,3H5c-2.8,0-5-2.2-5-5V9c0-.9,.2-1.7,.6-2.5,.3-.5,.6-.9,1-1.3s1-.3,1.4,.1,.3,1-.1,1.4c0,.1-.1,.2-.1,.3,.5,.6,1.3,1,2.2,1V4C5,1.8,6.8,0,9,0h11c2.2,0,4,1.8,4,4ZM7,8h4.5c0-1.7,1.3-3,3-3s3,1.3,3,3h3.5c.4,0,.7,.1,1,.2V4c0-1.1-.9-2-2-2H9c-1.1,0-2,.9-2,2v4Zm15,3c0-.6-.4-1-1-1H5c-1.1,0-2.1-.4-3-1v10c0,1.7,1.3,3,3,3H21c.6,0,1-.4,1-1V11Z" /></svg>