<?xml version="1.0" encoding="UTF-8"?><svg xmlns="http://www.w3.org/2000/svg" viewBox="0 0 305.05 304.65"><defs><style>.d{fill:#050505;}</style></defs><g id="a"/><g id="b"><g id="c"><path class="d" d="M295.73,114.69c-7.24-8.35-17.72-13.14-28.78-13.14h-1.13C259.48,44.52,211.02,0,152.33,0S45.17,44.52,38.83,101.55h-.75c-11.06,0-21.54,4.79-28.78,13.14C2.08,123.03-1.19,134.09,.39,145.02l13.47,94.24c5.32,37.28,37.74,65.39,75.39,65.39h126.55c37.65,0,70.07-28.12,75.39-65.39l13.47-94.24c1.57-10.93-1.69-21.99-8.92-30.34h0Zm-105.32,101.12H114.24c-7.01,0-12.69-5.69-12.69-12.69s5.69-12.69,12.69-12.69h76.17c7.01,0,12.69,5.69,12.69,12.69s-5.69,12.69-12.69,12.69ZM64.48,101.55c6.19-43,43.17-76.17,87.84-76.17s81.65,33.17,87.84,76.17H64.48Z"/></g></g></svg>