<svg width="166" height="166" viewBox="0 0 166 166" fill="none" xmlns="http://www.w3.org/2000/svg">
<rect width="166" height="166" rx="28" fill="#004432"/>
<path d="M41.8319 67.2584C37.2936 69.7308 34.2312 68.3026 30.409 69.1827C22.0288 71.1149 17.9931 82.3203 17.5064 83.7285C16.8931 85.5007 13.2926 96.5581 20.0466 105.971C26.2506 114.624 37.6458 116.737 45.8558 114.312C47.7985 113.74 54.1806 111.852 57.9157 106.183C59.9692 103.063 60.4796 99.9266 61.722 99.9786C63.3403 100.051 62.7626 105.355 66.2009 109.852C69.6432 114.36 75.9383 116.513 81.4262 115.897C82.8624 115.737 87.7172 114.996 91.4286 111.256C94.855 107.804 95.0647 104.051 97.4743 103.827C99.8246 103.607 100.537 107.163 103.397 107.247C106.951 107.356 107.829 102.423 111.437 102.115C115.473 101.767 116.213 107.78 121.804 108.744C126.176 109.496 128.249 106.255 132.594 107.888C135.067 108.82 135.264 110.196 137.247 110.456C141.453 111.004 145.346 105.427 145.71 104.895C150.272 98.1984 151.016 84.5726 141.904 78.3718C136.139 74.4514 128.099 74.6394 121.594 78.7999C120.83 77.5837 119.481 75.8675 117.293 74.6634C111.208 71.319 104.474 75.1514 103.932 75.4715C102.329 74.3753 95.3338 69.8468 87.9586 72.2391C86.8982 72.5831 85.6914 73.1152 84.4332 73.9513C82.17 75.6635 80.8604 75.7115 80.0611 75.3755C78.4468 74.6954 78.6011 72.2951 76.8167 71.527C75.6178 71.0069 74.4862 71.635 73.1488 72.0991C69.1249 73.4832 63.4906 73.2592 61.0217 70.8149C58.9444 68.7586 60.7803 66.7904 58.624 64.5421C55.9532 61.7577 50.5563 61.9978 46.9202 63.614C44.3365 64.7621 44.5264 65.7903 41.8438 67.2504L41.8319 67.2584Z" fill="#F7AE1A"/>
<path d="M138.026 82.9724C136.993 82.1083 135.799 81.4242 134.513 80.9482C133.207 80.4681 131.838 80.2201 130.398 80.2201C128.17 80.2201 126.14 80.7682 124.32 81.8803C123.485 82.3724 122.73 82.9444 122.053 83.5965C121.871 83.2205 121.657 82.8564 121.416 82.5004C120.447 81.1122 119.208 79.9961 117.677 79.1799C116.17 78.3598 114.571 77.9278 112.905 77.9278C111.532 77.9278 110.112 78.2198 108.604 78.7919C107.117 79.336 105.922 80.1121 105.047 81.0922C104.169 80.1121 102.998 79.336 101.558 78.7679C100.442 78.3478 99.3617 78.0798 98.3053 77.9758C97.9769 77.9398 97.6524 77.9238 97.328 77.9238C96.4931 77.9238 95.682 78.0318 94.8946 78.2398C93.9411 78.4919 93.0271 78.8999 92.1487 79.448V79.396C89.6204 80.9722 87.8795 83.7205 87.6698 86.8969V88.7452C87.2701 88.4331 86.8428 88.1451 86.3957 87.8771C84.5757 86.7889 82.5459 86.2168 80.3183 86.2168C78.0907 86.2168 76.0412 86.7889 74.2171 87.8771C73.6711 88.2091 73.1488 88.5731 72.6701 88.9732V87.213C72.5791 85.6648 72.2428 84.2086 71.6532 82.8644C71.0241 81.4322 70.1892 80.1761 69.1763 79.0879C68.1634 77.9998 66.9923 77.1317 65.6431 76.5196C64.2899 75.9035 62.7824 75.5835 61.1404 75.5835C59.7002 75.5835 58.4182 75.8315 57.2906 76.3116C56.1629 76.7917 55.1065 77.4717 54.0698 78.3358L54.0263 66.4783H49.5672C49.7531 73.9793 49.9391 81.4802 50.1251 88.9852C50.1369 89.3452 50.1963 90.7734 50.2556 93.6298C50.2675 94.0618 50.2714 94.4659 50.1369 94.982C50.0064 95.478 49.8085 95.8301 49.6067 96.1221C49.6067 96.1221 49.6067 96.1221 49.6067 96.1261C49.4049 96.4381 49.1794 96.7702 48.9222 97.1142C48.4751 97.7143 47.9291 98.3464 47.2683 98.9745C45.1041 101.031 42.7934 101.975 41.3611 102.423C39.9881 102.971 38.5479 103.243 37.0167 103.243C34.7891 103.243 32.7593 102.699 30.9155 101.583C29.0915 100.491 27.6275 99.0105 26.5473 97.1662C25.4434 95.302 24.9053 93.2497 24.9053 91.0215C24.9053 88.7932 25.4474 86.7169 26.5473 84.8527C27.6275 83.0124 29.0915 81.5322 30.9155 80.4361C32.7593 79.324 34.7891 78.7759 37.0167 78.7759C38.5716 78.7759 40.0554 79.0719 41.4283 79.62C42.825 80.1881 44.0635 80.9602 45.1436 81.9643L48.2971 78.7519C46.8094 77.3637 45.1001 76.2516 43.1653 75.4515C41.2503 74.6554 39.2047 74.2673 37.0206 74.2673C33.9582 74.2673 31.1925 75.0194 28.6919 76.5196C26.1675 78.0238 24.1654 80.0481 22.6817 82.5724C21.1979 85.1247 20.4541 87.9211 20.4541 91.0174C20.4541 94.1138 21.1979 96.8902 22.6817 99.4385C24.1694 101.967 26.1715 103.991 28.6919 105.491C31.1885 106.991 33.9582 107.744 37.0206 107.744C39.1572 107.744 41.2068 107.356 43.098 106.583C43.4225 106.451 44.6767 105.939 46.5245 104.711C48.0557 103.695 50.1923 102.051 52.408 99.4985C52.408 99.4985 52.408 99.4985 52.412 99.4905C52.4397 99.4625 52.4674 99.4345 52.4951 99.3985C52.5386 99.3465 52.5861 99.2945 52.6336 99.2345C52.6731 99.1865 52.7088 99.1425 52.7404 99.0945C52.776 99.0505 52.8037 99.0025 52.8314 98.9585C52.8433 98.9385 52.8551 98.9185 52.867 98.9024C53.5871 97.7343 53.9037 96.7342 54.0619 96.0981C54.7741 93.2177 53.8364 91.3055 54.0936 87.361C54.2044 85.6328 54.8097 84.1286 55.8464 82.8524C56.5467 82.0083 57.2906 81.3282 58.1215 80.8282C58.9563 80.3281 59.9653 80.0801 61.1364 80.0801C62.3076 80.0801 63.3205 80.3281 64.1514 80.8282C64.9863 81.3322 65.7499 82.0123 66.4265 82.8524C67.4829 84.1286 68.0724 85.6288 68.207 87.361H68.2268V99.2865C68.2386 99.5265 68.2624 99.7586 68.2901 99.9946C68.4839 101.651 68.9983 103.191 69.845 104.623C70.9291 106.467 72.3892 107.948 74.2132 109.04C76.0332 110.152 78.0867 110.7 80.3143 110.7C82.5419 110.7 84.5678 110.152 86.3918 109.04C88.2395 107.948 89.6797 106.467 90.7836 104.623C90.7836 104.623 91.3653 103.631 91.7689 102.451C91.7689 102.443 91.7728 102.439 91.7768 102.427C91.8045 102.355 91.8282 102.279 91.848 102.207C92.0181 101.663 92.0735 101.275 92.1012 101.063C92.1012 101.055 92.117 100.907 92.1289 100.751C92.1883 99.8226 92.1487 96.4941 92.1368 95.8021C92.1408 92.8417 92.1447 89.8853 92.1487 86.9289C92.216 86.3569 92.5088 85.7208 93.0271 85.0407C93.5454 84.3326 94.1785 83.7445 94.9421 83.2205C95.7295 82.7004 96.5168 82.4484 97.328 82.4484C98.5862 82.4484 99.7811 82.8564 100.929 83.7245C102.08 84.5886 102.709 85.6568 102.82 86.9329V89.2092C102.8 90.7334 102.8 92.7137 102.8 95.126V102.455H107.235C107.235 102.183 107.235 101.271 107.255 99.7026V94.4219C107.255 92.4656 107.255 90.7334 107.279 89.2772V86.9329C107.37 85.7728 108.023 84.7247 109.214 83.8165C110.432 82.9044 111.667 82.4484 112.905 82.4484C113.76 82.4484 114.595 82.6524 115.449 83.0604C116.284 83.4925 116.981 84.0646 117.543 84.7687C118.104 85.4767 118.397 86.2488 118.397 87.113C118.397 87.133 118.397 87.8851 118.373 89.3852V92.4496C118.373 95.61 119.699 98.9064 121.859 101.127C121.942 101.215 122.029 101.299 122.116 101.383C122.211 101.471 122.306 101.559 122.405 101.647C122.504 101.731 122.603 101.819 122.702 101.903C122.746 101.939 122.789 101.975 122.833 102.007C123.295 102.387 123.79 102.735 124.32 103.055C126.144 104.147 128.17 104.695 130.398 104.695C131.838 104.695 133.207 104.467 134.513 103.963C135.822 103.487 136.989 102.803 138.05 101.939V104.719H142.505V91.8896C142.347 88.2731 140.634 85.0607 138.026 82.9244V82.9724ZM87.65 100.699C87.3057 101.903 86.6648 102.979 85.7231 103.927C84.2156 105.427 82.4153 106.203 80.3223 106.203C78.2292 106.203 76.4052 105.427 74.9214 103.927C73.4733 102.487 72.7334 100.755 72.674 98.7304C72.6701 98.6424 72.6701 98.5544 72.6701 98.4664C72.6701 98.3784 72.6701 98.2904 72.674 98.2024C72.7294 96.1941 73.4733 94.4659 74.9214 93.0017C76.4052 91.5015 78.2054 90.7494 80.3223 90.7494C82.4391 90.7494 84.2156 91.5015 85.7231 93.0017C86.6648 93.9658 87.3057 95.054 87.65 96.2541C87.8518 96.9502 87.9507 97.6903 87.9507 98.4664C87.9507 99.2425 87.8518 99.9986 87.646 100.699H87.65ZM138.026 92.8697C137.892 94.9619 137.08 96.6942 135.64 98.1023C134.2 99.4905 132.443 100.195 130.398 100.195C128.352 100.195 126.481 99.4425 124.993 97.9423C123.814 96.7502 123.11 95.382 122.852 93.8178C122.777 93.3777 122.746 92.9257 122.746 92.4576C122.746 91.9896 122.781 91.5335 122.856 91.0975C123.11 89.5533 123.818 88.1851 124.993 86.9969C126.481 85.4928 128.281 84.7207 130.398 84.7207C132.514 84.7207 134.176 85.4287 135.64 86.8369C137.08 88.2291 137.892 89.9813 138.026 92.0736V92.8697Z" fill="#004432"/>
<path d="M64.2741 58.0213C63.2651 57.8853 61.354 57.6332 59.4588 58.6654C56.1867 60.4496 55.7435 64.5501 55.6762 65.4702C55.6288 66.1063 55.3755 70.4989 58.7229 73.1712C61.0454 75.0234 64.8913 75.8835 67.2218 74.0673C68.0012 73.4592 68.4404 72.6831 68.6976 72.0791C68.8954 72.1951 69.1843 72.3551 69.5325 72.5271C70.759 73.1272 72.1438 73.8113 73.6118 73.7193C75.1272 73.6273 76.2904 72.7311 76.9512 72.0791C77.2044 72.3191 77.6317 72.6751 78.2292 72.9752C78.886 73.3032 80.069 73.8913 81.1294 73.3712C81.3233 73.2752 81.9326 72.9392 82.3085 71.979C82.6369 71.527 82.6527 70.9229 82.356 70.4869C82.0236 69.9988 81.2877 70.4869 80.7337 70.0908C80.7337 70.0908 80.16 69.6747 80.3895 66.0663C80.5161 65.9863 80.7337 65.8623 81.0265 65.7663C81.7348 65.5422 82.083 65.7663 82.4035 65.6182C83.1987 65.2582 83.4243 62.8299 82.4509 62.1418C81.719 61.6217 80.7931 62.4298 80.1917 61.8938C79.4953 61.2697 80.3974 59.8655 79.7485 59.2614C79.064 58.6254 77.0303 59.2374 76.7019 60.2536C76.4724 60.9656 77.1213 61.7337 76.7494 62.0898C76.5832 62.2498 76.4131 62.1378 75.8631 62.2898C75.3329 62.4338 75.1667 62.6299 74.8819 62.7379C74.1776 63.0059 73.7621 62.3818 72.7215 62.1418C71.0597 61.7617 69.2753 62.7019 68.939 62.8859C68.2624 63.2579 67.934 63.562 67.7599 63.434C67.3642 63.1419 68.8994 61.4177 68.3969 60.0055C67.8627 58.4973 65.279 58.1533 64.2701 58.0173L64.2741 58.0213Z" fill="#FFDCA5"/>
<path d="M62.2586 72.0046C59.6025 72.0046 57.925 69.5889 57.925 67.0705C57.925 64.4878 59.9584 61.8794 62.6398 61.8794C63.8217 61.8794 65.4738 62.7532 65.4738 64.128C65.4738 65.4386 63.5676 65.6314 63.288 64.3979C63.0211 63.9224 62.2078 64.0766 61.763 64.2694C60.7336 64.7319 60.149 65.9269 60.149 67.1347C60.149 67.8543 60.3905 68.6767 60.9115 69.2163C61.674 70.0644 63.0719 69.7688 63.5167 69.0621C63.7201 68.7152 63.7963 68.3811 63.7963 67.88C63.288 67.9699 62.6653 68.2141 62.1696 68.2141C61.6105 68.2141 61.0259 67.7001 61.0259 67.109C61.0259 65.8241 63.3896 65.5543 64.3428 65.5543C65.6899 65.5543 66.033 66.7621 66.033 67.9057C66.033 70.18 64.5969 72.0046 62.2586 72.0046ZM62.6653 62.7146C62.9703 62.7146 63.2753 62.8945 63.5421 62.8945C63.6311 62.8945 63.7328 62.766 63.7328 62.6761C63.7328 62.342 62.9067 62.2649 62.6526 62.2649C62.4492 62.2649 61.7884 62.3034 61.7884 62.5861C61.7884 62.6889 61.8646 62.8174 61.979 62.8174C62.1951 62.8174 62.4365 62.7146 62.6653 62.7146ZM60.7209 70.013L60.7971 70.1543C61.2038 70.5012 61.7248 70.7197 62.2713 70.7197C62.4619 70.7197 62.7415 70.7325 62.7415 70.4627C62.7415 70.18 62.3475 70.2828 62.2078 70.2828C61.5596 70.2828 61.1148 69.7817 60.975 69.7817C60.8607 69.7817 60.7209 69.8845 60.7209 70.013Z" fill="#004432"/>
<path d="M72.5191 68.1498C73.0783 68.1498 73.5612 68.7152 73.5612 69.2677C73.5612 70.5269 71.2102 71.285 70.2062 71.285C67.8933 71.285 66.7114 69.4219 66.7114 67.2632C66.7114 65.0275 68.1601 63.2029 70.4731 63.2029C71.8202 63.2029 73.2181 64.2951 73.2181 65.7342C73.2181 67.4945 71.4389 68.5096 69.8885 68.5096C69.6343 68.5096 69.3929 68.4968 69.1514 68.4582C69.3293 68.7409 69.7106 69.0621 70.0664 69.0621C71.3627 69.0621 71.6295 68.1498 72.5191 68.1498ZM70.4604 65.1945C68.7066 65.1945 68.7066 66.9934 70.6002 66.2096C71.3754 65.8755 71.4643 65.1945 70.4604 65.1945ZM71.6931 64.4493C71.8075 64.4493 71.9345 64.3593 71.9345 64.2308L71.8583 64.0766C71.5025 63.7554 71.0322 63.5627 70.5493 63.5627C70.4222 63.5627 70.3333 63.6655 70.3333 63.7939C70.3333 63.9224 70.4222 63.9995 70.5493 64.0124C70.9941 64.0509 71.6422 64.4493 71.6931 64.4493ZM70.1935 69.8459C70.3968 69.8459 70.8924 69.8074 70.8924 69.5376C70.8924 69.4219 70.8035 69.3191 70.6891 69.3191C70.5239 69.3191 70.346 69.3962 70.1681 69.3962C69.9393 69.3962 69.7233 69.2677 69.5072 69.2677C69.431 69.2677 69.3547 69.3063 69.2912 69.3577L69.2785 69.4476C69.2785 69.7688 69.9393 69.8459 70.1935 69.8459Z" fill="#004432"/>
<path d="M78.9349 70.8353C78.9349 71.4521 78.4392 71.9404 77.8292 71.9404C76.3805 71.9404 76.0501 68.7409 75.9611 67.6359C75.1986 67.6359 74.1184 67.623 74.1184 66.5308C74.1184 65.4001 75.1732 65.4001 75.9865 65.4001C76.0882 64.3336 75.8976 61.9822 77.3845 61.9822C77.8547 61.9822 78.4392 62.4962 78.4392 62.9844C78.4392 63.7425 78.274 64.5521 78.2232 65.3102C79.0747 65.3102 79.9388 65.2845 79.9388 66.4666C79.9388 67.4817 78.8968 67.5331 78.1851 67.5716C78.2486 68.6767 78.9349 70.5526 78.9349 70.8353ZM77.1938 62.7917C77.5624 62.7917 77.6767 62.9844 77.7911 62.9844C77.8801 62.9844 78.0199 62.856 78.0199 62.7532C78.0199 62.4448 77.4353 62.3291 77.1938 62.3291C77.054 62.3291 76.9015 62.3677 76.9015 62.5476C76.9015 62.7532 77.0286 62.7917 77.1938 62.7917ZM78.5155 66.1582H78.8713C78.9984 66.1582 79.1128 66.0683 79.1128 65.9269C79.1128 65.6828 78.8586 65.7085 78.6934 65.7085C78.5155 65.7085 78.2613 65.6828 78.2613 65.9398C78.2613 66.0683 78.4011 66.1582 78.5155 66.1582Z" fill="#004432"/>
<path d="M119.181 43.0994C116.577 43.4314 114.298 44.3836 112.826 46.7078C112.359 47.4439 111.924 47.5279 111.097 47.3839C106.844 46.6558 103.67 48.3681 102.337 51.9885C100.83 56.085 102.04 60.0095 105.657 62.1698C106.602 62.7339 106.848 63.2739 106.772 64.2981C106.658 65.8143 106.361 67.2504 105.76 68.6466C105.004 70.3948 105.269 70.7909 107.057 70.6509C111.046 70.3348 114.896 70.9269 118.65 72.2871C120.296 72.8832 121.816 73.4912 122.805 75.2034C123.656 76.6756 125.381 76.3516 126.022 74.5354C126.603 72.8872 127.347 72.7151 128.942 73.0072C132.53 73.6673 137.318 71.1069 139.122 67.8665C140.598 65.2142 140.139 62.6539 137.678 60.5496C136.819 59.8135 136.222 59.0734 135.854 57.9493C134.995 55.3209 133.239 53.4007 130.501 52.7926C129.092 52.4806 128.72 51.8085 128.55 50.4683C127.861 44.9836 124.558 42.4393 119.177 43.1034L119.181 43.0994ZM128.783 67.7665C127.323 67.8905 123.386 65.4342 122.967 64.2781C122.512 63.0339 124.023 62.6659 124.332 61.7257C124.423 61.4497 124.767 61.1937 124.423 60.8696C123.454 61.6897 122.702 63.402 121.424 63.0579C119.378 62.5058 117.115 62.1978 115.513 60.4856C113.776 58.6334 113.028 56.2891 112.403 53.6007C111.323 56.6211 112.874 58.7574 113.934 60.9977C110.567 61.7617 108.134 60.1095 105.427 57.9453C106.294 59.8895 108.039 60.2296 109.119 61.3137C108.391 61.8738 107.857 61.5537 107.334 61.3297C103.943 59.8615 102.4 56.197 103.706 52.7286C105.004 49.2722 107.995 47.952 111.746 49.1842C112.474 49.4242 113.06 50.0123 113.614 48.6761C114.911 45.5517 118.104 44.0715 121.804 44.5676C124.684 44.9516 126.512 46.9759 127.098 50.4603C127.197 51.0364 127.308 51.6365 127.252 52.2085C127.137 53.4167 127.486 53.8608 128.799 53.9848C131.692 54.2608 133.785 55.873 134.457 58.7974C134.734 60.0055 135.28 60.6896 136.206 61.3617C138.267 62.8579 138.857 64.6661 138.058 66.5784C136.883 69.3987 132.289 72.003 129.27 71.559C128.281 71.415 127.288 71.2029 127.015 70.0588C126.754 68.9747 127.533 68.4306 128.787 67.7705L128.783 67.7665ZM124.115 74.6074C122.916 71.987 120.51 71.467 118.294 70.7069C114.808 69.5147 111.164 69.2627 107.334 69.2227C107.944 67.7145 108.339 66.2983 108.26 64.8901C108.149 62.9659 109.17 62.5578 110.717 62.4618C116.569 62.0938 121.424 64.2861 125.571 68.3226C125.935 68.6786 126.445 69.0387 126.219 69.6347C125.606 71.2469 125.345 73.0232 124.115 74.6074Z" fill="#F5A71F"/>
</svg>
