<svg width="64" height="79" viewBox="0 0 64 79" fill="none" xmlns="http://www.w3.org/2000/svg">
<path d="M61.956 26.9338C61.5001 27.2893 53.4499 31.8481 53.4499 41.9848C53.4499 53.7096 63.6934 57.8575 64 57.9602C63.9528 58.213 62.3727 63.6409 58.5992 69.1714C55.2345 74.0383 51.7204 78.8973 46.3746 78.8973C41.0289 78.8973 39.6531 75.7765 33.4819 75.7765C27.4679 75.7765 25.3296 79 20.4397 79C15.5499 79 12.1381 74.4966 8.21521 68.966C3.67129 62.4715 0 52.3822 0 42.8065C0 27.4473 9.93686 19.3016 19.7165 19.3016C24.9129 19.3016 29.2446 22.7306 32.5071 22.7306C35.6123 22.7306 40.455 19.0962 46.3668 19.0962C48.6073 19.0962 56.6574 19.3016 61.956 26.9338ZM43.5602 12.5939C46.0052 9.67847 47.7347 5.63326 47.7347 1.58806C47.7347 1.0271 47.6875 0.458246 47.5853 0C43.6074 0.150115 38.8748 2.66257 36.0211 5.9888C33.7806 8.54866 31.6895 12.5939 31.6895 16.6944C31.6895 17.3106 31.7917 17.9269 31.8388 18.1244C32.0904 18.1718 32.4992 18.2271 32.908 18.2271C36.4771 18.2271 40.966 15.8253 43.5602 12.5939Z" fill="white"/>
</svg>
