<svg width="2444" height="2508" viewBox="0 0 2444 2508" fill="none" xmlns="http://www.w3.org/2000/svg">
<path fill-rule="evenodd" clip-rule="evenodd" d="M1216.94 6.5854C1402.2 -21.4431 1597.74 42.9512 1755.72 143.699C1909.09 241.501 2024.1 396.783 2092.89 565.187C2155.81 719.229 2069.63 902.181 2129.04 1057.61C2192.71 1224.18 2434.96 1304.87 2443.69 1482.98C2451.99 1652.11 2289.46 1784.11 2170.59 1904.7C2064.4 2012.43 1907.25 2047.55 1791.36 2144.77C1665.97 2249.96 1618.65 2457.99 1460.56 2500.35C1304.67 2542.11 1158.83 2401.45 1004.06 2355.69C860.155 2313.15 705.684 2311.3 574.515 2238.39C436.978 2161.94 316.848 2055.03 228.659 1924.7C137.994 1790.7 93.506 1633.76 58.5174 1475.79C21.064 1306.7 -24.6749 1132.07 15.7944 963.679C56.9451 792.449 158.675 636.843 288.681 518.073C415.168 402.518 596.109 379.121 746.155 296.443C909.344 206.523 1032.72 34.4571 1216.94 6.5854Z" fill="#1D0C06"/>
</svg>
