<svg width="2049" height="1809" viewBox="0 0 2049 1809" fill="none" xmlns="http://www.w3.org/2000/svg">
<path fill-rule="evenodd" clip-rule="evenodd" d="M1570.53 1234.62C1476.61 1337.23 1525.5 1404 1460.03 1518.12C1316.5 1687.5 1133.41 1845.36 920.028 1801.12C708.174 1757.19 660.603 1706.16 519.528 1542.12C380.616 1380.59 140.066 1333.64 60.1309 1136.17C-25.6477 924.262 -33.4329 623.753 137.184 471.625C315.897 312.277 614.618 530.892 837.4 443.125C1047.98 360.165 1105.36 20.4708 1330.89 1.34887C1553.25 -17.5046 1748.86 174.267 1880.18 354.711C2004.99 526.218 2090.84 755.601 2026.96 957.845C1966.68 1148.74 1705.68 1086.95 1570.53 1234.62Z" fill="#652815"/>
</svg>
