<svg width="2049" height="1909" viewBox="0 0 2049 1909" fill="none" xmlns="http://www.w3.org/2000/svg">
<path fill-rule="evenodd" clip-rule="evenodd" d="M1572.98 1327.96C1479.07 1430.57 1491.16 1537.29 1394.7 1637.5C1243.58 1794.48 1113.58 1944.75 900.197 1900.5C688.343 1856.57 699.323 1675.43 558.248 1511.39C419.336 1349.87 140.234 1333.64 60.2996 1136.17C-25.479 924.262 -33.2642 623.753 137.353 471.624C316.066 312.277 614.787 530.892 837.569 443.124C1048.15 360.165 1105.53 20.4706 1331.06 1.34873C1553.42 -17.5047 1749.03 174.267 1880.35 354.711C2005.16 526.218 2091 755.601 2027.13 957.845C1966.85 1148.74 1708.14 1180.29 1572.98 1327.96Z" fill="#652815"/>
</svg>
