<svg width="2049" height="1694" viewBox="0 0 2049 1694" fill="none" xmlns="http://www.w3.org/2000/svg">
<path fill-rule="evenodd" clip-rule="evenodd" d="M1692.8 1256.62C1598.88 1359.23 1475.8 1308.12 1368.3 1414.12C1217.18 1571.1 1124.18 1730.36 910.795 1686.12C698.941 1642.19 586.371 1552.66 445.295 1388.62C306.383 1227.09 139.898 1333.64 59.9633 1136.17C-25.8153 924.262 -33.6005 623.753 137.016 471.624C315.73 312.277 614.451 530.892 837.232 443.125C1047.81 360.165 1105.19 20.4707 1330.72 1.34881C1553.09 -17.5046 1748.7 174.267 1880.01 354.711C2004.82 526.218 2090.67 755.601 2026.8 957.845C1966.51 1148.74 1827.95 1108.95 1692.8 1256.62Z" fill="#652815"/>
</svg>
