<svg width="1753" height="1592" viewBox="0 0 1753 1592" fill="none" xmlns="http://www.w3.org/2000/svg">
<path fill-rule="evenodd" clip-rule="evenodd" d="M1743.49 641.986C1725.58 710.868 1683.08 772.297 1661.73 803.169C1608.75 879.723 1582.7 882.588 1550.23 937.073C1500.02 1021.32 1525.81 1075.69 1506.13 1181.97C1484.32 1299.78 1420.48 1406.62 1354.48 1470.19C1225.02 1594.88 1045.65 1593.07 908.471 1591.7C698.834 1589.58 419.577 1520.63 358.388 1383.41C313.03 1281.68 293.669 1210.25 293.669 1210.25C290.903 1200.06 282.435 1163.5 263.754 1118.88C243.847 1071.36 230.053 1043.5 204.154 1008.14C130.518 907.633 80.7079 910.559 35.3013 812.225C-36.1143 657.586 22.0906 509.6 27.6102 496.197C40.081 465.92 97.0363 327.646 232.031 279.013C423.896 209.876 538.886 406.301 733.651 358.639C935.475 309.229 920.639 64.6817 1153.74 9.79691C1298.46 -24.28 1424.94 40.5718 1446.14 51.8377C1550.61 107.366 1599.09 190.913 1649.33 277.483C1704.39 372.382 1779.79 502.316 1743.49 641.998V641.986Z" fill="#004432"/>
</svg>
