<svg width="61" height="67" viewBox="0 0 61 67" fill="none" xmlns="http://www.w3.org/2000/svg">
<g clip-path="url(#clip0_472_14)">
<path d="M0.268834 61.4118C0.057395 60.7623 0.00207955 60.0906 0.00207955 59.4149C-0.000505283 50.8066 1.16838e-05 42.1988 1.16838e-05 33.5906C1.16838e-05 24.9058 1.16838e-05 16.2206 1.16838e-05 7.5359C1.16838e-05 6.8858 0.0517084 6.24289 0.262114 5.62101C0.415136 5.56149 0.480274 5.69028 0.559887 5.76776C0.996206 6.19312 1.42994 6.62053 1.85799 7.05358C2.79784 8.00538 3.79248 8.90125 4.73284 9.85254C5.80606 10.9377 6.89376 12.0091 7.98508 13.0763C8.61578 13.6936 9.26561 14.2914 9.88545 14.9194C10.7881 15.8337 11.7067 16.7322 12.6161 17.6404C13.2225 18.2458 13.8206 18.8621 14.4513 19.4424C15.708 20.5989 16.88 21.8406 18.1078 23.0259C19.1929 24.0731 20.2754 25.1234 21.3471 26.1845C21.5358 26.3713 21.7204 26.5621 21.9091 26.7484C24.0591 28.868 26.2361 30.9604 28.3603 33.1052C28.4751 33.2211 28.6699 33.2791 28.6772 33.4859C28.6539 33.6039 28.5624 33.6737 28.4838 33.7517C27.0224 35.2032 25.5821 36.6769 24.0927 38.0992C22.472 39.6467 20.9092 41.2501 19.3041 42.8125C18.5183 43.5775 17.7356 44.3462 16.9472 45.1091C15.8931 46.1292 14.8721 47.1836 13.8159 48.2016C12.049 49.9051 10.328 51.6537 8.5646 53.3598C6.86274 55.0058 5.19656 56.6862 3.50091 58.3379C2.49955 59.3127 1.49301 60.282 0.501469 61.2671C0.436332 61.3318 0.377914 61.4144 0.268834 61.4113V61.4118Z" fill="#4384F5"/>
<path d="M0.268829 61.4119C2.07925 59.6329 3.88966 57.854 5.70008 56.0751C7.93906 53.8744 10.1775 51.6732 12.417 49.4731C13.6769 48.2355 14.9388 46.9999 16.1976 45.7618C18.7018 43.2989 21.2039 40.834 23.7081 38.3711C25.305 36.801 26.904 35.2335 28.5014 33.664C28.5557 33.6106 28.6002 33.547 28.6487 33.488C28.6803 33.4577 28.7154 33.4597 28.7521 33.4762C29.7447 34.4115 30.7037 35.3813 31.6756 36.3382C32.5374 37.1869 33.3899 38.0448 34.262 38.8832C35.9318 40.4882 37.5483 42.1475 39.2114 43.7587C40.5173 45.0235 41.8102 46.3006 43.1016 47.5802C43.19 47.668 43.312 47.7367 43.3218 47.883C42.6585 48.3114 41.9586 48.6778 41.2726 49.0682C38.01 50.9231 34.7464 52.7759 31.4817 54.6271C28.4037 56.3722 25.3236 58.1136 22.2456 59.8587C19.5341 61.3965 16.8252 62.9399 14.1132 64.4766C13.0596 65.0733 12.0231 65.706 10.937 66.2391C7.64026 67.8574 3.56501 66.8184 1.42373 63.8521C0.887638 63.1097 0.480269 62.3062 0.268829 61.4119Z" fill="#E94235"/>
<path d="M28.7289 33.4833C28.702 33.4848 28.6756 33.4864 28.6488 33.4874C28.6172 33.334 28.4642 33.2924 28.3701 33.1985C27.0027 31.8362 25.6416 30.4668 24.2535 29.125C23.4393 28.3379 22.6354 27.5411 21.8274 26.7483C20.8989 25.8376 19.9885 24.9084 19.0476 24.0099C17.6022 22.6302 16.2178 21.1899 14.7672 19.8169C14.0274 19.1165 13.3186 18.3864 12.5737 17.6911C12.0009 17.1565 11.4524 16.5936 10.8992 16.0374C10.4179 15.5535 9.93766 15.0676 9.45223 14.5874C8.28388 13.4314 7.09538 12.2949 5.9229 11.1429C5.04354 10.2789 4.19313 9.38455 3.29877 8.53589C2.32222 7.6082 1.38186 6.64511 0.412032 5.71127C0.367573 5.66817 0.324148 5.6302 0.261078 5.61994C0.405829 4.87082 0.711873 4.18121 1.13268 3.5542C2.91674 0.900453 5.42868 -0.258638 8.61991 0.0481957C9.89785 0.170826 11.0181 0.730105 12.1151 1.36019C16.041 3.61424 19.9772 5.85032 23.9097 8.09308C26.6259 9.64213 29.342 11.1901 32.0581 12.7387C35.3047 14.5889 38.5523 16.4366 41.7962 18.2909C42.2946 18.5757 42.8095 18.8328 43.2799 19.1647C43.2686 19.2376 43.2164 19.2843 43.1678 19.3325C41.7926 20.6881 40.4423 22.0689 39.046 23.4034C38.4572 23.9663 37.8916 24.5523 37.3074 25.1187C36.0693 26.3189 34.8694 27.5575 33.6178 28.7443C32.054 30.2266 30.5548 31.7736 29.0132 33.278C28.9295 33.3596 28.8643 33.4715 28.7289 33.4848V33.4833Z" fill="#34A755"/>
<path d="M28.7289 33.4833C29.7137 32.5028 30.6949 31.5187 31.6849 30.5428C33.1867 29.0625 34.6957 27.5894 36.1991 26.1101C38.5259 23.8212 40.8507 21.5297 43.1766 19.2397C43.2065 19.2099 43.2453 19.1889 43.2799 19.1638C43.5203 19.1976 43.6914 19.3705 43.8894 19.4814C45.2884 20.2644 46.6769 21.0663 48.0686 21.8621C50.0868 23.0166 52.1041 24.1721 54.1228 25.3261C55.2694 25.9813 56.4466 26.5888 57.5575 27.2995C59.2537 28.3842 60.3471 29.9235 60.8025 31.8922C61.1753 33.5028 61.0212 35.0637 60.3502 36.5696C59.7128 37.9996 58.7166 39.1331 57.3595 39.9294C55.8283 40.8278 54.2825 41.7022 52.7358 42.5749C51.4356 43.3087 50.1344 44.0398 48.8415 44.7854C47.3552 45.6423 45.8513 46.4689 44.3552 47.3083C44.0115 47.5012 43.6666 47.6916 43.3223 47.883C42.3473 46.9173 41.3832 45.9404 40.3948 44.9886C38.5693 43.2302 36.7941 41.4215 34.9723 39.6595C33.1727 37.9196 31.4063 36.1479 29.6206 34.3946C29.3828 34.1606 29.1347 33.9374 28.8922 33.7076C28.8245 33.6434 28.7459 33.5849 28.7289 33.4838V33.4833Z" fill="#F8BA04"/>
</g>
<defs>
<clipPath id="clip0_472_14">
<rect width="61" height="67" fill="white"/>
</clipPath>
</defs>
</svg>
