<?xml version="1.0" encoding="UTF-8"?><svg id="a" xmlns="http://www.w3.org/2000/svg" width="24" height="24" viewBox="0 0 24 24"><path d="M14,5.5c0-.83,.67-1.5,1.5-1.5s1.5,.67,1.5,1.5-.67,1.5-1.5,1.5-1.5-.67-1.5-1.5Zm-.27,4.5h3.55c.41,0,.68-.39,.5-.72-.42-.76-1.28-1.28-2.28-1.28s-1.86,.52-2.28,1.28c-.18,.33,.1,.72,.5,.72Zm10.17,4.29l-1.53,6.12c-.64,2.14-2.61,3.59-4.8,3.59H5c-2.76,0-5-2.23-5-4.99V8.01c0-1.42,.76-2.74,1.99-3.46,.48-.28,1.09-.12,1.37,.36,.28,.48,.12,1.09-.36,1.37-.61,.36-1,1.02-1,1.73v11c0,.69,.24,1.34,.64,1.84l2.19-7.14c.05-.14,.11-.27,.17-.4V6c0-2.21,1.79-4,4-4h.56c.69-1.19,1.97-2,3.44-2h5c2.21,0,4,1.79,4,4v7.06c.59,.13,1.12,.46,1.49,.97,.35,.47,.51,1,.51,1.6,0,.22-.04,.44-.11,.66h0ZM11,4v7h9V4c0-1.1-.9-2-2-2h-5c-1.1,0-2,.9-2,2Zm-4,2v5.35c.5-.22,1.05-.35,1.61-.35h.39V4c-1.1,0-2,.9-2,2Zm14.89,7.22c-.06-.08-.2-.22-.45-.22H8.62c-.85,0-1.61,.54-1.89,1.34l-2.33,7.61c.2,.04,.4,.06,.61,.06h12.56c1.31,0,2.5-.88,2.87-2.14l1.53-6.12c.08-.28-.01-.45-.07-.54h0Z" /></svg>