<?xml version="1.0" encoding="UTF-8"?><svg id="a" xmlns="http://www.w3.org/2000/svg" width="512" height="512.02" viewBox="0 0 512 512.02"><path d="M437.33,256h-74.67c-17.66,0-32,14.34-32,32,0,29.42-23.91,53.33-53.33,53.33h-53.33c-29.42,0-53.33-23.91-53.33-53.33,0-17.66-14.34-32-32-32H74.67C33.49,256,0,289.49,0,330.67v64.02c0,64.68,52.65,117.33,117.33,117.33H394.67c64.68,0,117.33-52.65,117.33-117.33v-64.02c0-41.17-33.49-74.67-74.67-74.67Zm10.67,138.69c0,29.42-23.91,53.33-53.33,53.33H117.33c-29.42,0-53.33-23.91-53.33-53.33v-64.02c0-5.87,4.8-10.67,10.67-10.67h36.44c13.95,49.19,59.29,85.33,112.9,85.33h53.33c53.61,0,98.94-36.14,112.9-85.33h47.1c5.87,0,10.67,4.8,10.67,10.67v64.02Z" /><path d="M242.26,250.26c7.55,7.66,19.93,7.66,27.48,0l70.38-71.3c10.86-10.99,3.07-29.61-12.37-29.61h-39.74V32c0-17.66-14.34-32-32-32s-32,14.34-32,32v117.33h-39.74c-15.45,0-23.23,18.62-12.37,29.61l70.38,71.3v.02Z" /></svg>