<?xml version="1.0" encoding="UTF-8"?><svg id="a" xmlns="http://www.w3.org/2000/svg" width="512" height="512" viewBox="0 0 512 512"><path d="M155.58,151.91c-8.34-8.34-8.34-21.82,0-30.17s21.82-8.34,30.17,0l48.92,48.92V21.33c0-11.8,9.54-21.33,21.33-21.33s21.33,9.54,21.33,21.33V170.67l48.92-48.92c8.34-8.34,21.82-8.34,30.17,0s8.34,21.82,0,30.17l-70.25,70.25c-8.26,8.26-19.11,12.42-29.97,12.46l-.19,.04-.19-.04c-10.86-.04-21.72-4.2-29.97-12.46l-70.25-70.25h0Zm292.42,104.09h-64c-23.53,0-42.67,19.14-42.67,42.67s-19.14,42.67-42.67,42.67h-85.33c-23.53,0-42.67-19.14-42.67-42.67s-19.14-42.67-42.67-42.67H64C28.71,256,0,284.71,0,320v85.33c0,58.82,47.85,106.67,106.67,106.67H405.33c58.82,0,106.67-47.85,106.67-106.67v-85.33c0-35.29-28.71-64-64-64Z" /></svg>