<?xml version="1.0" encoding="UTF-8"?><svg id="a" xmlns="http://www.w3.org/2000/svg" width="22" height="19.2" viewBox="0 0 22 19.2"><path d="M20.9,5c-.6,.6-2.1,2.2-4.3,3.9-2.3,1.8-5,3.3-5.1,3.3-.1,.1-.3,.1-.5,.1s-.3,0-.5-.1c-.1-.1-2.8-1.5-5.1-3.3-2.2-1.8-3.7-3.3-4.3-3.9l-.6-.7c-.3,1.4-.5,3.3-.5,5.3,0,4.5,1.2,7.9,1.2,8,.1,.3,.4,.6,.7,.6,.2,0,4.4,1,9.1,1s8.9-1,9.1-1c.3-.1,.6-.3,.7-.6,0-.1,1.2-3.5,1.2-8,0-2.1-.2-3.9-.5-5.3l-.6,.7h0Z" /><path d="M2.6,3.6c.4,.4,1.9,2,4,3.7,1.6,1.3,3.5,2.4,4.4,2.9,.9-.5,2.7-1.6,4.4-2.9,2.1-1.7,3.6-3.3,4-3.7l1.5-1.6c0-.2-.1-.4-.1-.4-.1-.3-.4-.6-.7-.6-.2,0-4.3-1-9.1-1S2.1,1,1.9,1c-.3,0-.6,.3-.7,.6,0,0-.1,.2-.1,.4l1.5,1.6h0Z" /></svg>