<?xml version="1.0" encoding="UTF-8"?><svg id="a" xmlns="http://www.w3.org/2000/svg" width="22" height="20" viewBox="0 0 22 20"><path d="M15,20c-1.74,0-3.78-.66-3.87-.69-.37-.12-.64-.45-.68-.84-.02-.16-.45-3.97-.45-8.47,0-3.32-.25-6.31-.37-7.59-.66-.18-1.72-.41-2.63-.41s-1.98,.24-2.64,.42c-.12,1.17-.36,3.84-.36,7.08,0,.38-.21,.73-.55,.9-.12,.06-1.25,.6-2.45,.6-.55,0-1-.45-1-1s.45-1,1-1c.34,0,.7-.09,1-.18,.04-4.16,.43-7.18,.45-7.31,.05-.38,.31-.7,.68-.82,.09-.03,2.13-.69,3.87-.69s3.78,.66,3.87,.69c.37,.12,.64,.45,.68,.84,.02,.16,.45,3.97,.45,8.47,0,3.32,.25,6.31,.37,7.58,.66,.17,1.72,.42,2.63,.42s1.98-.24,2.64-.42c.12-1.17,.36-3.84,.36-7.08,0-.38,.21-.73,.55-.9,.12-.06,1.25-.6,2.45-.6,.55,0,1,.45,1,1s-.45,1-1,1c-.34,0-.7,.09-1,.18-.04,4.17-.43,7.18-.45,7.31-.05,.38-.31,.7-.68,.82-.09,.03-2.13,.69-3.87,.69Z" /></svg>