<?xml version="1.0" encoding="UTF-8"?><svg id="a" xmlns="http://www.w3.org/2000/svg" width="24.04" height="24.02" viewBox="0 0 24.04 24.02"><path d="M22,21.2v.3c-.4,1.4-1.8,2.5-3.4,2.5H6.2c.5-.7,.8-1.6,.8-2.5,0-1.4,1.1-2.5,2.5-2.5h10.5c1.2,0,2.1,1,2,2.2h0Zm-6.7-9.4l2.7-1.8,2.8,1.8c.4,.2,.8,.2,1.2,0s.5-.7,.3-1.1l-1-3,2.4-1.9c.3-.3,.4-.7,.3-1.1s-.6-.7-1-.7h-3l-1.1-3c-.1-.4-.5-.7-.9-.7s-.8,.3-.9,.7l-1.1,3h-3c-.4,0-.8,.3-.9,.7-.1,.4,0,.8,.3,1.1l2.4,1.9-.9,3c-.1,.4,0,.8,.4,1.1,.2,.1,.4,.2,.6,.2,0,0,.2,0,.4-.2h0Zm3.7,3.1v2.1H9.5c-2.5,0-4.5,2-4.5,4.5,0,1.5-1.3,2.7-2.8,2.5-1.3-.2-2.2-1.4-2.2-2.6V5C0,2.2,2.2,0,5,0H14.1c-1.6,.9-2.9,2.3-3.5,4H5c-.6,0-1,.4-1,1s.4,1,1,1h5.1c-.1,.3-.1,.7-.1,1s0,.7,.1,1H5c-.6,0-1,.4-1,1s.4,1,1,1h5.6c1.2,2.9,4.1,5,7.4,5,.3,0,.7,0,1-.1Zm-8-1.9c0-.6-.4-1-1-1H5c-.6,0-1,.4-1,1s.4,1,1,1h5c.6,0,1-.4,1-1Z" /></svg>