<?xml version="1.0" encoding="UTF-8"?><svg id="a" xmlns="http://www.w3.org/2000/svg" width="24" height="24" viewBox="0 0 24 24"><path d="M10.25,12.49l4.75-5.84V1c.05-.54,.43-1,1-1,.65,0,1.29,.18,1.85,.53l1.65,1.07c.66,.42,.66,1.38,0,1.8l-2.5,1.6v1.64l4.14,5.26-2.86,4.07-1.27-1.6c-.2-.25-.51-.4-.83-.38-.32,.01-.61,.18-.79,.45l-1.68,2.54-3.47-4.5Zm13.52,2.5l-1.29-1.42-2.49,3.47c-.35,.58-.95,.94-1.62,.96-.65,.03-1.3-.28-1.69-.82l-.39-.48-.95,1.44c-.39,.55-.99,.85-1.62,.86h-.02c-.63,0-1.22-.3-1.6-.81l-3.16-4.11-4.27,5.26c-.7,.86-.84,2.02-.36,3.03,.48,1,1.47,1.63,2.58,1.63H23c.55,0,1-.45,1-1v-7.39c0-.23-.08-.45-.22-.63h0ZM10.53,.12c-1.46,.53-4.64,2.54-6.14,3.89h0c-1.74,0-3.15,.85-4.14,2.09-.16,.2-.24,.46-.24,.72H0c0,.65,.53,1.18,1.18,1.18h.82l.79,.79-.5,.5c-.39,.39-.39,1.02,0,1.41s1.02,.39,1.41,0l.5-.5,.79,.79v.82c0,.65,.53,1.18,1.18,1.18,.26,0,.52-.08,.72-.24,1.24-.99,2.07-2.4,2.07-4.11,1.34-1.48,3.39-4.71,3.92-6.18,.56-1.4-.96-2.92-2.36-2.36h0Zm-4.03,7.89c-.83,0-1.5-.67-1.5-1.5s.67-1.5,1.5-1.5,1.5,.67,1.5,1.5-.67,1.5-1.5,1.5Z" /></svg>