<?xml version="1.0" encoding="UTF-8"?><svg id="a" xmlns="http://www.w3.org/2000/svg" width="24" height="24" viewBox="0 0 24 24"><path d="M5,11.82c0,.65,.53,1.18,1.18,1.18,.26,0,.52-.08,.72-.24,1.24-.99,2.07-2.4,2.07-4.11,2-2.21,3.2-4.81,3.95-6.87,.1-.29,.1-.61,0-.9-.25-.69-1.01-1.05-1.7-.8-2.05,.74-4.61,1.9-6.84,3.92-1.74,0-3.15,.85-4.14,2.09-.16,.2-.24,.46-.24,.72H0c0,.65,.53,1.19,1.18,1.19h.82l.49,.49-.57,.57c-.56,.56-.56,1.46,0,2.02s1.46,.56,2.02,0l.57-.57,.49,.49v.82h0Zm0-5.32c0-.83,.67-1.5,1.5-1.5s1.5,.67,1.5,1.5-.67,1.5-1.5,1.5-1.5-.67-1.5-1.5ZM24,22.5c0,.83-.67,1.5-1.5,1.5H8.35c-1.3,0-2.46-.73-3.02-1.9s-.41-2.53,.4-3.55L15,6.98V1.5C15,.67,15.67,0,16.5,0c.91-.03,1.56,.2,2.33,.7l1.79,1.12c.5,.31,.5,1.05,0,1.36l-2.62,1.82v1.97l5.67,7.09c.52,.65,.41,1.59-.23,2.11-.65,.52-1.59,.41-2.11-.23l-.73-.91-.91,1.43c-.41,.68-1.39,.73-1.86,.08l-.83-1.14-1.6,2.1c-.44,.62-1.36,.63-1.81,.01l-1.46-2.15-4.05,5.06c-.09,.11-.11,.24-.04,.37,.06,.13,.17,.2,.32,.2h14.15c.83,0,1.5,.67,1.5,1.5h0Z" /></svg>