<?xml version="1.0" encoding="UTF-8"?><svg id="a" xmlns="http://www.w3.org/2000/svg" width="36" height="36" viewBox="0 0 36 36"><path d="M28.5,36h-6c-4.1,0-7.5-3.4-7.5-7.5V7.5c0-4.1,3.4-7.5,7.5-7.5h6c4.1,0,7.5,3.4,7.5,7.5V28.5c0,4.1-3.4,7.5-7.5,7.5ZM22.5,3.4c-2.3,0-4.1,1.8-4.1,4.1V28.5c0,2.3,1.8,4.1,4.1,4.1h6c2.3,0,4.1-1.8,4.1-4.1V7.5c0-2.3-1.8-4.1-4.1-4.1h-6Z" /><path d="M10.5,31.5V6c0-.8-.7-1.5-1.5-1.5s-1.5,.7-1.5,1.5V31.5c0,.8,.7,1.5,1.5,1.5s1.5-.7,1.5-1.5Zm-7.5-4.5V10.5c0-.8-.7-1.5-1.5-1.5s-1.5,.7-1.5,1.5V27c0,.8,.7,1.5,1.5,1.5s1.5-.7,1.5-1.5Z" /></svg>