<?xml version="1.0" encoding="UTF-8"?><svg id="a" xmlns="http://www.w3.org/2000/svg" width="511.99" height="511.91" viewBox="0 0 511.99 511.91"><path d="M490.72,21.31C473.02,3.41,447.32-3.89,422.92,2.01L96.82,70.51C34.82,79.61-7.88,137.31,1.22,199.21c3.6,24.1,14.8,46.4,32,63.6l35,35c1.6,1.6,2.6,3.8,2.5,6.1v64.5c0,40.1,32.6,72.6,72.7,72.7h64.5c2.3,0,4.5,.9,6.1,2.5l35,35c21.1,21.3,49.9,33.3,79.9,33.3,12.4,0,24.7-2,36.4-6,40.5-13.4,69.9-48.6,76-90.8L509.82,90.01c6.2-24.7-1.1-50.8-19.1-68.7ZM66.62,166.91c5.8-17.9,21.4-30.8,40.1-33.2,.8-.1,1.5-.2,2.2-.4l284.2-59.7L134.72,331.81v-28c0-19.3-7.6-37.8-21.3-51.4l-34.9-35c-13.5-13-18.1-32.8-11.9-50.5Zm311.9,236.1c-.2,.7-.3,1.5-.4,2.2-3.7,27-28.6,45.9-55.6,42.2-10.7-1.5-20.6-6.4-28.2-14l-34.9-34.9c-13.6-13.7-32.1-21.4-51.4-21.3h-28L438.32,118.81l-59.8,284.2Z" /></svg>