<?xml version="1.0" encoding="UTF-8"?><svg id="a" xmlns="http://www.w3.org/2000/svg" width="426.7" height="512.03" viewBox="0 0 426.7 512.03"><path d="M353.7,45.73L220,1.12c-4.4-1.5-9.1-1.5-13.5,0L72.9,45.73C29.3,60.23-.1,101.02,0,146.92v109.1C0,417.32,196.3,506.52,204.7,510.23c5.5,2.4,11.8,2.4,17.3,0,8.4-3.7,204.7-92.8,204.7-254.2v-109.2c0-45.9-29.4-86.7-73-101.1Zm30.3,210.3c0,116.4-134.8,192.7-170.7,211-35.9-18.2-170.7-94.3-170.7-211v-109.2c0-27.6,17.6-52,43.8-60.7l126.9-42.3,126.9,42.3c26.1,8.7,43.8,33.2,43.8,60.7v109.2h0Z" /><path d="M283.7,177.13l-89.3,89.6-47.9-49.9c-8-8.7-21.4-9.3-30.1-1.3-8.7,8-9.3,21.4-1.3,30.1,.2,.3,.5,.5,.7,.8l49.2,51.2c7.4,8,17.8,12.6,28.7,12.8h.7c10.7,0,20.9-4.2,28.5-11.8l91.1-91.1c8.4-8.4,8.4-21.9,0-30.3-8.4-8.5-21.9-8.5-30.3-.1h0Z" /></svg>