<?xml version="1.0" encoding="UTF-8"?><svg id="a" xmlns="http://www.w3.org/2000/svg" width="22" height="21.74" viewBox="0 0 22 21.74"><path d="M21.89,10.3c-.13-.32-1.43-3.21-6.02-5.37-.75-.35-1.64-.03-2,.72-.35,.75-.03,1.64,.72,2,1.19,.56,2.09,1.17,2.76,1.73H8.17c-.83,0-1.5,.67-1.5,1.5s.67,1.5,1.5,1.5h9.17c-.67,.56-1.57,1.17-2.76,1.73-.75,.35-1.07,1.25-.72,2,.26,.54,.8,.86,1.36,.86,.21,0,.43-.05,.64-.14,4.54-2.14,5.88-5.03,6.02-5.35,.16-.37,.16-.79,0-1.16h0Z" /><path d="M11.34,15.05c-.83-.08-1.56,.53-1.63,1.36-.06,.69-.12,1.32-.17,1.8-.71,.24-1.83,.54-3.03,.54s-2.33-.31-3.05-.55c-.16-1.42-.45-4.38-.45-7.32s.29-5.9,.45-7.33c.72-.24,1.86-.55,3.05-.55s2.32,.3,3.03,.53c.05,.48,.11,1.11,.17,1.8,.07,.82,.8,1.43,1.63,1.36,.82-.08,1.43-.81,1.36-1.63-.14-1.51-.27-2.76-.27-2.76-.06-.52-.38-.97-.85-1.2-.1-.05-2.38-1.12-5.07-1.12S1.54,1.06,1.44,1.11c-.46,.21-.78,.65-.85,1.16-.02,.17-.59,4.33-.59,8.61s.57,8.43,.59,8.61c.07,.51,.4,.95,.86,1.16,.1,.05,2.46,1.1,5.05,1.1s4.97-1.07,5.07-1.11c.47-.22,.79-.68,.85-1.2,0,0,.13-1.24,.27-2.75,.08-.83-.53-1.56-1.36-1.63h0Z" /></svg>