<?xml version="1.0" encoding="UTF-8"?><svg xmlns="http://www.w3.org/2000/svg" viewBox="0 0 330.05 316.02"><defs><style>.d{fill:none;stroke:#fffdfa;stroke-linecap:round;stroke-miterlimit:10;stroke-width:25px;}</style></defs><g id="a"/><g id="b"><g id="c"><g><g><path class="d" d="M308.24,113.55c-7.25-8.34-17.72-13.13-28.78-13.13H50.58c-11.05,0-21.54,4.79-28.78,13.14-7.22,8.34-10.48,19.4-8.91,30.33l13.47,94.24c5.32,37.28,37.74,65.39,75.39,65.39h126.55c37.65,0,70.07-28.12,75.39-65.39l13.47-94.24c1.58-10.93-1.69-21.99-8.92-30.34Z"/><path class="d" d="M215.61,201.97c0,7.01-5.69,12.7-12.7,12.7H126.75c-7.01,0-12.7-5.69-12.7-12.7s5.69-12.69,12.7-12.69h76.16c7.01,0,12.7,5.69,12.7,12.69Z"/></g><path class="d" d="M67.59,100.42C72.8,51.77,112.99,14.34,160.36,12.57c49.97-1.87,94.51,36.45,100.09,87.86"/></g></g></g></svg>