<?xml version="1.0" encoding="UTF-8"?><svg xmlns="http://www.w3.org/2000/svg" viewBox="0 0 303.4 355.27"><defs><style>.d{fill:none;stroke:#fffdfa;stroke-linecap:round;stroke-miterlimit:10;stroke-width:12px;}.e{fill:#fffdfa;}</style></defs><g id="a"/><g id="b"><g id="c"><g><path class="e" d="M151.66,.36c-9.26,1.17-17.39,4.52-22.62,12.71-1.66,2.59-3.22,2.89-6.16,2.39-15.14-2.57-26.44,3.46-31.19,16.21-5.37,14.43-1.05,28.26,11.83,35.86,3.37,1.99,4.24,3.88,3.98,7.5-.4,5.34-1.46,10.4-3.61,15.32-2.69,6.15-1.74,7.55,4.62,7.05,14.19-1.11,27.92,.97,41.29,5.76,5.86,2.1,11.27,4.24,14.8,10.27,3.04,5.18,9.17,4.05,11.45-2.35,2.07-5.8,4.72-6.42,10.39-5.38,12.78,2.33,29.83-6.69,36.25-18.11,5.25-9.33,3.63-18.35-5.14-25.78-3.06-2.59-5.19-5.2-6.49-9.16-3.06-9.26-9.31-16.02-19.06-18.16-5.02-1.11-6.35-3.47-6.95-8.19C182.6,6.99,170.83-1.97,151.67,.36h0Zm34.19,86.88c-5.2,.44-19.22-8.22-20.72-12.29-1.62-4.39,3.77-5.67,4.86-8.99,.31-.97,1.55-1.88,.32-3.02-3.45,2.89-6.13,8.92-10.68,7.71-7.28-1.94-15.34-3.03-21.06-9.06-6.19-6.53-8.85-14.78-11.08-24.26-3.85,10.64,1.67,18.16,5.46,26.04-12,2.69-20.66-3.13-30.3-10.75,3.09,6.85,9.3,8.04,13.15,11.86-2.59,1.97-4.5,.85-6.36,.05-12.08-5.17-17.57-18.08-12.93-30.3,4.63-12.17,15.27-16.83,28.62-12.49,2.59,.84,4.67,2.91,6.65-1.78,4.63-11.01,15.99-16.21,29.17-14.48,10.26,1.35,16.77,8.48,18.86,20.76,.35,2.03,.75,4.15,.55,6.16-.41,4.26,.83,5.81,5.51,6.26,10.3,.97,17.75,6.66,20.15,16.95,.99,4.26,2.94,6.66,6.23,9.03,7.35,5.27,9.44,11.64,6.6,18.38-4.18,9.93-20.55,19.11-31.29,17.55-3.52-.51-7.06-1.26-8.04-5.29-.93-3.81,1.85-5.74,6.31-8.07v.02Zm-16.61,24.09c-4.28-9.23-12.84-11.07-20.73-13.73-12.42-4.21-25.39-5.09-39.03-5.23,2.17-5.31,3.58-10.3,3.3-15.27-.39-6.77,3.24-8.21,8.74-8.55,20.85-1.3,38.13,6.43,52.9,20.64,1.3,1.25,3.12,2.53,2.31,4.62-2.19,5.68-3.11,11.94-7.5,17.51h0Z"/><path class="d" d="M294.43,94.92c0-5.03,.34-9.96,1.01-14.78-51.76,1.79-88.48,52.81-84.55,102.52-32.73-28-85.64-28-118.36,0,3.94-49.71-32.8-100.73-84.55-102.52,1.59,11.25,1.29,23.5-.8,34.6,26.86,1.09,49.45,29.64,50.78,55.65,.06,30.47,.12,60.94,.18,91.41,2.28,47.87,45.28,88.43,93.55,87.45,48.28,.98,91.28-39.59,93.55-87.45l.18-91.41c1.31-25.97,23.95-54.58,50.78-55.65-1.2-6.41-1.81-13.03-1.81-19.81h.02Zm-83.53,162.53c-1.14,51.1-65.09,76.73-100.95,39.83-23.37-22.13-23.31-61.45,0-83.74,37.46-38.06,103.22-9.15,100.95,43.91Z"/></g></g></g></svg>